mtllib computer.mtl
o tower
usemtl atlas
v 0.245000 0.440000 0.765000
v 0.245000 0.440000 0.365000
v 0.245000 0.000000 0.765000
v 0.245000 0.000000 0.365000
v 0.045000 0.440000 0.365000
v 0.045000 0.440000 0.765000
v 0.045000 0.000000 0.365000
v 0.045000 0.000000 0.765000
v 0.045000 0.440000 0.365000
v 0.245000 0.440000 0.365000
v 0.045000 0.440000 0.765000
v 0.245000 0.440000 0.765000
v 0.045000 0.000000 0.765000
v 0.245000 0.000000 0.765000
v 0.045000 0.000000 0.365000
v 0.245000 0.000000 0.365000
v 0.045000 0.440000 0.765000
v 0.245000 0.440000 0.765000
v 0.045000 0.000000 0.765000
v 0.245000 0.000000 0.765000
v 0.245000 0.440000 0.365000
v 0.045000 0.440000 0.365000
v 0.245000 0.000000 0.365000
v 0.045000 0.000000 0.365000
vn 1 0 0
vn 1 0 0
vn 1 0 0
vn 1 0 0
vn -1 0 0
vn -1 0 0
vn -1 0 0
vn -1 0 0
vn 0 1 0
vn 0 1 0
vn 0 1 0
vn 0 1 0
vn 0 -1 0
vn 0 -1 0
vn 0 -1 0
vn 0 -1 0
vn 0 0 1
vn 0 0 1
vn 0 0 1
vn 0 0 1
vn 0 0 -1
vn 0 0 -1
vn 0 0 -1
vn 0 0 -1
vt 0.071429 0.5
vt 0.214286 0.5
vt 0.357143 0.5
vt 0.500000 0.5
vt 0.642857 0.5
vt 0.785714 0.5
vt 0.928571 0.5
f 1/5/1 3/5/3 2/5/2
f 3/5/3 4/5/4 2/5/2
f 5/5/5 7/5/7 6/5/6
f 7/5/7 8/5/8 6/5/6
f 9/5/9 11/5/11 10/5/10
f 11/5/11 12/5/12 10/5/10
f 13/5/13 15/5/15 14/5/14
f 15/5/15 16/5/16 14/5/14
f 17/5/17 19/5/19 18/5/18
f 19/5/19 20/5/20 18/5/18
f 21/5/21 23/5/23 22/5/22
f 23/5/23 24/5/24 22/5/22
o tower_front_mesh
usemtl atlas
v 0.235000 0.430000 0.370000
v 0.235000 0.430000 0.358000
v 0.235000 0.010000 0.370000
v 0.235000 0.010000 0.358000
v 0.055000 0.430000 0.358000
v 0.055000 0.430000 0.370000
v 0.055000 0.010000 0.358000
v 0.055000 0.010000 0.370000
v 0.055000 0.430000 0.358000
v 0.235000 0.430000 0.358000
v 0.055000 0.430000 0.370000
v 0.235000 0.430000 0.370000
v 0.055000 0.010000 0.370000
v 0.235000 0.010000 0.370000
v 0.055000 0.010000 0.358000
v 0.235000 0.010000 0.358000
v 0.055000 0.430000 0.370000
v 0.235000 0.430000 0.370000
v 0.055000 0.010000 0.370000
v 0.235000 0.010000 0.370000
v 0.235000 0.430000 0.358000
v 0.055000 0.430000 0.358000
v 0.235000 0.010000 0.358000
v 0.055000 0.010000 0.358000
vn 1 0 0
vn 1 0 0
vn 1 0 0
vn 1 0 0
vn -1 0 0
vn -1 0 0
vn -1 0 0
vn -1 0 0
vn 0 1 0
vn 0 1 0
vn 0 1 0
vn 0 1 0
vn 0 -1 0
vn 0 -1 0
vn 0 -1 0
vn 0 -1 0
vn 0 0 1
vn 0 0 1
vn 0 0 1
vn 0 0 1
vn 0 0 -1
vn 0 0 -1
vn 0 0 -1
vn 0 0 -1
f 25/6/25 27/6/27 26/6/26
f 27/6/27 28/6/28 26/6/26
f 29/6/29 31/6/31 30/6/30
f 31/6/31 32/6/32 30/6/30
f 33/6/33 35/6/35 34/6/34
f 35/6/35 36/6/36 34/6/34
f 37/6/37 39/6/39 38/6/38
f 39/6/39 40/6/40 38/6/38
f 41/6/41 43/6/43 42/6/42
f 43/6/43 44/6/44 42/6/42
f 45/6/45 47/6/47 46/6/46
f 47/6/47 48/6/48 46/6/46
o tower_front_bar_1
usemtl atlas
v 0.101000 0.430000 0.358000
v 0.101000 0.430000 0.352000
v 0.101000 0.010000 0.358000
v 0.101000 0.010000 0.352000
v 0.089000 0.430000 0.352000
v 0.089000 0.430000 0.358000
v 0.089000 0.010000 0.352000
v 0.089000 0.010000 0.358000
v 0.089000 0.430000 0.352000
v 0.101000 0.430000 0.352000
v 0.089000 0.430000 0.358000
v 0.101000 0.430000 0.358000
v 0.089000 0.010000 0.358000
v 0.101000 0.010000 0.358000
v 0.089000 0.010000 0.352000
v 0.101000 0.010000 0.352000
v 0.089000 0.430000 0.358000
v 0.101000 0.430000 0.358000
v 0.089000 0.010000 0.358000
v 0.101000 0.010000 0.358000
v 0.101000 0.430000 0.352000
v 0.089000 0.430000 0.352000
v 0.101000 0.010000 0.352000
v 0.089000 0.010000 0.352000
vn 1 0 0
vn 1 0 0
vn 1 0 0
vn 1 0 0
vn -1 0 0
vn -1 0 0
vn -1 0 0
vn -1 0 0
vn 0 1 0
vn 0 1 0
vn 0 1 0
vn 0 1 0
vn 0 -1 0
vn 0 -1 0
vn 0 -1 0
vn 0 -1 0
vn 0 0 1
vn 0 0 1
vn 0 0 1
vn 0 0 1
vn 0 0 -1
vn 0 0 -1
vn 0 0 -1
vn 0 0 -1
f 49/2/49 51/2/51 50/2/50
f 51/2/51 52/2/52 50/2/50
f 53/2/53 55/2/55 54/2/54
f 55/2/55 56/2/56 54/2/54
f 57/2/57 59/2/59 58/2/58
f 59/2/59 60/2/60 58/2/58
f 61/2/61 63/2/63 62/2/62
f 63/2/63 64/2/64 62/2/62
f 65/2/65 67/2/67 66/2/66
f 67/2/67 68/2/68 66/2/66
f 69/2/69 71/2/71 70/2/70
f 71/2/71 72/2/72 70/2/70
o tower_front_bar_2
usemtl atlas
v 0.151000 0.430000 0.358000
v 0.151000 0.430000 0.352000
v 0.151000 0.010000 0.358000
v 0.151000 0.010000 0.352000
v 0.139000 0.430000 0.352000
v 0.139000 0.430000 0.358000
v 0.139000 0.010000 0.352000
v 0.139000 0.010000 0.358000
v 0.139000 0.430000 0.352000
v 0.151000 0.430000 0.352000
v 0.139000 0.430000 0.358000
v 0.151000 0.430000 0.358000
v 0.139000 0.010000 0.358000
v 0.151000 0.010000 0.358000
v 0.139000 0.010000 0.352000
v 0.151000 0.010000 0.352000
v 0.139000 0.430000 0.358000
v 0.151000 0.430000 0.358000
v 0.139000 0.010000 0.358000
v 0.151000 0.010000 0.358000
v 0.151000 0.430000 0.352000
v 0.139000 0.430000 0.352000
v 0.151000 0.010000 0.352000
v 0.139000 0.010000 0.352000
vn 1 0 0
vn 1 0 0
vn 1 0 0
vn 1 0 0
vn -1 0 0
vn -1 0 0
vn -1 0 0
vn -1 0 0
vn 0 1 0
vn 0 1 0
vn 0 1 0
vn 0 1 0
vn 0 -1 0
vn 0 -1 0
vn 0 -1 0
vn 0 -1 0
vn 0 0 1
vn 0 0 1
vn 0 0 1
vn 0 0 1
vn 0 0 -1
vn 0 0 -1
vn 0 0 -1
vn 0 0 -1
f 73/2/73 75/2/75 74/2/74
f 75/2/75 76/2/76 74/2/74
f 77/2/77 79/2/79 78/2/78
f 79/2/79 80/2/80 78/2/78
f 81/2/81 83/2/83 82/2/82
f 83/2/83 84/2/84 82/2/82
f 85/2/85 87/2/87 86/2/86
f 87/2/87 88/2/88 86/2/86
f 89/2/89 91/2/91 90/2/90
f 91/2/91 92/2/92 90/2/90
f 93/2/93 95/2/95 94/2/94
f 95/2/95 96/2/96 94/2/94
o tower_front_bar_3
usemtl atlas
v 0.201000 0.430000 0.358000
v 0.201000 0.430000 0.352000
v 0.201000 0.010000 0.358000
v 0.201000 0.010000 0.352000
v 0.189000 0.430000 0.352000
v 0.189000 0.430000 0.358000
v 0.189000 0.010000 0.352000
v 0.189000 0.010000 0.358000
v 0.189000 0.430000 0.352000
v 0.201000 0.430000 0.352000
v 0.189000 0.430000 0.358000
v 0.201000 0.430000 0.358000
v 0.189000 0.010000 0.358000
v 0.201000 0.010000 0.358000
v 0.189000 0.010000 0.352000
v 0.201000 0.010000 0.352000
v 0.189000 0.430000 0.358000
v 0.201000 0.430000 0.358000
v 0.189000 0.010000 0.358000
v 0.201000 0.010000 0.358000
v 0.201000 0.430000 0.352000
v 0.189000 0.430000 0.352000
v 0.201000 0.010000 0.352000
v 0.189000 0.010000 0.352000
vn 1 0 0
vn 1 0 0
vn 1 0 0
vn 1 0 0
vn -1 0 0
vn -1 0 0
vn -1 0 0
vn -1 0 0
vn 0 1 0
vn 0 1 0
vn 0 1 0
vn 0 1 0
vn 0 -1 0
vn 0 -1 0
vn 0 -1 0
vn 0 -1 0
vn 0 0 1
vn 0 0 1
vn 0 0 1
vn 0 0 1
vn 0 0 -1
vn 0 0 -1
vn 0 0 -1
vn 0 0 -1
f 97/2/97 99/2/99 98/2/98
f 99/2/99 100/2/100 98/2/98
f 101/2/101 103/2/103 102/2/102
f 103/2/103 104/2/104 102/2/102
f 105/2/105 107/2/107 106/2/106
f 107/2/107 108/2/108 106/2/106
f 109/2/109 111/2/111 110/2/110
f 111/2/111 112/2/112 110/2/110
f 113/2/113 115/2/115 114/2/114
f 115/2/115 116/2/116 114/2/114
f 117/2/117 119/2/119 118/2/118
f 119/2/119 120/2/120 118/2/118
o tower_side_vent_1
usemtl atlas
v 0.249000 0.347000 0.695000
v 0.249000 0.347000 0.435000
v 0.249000 0.333000 0.695000
v 0.249000 0.333000 0.435000
v 0.243000 0.347000 0.435000
v 0.243000 0.347000 0.695000
v 0.243000 0.333000 0.435000
v 0.243000 0.333000 0.695000
v 0.243000 0.347000 0.435000
v 0.249000 0.347000 0.435000
v 0.243000 0.347000 0.695000
v 0.249000 0.347000 0.695000
v 0.243000 0.333000 0.695000
v 0.249000 0.333000 0.695000
v 0.243000 0.333000 0.435000
v 0.249000 0.333000 0.435000
v 0.243000 0.347000 0.695000
v 0.249000 0.347000 0.695000
v 0.243000 0.333000 0.695000
v 0.249000 0.333000 0.695000
v 0.249000 0.347000 0.435000
v 0.243000 0.347000 0.435000
v 0.249000 0.333000 0.435000
v 0.243000 0.333000 0.435000
vn 1 0 0
vn 1 0 0
vn 1 0 0
vn 1 0 0
vn -1 0 0
vn -1 0 0
vn -1 0 0
vn -1 0 0
vn 0 1 0
vn 0 1 0
vn 0 1 0
vn 0 1 0
vn 0 -1 0
vn 0 -1 0
vn 0 -1 0
vn 0 -1 0
vn 0 0 1
vn 0 0 1
vn 0 0 1
vn 0 0 1
vn 0 0 -1
vn 0 0 -1
vn 0 0 -1
vn 0 0 -1
f 121/6/121 123/6/123 122/6/122
f 123/6/123 124/6/124 122/6/122
f 125/6/125 127/6/127 126/6/126
f 127/6/127 128/6/128 126/6/126
f 129/6/129 131/6/131 130/6/130
f 131/6/131 132/6/132 130/6/130
f 133/6/133 135/6/135 134/6/134
f 135/6/135 136/6/136 134/6/134
f 137/6/137 139/6/139 138/6/138
f 139/6/139 140/6/140 138/6/138
f 141/6/141 143/6/143 142/6/142
f 143/6/143 144/6/144 142/6/142
o tower_side_vent_2
usemtl atlas
v 0.249000 0.307000 0.695000
v 0.249000 0.307000 0.435000
v 0.249000 0.293000 0.695000
v 0.249000 0.293000 0.435000
v 0.243000 0.307000 0.435000
v 0.243000 0.307000 0.695000
v 0.243000 0.293000 0.435000
v 0.243000 0.293000 0.695000
v 0.243000 0.307000 0.435000
v 0.249000 0.307000 0.435000
v 0.243000 0.307000 0.695000
v 0.249000 0.307000 0.695000
v 0.243000 0.293000 0.695000
v 0.249000 0.293000 0.695000
v 0.243000 0.293000 0.435000
v 0.249000 0.293000 0.435000
v 0.243000 0.307000 0.695000
v 0.249000 0.307000 0.695000
v 0.243000 0.293000 0.695000
v 0.249000 0.293000 0.695000
v 0.249000 0.307000 0.435000
v 0.243000 0.307000 0.435000
v 0.249000 0.293000 0.435000
v 0.243000 0.293000 0.435000
vn 1 0 0
vn 1 0 0
vn 1 0 0
vn 1 0 0
vn -1 0 0
vn -1 0 0
vn -1 0 0
vn -1 0 0
vn 0 1 0
vn 0 1 0
vn 0 1 0
vn 0 1 0
vn 0 -1 0
vn 0 -1 0
vn 0 -1 0
vn 0 -1 0
vn 0 0 1
vn 0 0 1
vn 0 0 1
vn 0 0 1
vn 0 0 -1
vn 0 0 -1
vn 0 0 -1
vn 0 0 -1
f 145/6/145 147/6/147 146/6/146
f 147/6/147 148/6/148 146/6/146
f 149/6/149 151/6/151 150/6/150
f 151/6/151 152/6/152 150/6/150
f 153/6/153 155/6/155 154/6/154
f 155/6/155 156/6/156 154/6/154
f 157/6/157 159/6/159 158/6/158
f 159/6/159 160/6/160 158/6/158
f 161/6/161 163/6/163 162/6/162
f 163/6/163 164/6/164 162/6/162
f 165/6/165 167/6/167 166/6/166
f 167/6/167 168/6/168 166/6/166
o tower_side_vent_3
usemtl atlas
v 0.249000 0.267000 0.695000
v 0.249000 0.267000 0.435000
v 0.249000 0.253000 0.695000
v 0.249000 0.253000 0.435000
v 0.243000 0.267000 0.435000
v 0.243000 0.267000 0.695000
v 0.243000 0.253000 0.435000
v 0.243000 0.253000 0.695000
v 0.243000 0.267000 0.435000
v 0.249000 0.267000 0.435000
v 0.243000 0.267000 0.695000
v 0.249000 0.267000 0.695000
v 0.243000 0.253000 0.695000
v 0.249000 0.253000 0.695000
v 0.243000 0.253000 0.435000
v 0.249000 0.253000 0.435000
v 0.243000 0.267000 0.695000
v 0.249000 0.267000 0.695000
v 0.243000 0.253000 0.695000
v 0.249000 0.253000 0.695000
v 0.249000 0.267000 0.435000
v 0.243000 0.267000 0.435000
v 0.249000 0.253000 0.435000
v 0.243000 0.253000 0.435000
vn 1 0 0
vn 1 0 0
vn 1 0 0
vn 1 0 0
vn -1 0 0
vn -1 0 0
vn -1 0 0
vn -1 0 0
vn 0 1 0
vn 0 1 0
vn 0 1 0
vn 0 1 0
vn 0 -1 0
vn 0 -1 0
vn 0 -1 0
vn 0 -1 0
vn 0 0 1
vn 0 0 1
vn 0 0 1
vn 0 0 1
vn 0 0 -1
vn 0 0 -1
vn 0 0 -1
vn 0 0 -1
f 169/6/169 171/6/171 170/6/170
f 171/6/171 172/6/172 170/6/170
f 173/6/173 175/6/175 174/6/174
f 175/6/175 176/6/176 174/6/174
f 177/6/177 179/6/179 178/6/178
f 179/6/179 180/6/180 178/6/178
f 181/6/181 183/6/183 182/6/182
f 183/6/183 184/6/184 182/6/182
f 185/6/185 187/6/187 186/6/186
f 187/6/187 188/6/188 186/6/186
f 189/6/189 191/6/191 190/6/190
f 191/6/191 192/6/192 190/6/190
o tower_top
usemtl atlas
v 0.245000 0.453000 0.765000
v 0.245000 0.453000 0.365000
v 0.245000 0.441000 0.765000
v 0.245000 0.441000 0.365000
v 0.045000 0.453000 0.365000
v 0.045000 0.453000 0.765000
v 0.045000 0.441000 0.365000
v 0.045000 0.441000 0.765000
v 0.045000 0.453000 0.365000
v 0.245000 0.453000 0.365000
v 0.045000 0.453000 0.765000
v 0.245000 0.453000 0.765000
v 0.045000 0.441000 0.765000
v 0.245000 0.441000 0.765000
v 0.045000 0.441000 0.365000
v 0.245000 0.441000 0.365000
v 0.045000 0.453000 0.765000
v 0.245000 0.453000 0.765000
v 0.045000 0.441000 0.765000
v 0.245000 0.441000 0.765000
v 0.245000 0.453000 0.365000
v 0.045000 0.453000 0.365000
v 0.245000 0.441000 0.365000
v 0.045000 0.441000 0.365000
vn 1 0 0
vn 1 0 0
vn 1 0 0
vn 1 0 0
vn -1 0 0
vn -1 0 0
vn -1 0 0
vn -1 0 0
vn 0 1 0
vn 0 1 0
vn 0 1 0
vn 0 1 0
vn 0 -1 0
vn 0 -1 0
vn 0 -1 0
vn 0 -1 0
vn 0 0 1
vn 0 0 1
vn 0 0 1
vn 0 0 1
vn 0 0 -1
vn 0 0 -1
vn 0 0 -1
vn 0 0 -1
f 193/2/193 195/2/195 194/2/194
f 195/2/195 196/2/196 194/2/194
f 197/2/197 199/2/199 198/2/198
f 199/2/199 200/2/200 198/2/198
f 201/2/201 203/2/203 202/2/202
f 203/2/203 204/2/204 202/2/202
f 205/2/205 207/2/207 206/2/206
f 207/2/207 208/2/208 206/2/206
f 209/2/209 211/2/211 210/2/210
f 211/2/211 212/2/212 210/2/210
f 213/2/213 215/2/215 214/2/214
f 215/2/215 216/2/216 214/2/214
o power_button
usemtl atlas
v 0.214000 0.461000 0.429000
v 0.214000 0.461000 0.401000
v 0.214000 0.453000 0.429000
v 0.214000 0.453000 0.401000
v 0.186000 0.461000 0.401000
v 0.186000 0.461000 0.429000
v 0.186000 0.453000 0.401000
v 0.186000 0.453000 0.429000
v 0.186000 0.461000 0.401000
v 0.214000 0.461000 0.401000
v 0.186000 0.461000 0.429000
v 0.214000 0.461000 0.429000
v 0.186000 0.453000 0.429000
v 0.214000 0.453000 0.429000
v 0.186000 0.453000 0.401000
v 0.214000 0.453000 0.401000
v 0.186000 0.461000 0.429000
v 0.214000 0.461000 0.429000
v 0.186000 0.453000 0.429000
v 0.214000 0.453000 0.429000
v 0.214000 0.461000 0.401000
v 0.186000 0.461000 0.401000
v 0.214000 0.453000 0.401000
v 0.186000 0.453000 0.401000
vn 1 0 0
vn 1 0 0
vn 1 0 0
vn 1 0 0
vn -1 0 0
vn -1 0 0
vn -1 0 0
vn -1 0 0
vn 0 1 0
vn 0 1 0
vn 0 1 0
vn 0 1 0
vn 0 -1 0
vn 0 -1 0
vn 0 -1 0
vn 0 -1 0
vn 0 0 1
vn 0 0 1
vn 0 0 1
vn 0 0 1
vn 0 0 -1
vn 0 0 -1
vn 0 0 -1
vn 0 0 -1
f 217/1/217 219/1/219 218/1/218
f 219/1/219 220/1/220 218/1/218
f 221/1/221 223/1/223 222/1/222
f 223/1/223 224/1/224 222/1/222
f 225/1/225 227/1/227 226/1/226
f 227/1/227 228/1/228 226/1/226
f 229/1/229 231/1/231 230/1/230
f 231/1/231 232/1/232 230/1/230
f 233/1/233 235/1/235 234/1/234
f 235/1/235 236/1/236 234/1/234
f 237/1/237 239/1/239 238/1/238
f 239/1/239 240/1/240 238/1/238
o power_led
usemtl atlas
v 0.155000 0.420000 0.363000
v 0.155000 0.420000 0.351000
v 0.155000 0.400000 0.363000
v 0.155000 0.400000 0.351000
v 0.135000 0.420000 0.351000
v 0.135000 0.420000 0.363000
v 0.135000 0.400000 0.351000
v 0.135000 0.400000 0.363000
v 0.135000 0.420000 0.351000
v 0.155000 0.420000 0.351000
v 0.135000 0.420000 0.363000
v 0.155000 0.420000 0.363000
v 0.135000 0.400000 0.363000
v 0.155000 0.400000 0.363000
v 0.135000 0.400000 0.351000
v 0.155000 0.400000 0.351000
v 0.135000 0.420000 0.363000
v 0.155000 0.420000 0.363000
v 0.135000 0.400000 0.363000
v 0.155000 0.400000 0.363000
v 0.155000 0.420000 0.351000
v 0.135000 0.420000 0.351000
v 0.155000 0.400000 0.351000
v 0.135000 0.400000 0.351000
vn 1 0 0
vn 1 0 0
vn 1 0 0
vn 1 0 0
vn -1 0 0
vn -1 0 0
vn -1 0 0
vn -1 0 0
vn 0 1 0
vn 0 1 0
vn 0 1 0
vn 0 1 0
vn 0 -1 0
vn 0 -1 0
vn 0 -1 0
vn 0 -1 0
vn 0 0 1
vn 0 0 1
vn 0 0 1
vn 0 0 1
vn 0 0 -1
vn 0 0 -1
vn 0 0 -1
vn 0 0 -1
f 241/4/241 243/4/243 242/4/242
f 243/4/243 244/4/244 242/4/242
f 245/4/245 247/4/247 246/4/246
f 247/4/247 248/4/248 246/4/246
f 249/4/249 251/4/251 250/4/250
f 251/4/251 252/4/252 250/4/250
f 253/4/253 255/4/255 254/4/254
f 255/4/255 256/4/256 254/4/254
f 257/4/257 259/4/259 258/4/258
f 259/4/259 260/4/260 258/4/258
f 261/4/261 263/4/263 262/4/262
f 263/4/263 264/4/264 262/4/262
o monitor_base
usemtl atlas
v 0.805000 0.014000 0.715000
v 0.805000 0.014000 0.555000
v 0.805000 0.000000 0.715000
v 0.805000 0.000000 0.555000
v 0.525000 0.014000 0.555000
v 0.525000 0.014000 0.715000
v 0.525000 0.000000 0.555000
v 0.525000 0.000000 0.715000
v 0.525000 0.014000 0.555000
v 0.805000 0.014000 0.555000
v 0.525000 0.014000 0.715000
v 0.805000 0.014000 0.715000
v 0.525000 0.000000 0.715000
v 0.805000 0.000000 0.715000
v 0.525000 0.000000 0.555000
v 0.805000 0.000000 0.555000
v 0.525000 0.014000 0.715000
v 0.805000 0.014000 0.715000
v 0.525000 0.000000 0.715000
v 0.805000 0.000000 0.715000
v 0.805000 0.014000 0.555000
v 0.525000 0.014000 0.555000
v 0.805000 0.000000 0.555000
v 0.525000 0.000000 0.555000
vn 1 0 0
vn 1 0 0
vn 1 0 0
vn 1 0 0
vn -1 0 0
vn -1 0 0
vn -1 0 0
vn -1 0 0
vn 0 1 0
vn 0 1 0
vn 0 1 0
vn 0 1 0
vn 0 -1 0
vn 0 -1 0
vn 0 -1 0
vn 0 -1 0
vn 0 0 1
vn 0 0 1
vn 0 0 1
vn 0 0 1
vn 0 0 -1
vn 0 0 -1
vn 0 0 -1
vn 0 0 -1
f 265/5/265 267/5/267 266/5/266
f 267/5/267 268/5/268 266/5/266
f 269/5/269 271/5/271 270/5/270
f 271/5/271 272/5/272 270/5/270
f 273/5/273 275/5/275 274/5/274
f 275/5/275 276/5/276 274/5/274
f 277/5/277 279/5/279 278/5/278
f 279/5/279 280/5/280 278/5/278
f 281/5/281 283/5/283 282/5/282
f 283/5/283 284/5/284 282/5/282
f 285/5/285 287/5/287 286/5/286
f 287/5/287 288/5/288 286/5/286
o monitor_neck
usemtl atlas
v 0.687500 0.185000 0.690000
v 0.687500 0.185000 0.660000
v 0.687500 0.015000 0.690000
v 0.687500 0.015000 0.660000
v 0.642500 0.185000 0.660000
v 0.642500 0.185000 0.690000
v 0.642500 0.015000 0.660000
v 0.642500 0.015000 0.690000
v 0.642500 0.185000 0.660000
v 0.687500 0.185000 0.660000
v 0.642500 0.185000 0.690000
v 0.687500 0.185000 0.690000
v 0.642500 0.015000 0.690000
v 0.687500 0.015000 0.690000
v 0.642500 0.015000 0.660000
v 0.687500 0.015000 0.660000
v 0.642500 0.185000 0.690000
v 0.687500 0.185000 0.690000
v 0.642500 0.015000 0.690000
v 0.687500 0.015000 0.690000
v 0.687500 0.185000 0.660000
v 0.642500 0.185000 0.660000
v 0.687500 0.015000 0.660000
v 0.642500 0.015000 0.660000
vn 1 0 0
vn 1 0 0
vn 1 0 0
vn 1 0 0
vn -1 0 0
vn -1 0 0
vn -1 0 0
vn -1 0 0
vn 0 1 0
vn 0 1 0
vn 0 1 0
vn 0 1 0
vn 0 -1 0
vn 0 -1 0
vn 0 -1 0
vn 0 -1 0
vn 0 0 1
vn 0 0 1
vn 0 0 1
vn 0 0 1
vn 0 0 -1
vn 0 0 -1
vn 0 0 -1
vn 0 0 -1
f 289/5/289 291/5/291 290/5/290
f 291/5/291 292/5/292 290/5/290
f 293/5/293 295/5/295 294/5/294
f 295/5/295 296/5/296 294/5/294
f 297/5/297 299/5/299 298/5/298
f 299/5/299 300/5/300 298/5/298
f 301/5/301 303/5/303 302/5/302
f 303/5/303 304/5/304 302/5/302
f 305/5/305 307/5/307 306/5/306
f 307/5/307 308/5/308 306/5/306
f 309/5/309 311/5/311 310/5/310
f 311/5/311 312/5/312 310/5/310
o monitor_body
usemtl atlas
v 0.955000 0.430000 0.676000
v 0.955000 0.430000 0.654000
v 0.955000 0.170000 0.676000
v 0.955000 0.170000 0.654000
v 0.375000 0.430000 0.654000
v 0.375000 0.430000 0.676000
v 0.375000 0.170000 0.654000
v 0.375000 0.170000 0.676000
v 0.375000 0.430000 0.654000
v 0.955000 0.430000 0.654000
v 0.375000 0.430000 0.676000
v 0.955000 0.430000 0.676000
v 0.375000 0.170000 0.676000
v 0.955000 0.170000 0.676000
v 0.375000 0.170000 0.654000
v 0.955000 0.170000 0.654000
v 0.375000 0.430000 0.676000
v 0.955000 0.430000 0.676000
v 0.375000 0.170000 0.676000
v 0.955000 0.170000 0.676000
v 0.955000 0.430000 0.654000
v 0.375000 0.430000 0.654000
v 0.955000 0.170000 0.654000
v 0.375000 0.170000 0.654000
vn 1 0 0
vn 1 0 0
vn 1 0 0
vn 1 0 0
vn -1 0 0
vn -1 0 0
vn -1 0 0
vn -1 0 0
vn 0 1 0
vn 0 1 0
vn 0 1 0
vn 0 1 0
vn 0 -1 0
vn 0 -1 0
vn 0 -1 0
vn 0 -1 0
vn 0 0 1
vn 0 0 1
vn 0 0 1
vn 0 0 1
vn 0 0 -1
vn 0 0 -1
vn 0 0 -1
vn 0 0 -1
f 313/1/313 315/1/315 314/1/314
f 315/1/315 316/1/316 314/1/314
f 317/1/317 319/1/319 318/1/318
f 319/1/319 320/1/320 318/1/318
f 321/1/321 323/1/323 322/1/322
f 323/1/323 324/1/324 322/1/322
f 325/1/325 327/1/327 326/1/326
f 327/1/327 328/1/328 326/1/326
f 329/1/329 331/1/331 330/1/330
f 331/1/331 332/1/332 330/1/330
f 333/1/333 335/1/335 334/1/334
f 335/1/335 336/1/336 334/1/334
o screen_panel
usemtl atlas
v 0.943000 0.418000 0.654000
v 0.943000 0.418000 0.650000
v 0.943000 0.182000 0.654000
v 0.943000 0.182000 0.650000
v 0.387000 0.418000 0.650000
v 0.387000 0.418000 0.654000
v 0.387000 0.182000 0.650000
v 0.387000 0.182000 0.654000
v 0.387000 0.418000 0.650000
v 0.943000 0.418000 0.650000
v 0.387000 0.418000 0.654000
v 0.943000 0.418000 0.654000
v 0.387000 0.182000 0.654000
v 0.943000 0.182000 0.654000
v 0.387000 0.182000 0.650000
v 0.943000 0.182000 0.650000
v 0.387000 0.418000 0.654000
v 0.943000 0.418000 0.654000
v 0.387000 0.182000 0.654000
v 0.943000 0.182000 0.654000
v 0.943000 0.418000 0.650000
v 0.387000 0.418000 0.650000
v 0.943000 0.182000 0.650000
v 0.387000 0.182000 0.650000
vn 1 0 0
vn 1 0 0
vn 1 0 0
vn 1 0 0
vn -1 0 0
vn -1 0 0
vn -1 0 0
vn -1 0 0
vn 0 1 0
vn 0 1 0
vn 0 1 0
vn 0 1 0
vn 0 -1 0
vn 0 -1 0
vn 0 -1 0
vn 0 -1 0
vn 0 0 1
vn 0 0 1
vn 0 0 1
vn 0 0 1
vn 0 0 -1
vn 0 0 -1
vn 0 0 -1
vn 0 0 -1
f 337/7/337 339/7/339 338/7/338
f 339/7/339 340/7/340 338/7/338
f 341/7/341 343/7/343 342/7/342
f 343/7/343 344/7/344 342/7/342
f 345/7/345 347/7/347 346/7/346
f 347/7/347 348/7/348 346/7/346
f 349/7/349 351/7/351 350/7/350
f 351/7/351 352/7/352 350/7/350
f 353/7/353 355/7/355 354/7/354
f 355/7/355 356/7/356 354/7/354
f 357/7/357 359/7/359 358/7/358
f 359/7/359 360/7/360 358/7/358
o monitor_led
usemtl atlas
v 0.929000 0.182000 0.654000
v 0.929000 0.182000 0.650000
v 0.929000 0.174000 0.654000
v 0.929000 0.174000 0.650000
v 0.921000 0.182000 0.650000
v 0.921000 0.182000 0.654000
v 0.921000 0.174000 0.650000
v 0.921000 0.174000 0.654000
v 0.921000 0.182000 0.650000
v 0.929000 0.182000 0.650000
v 0.921000 0.182000 0.654000
v 0.929000 0.182000 0.654000
v 0.921000 0.174000 0.654000
v 0.929000 0.174000 0.654000
v 0.921000 0.174000 0.650000
v 0.929000 0.174000 0.650000
v 0.921000 0.182000 0.654000
v 0.929000 0.182000 0.654000
v 0.921000 0.174000 0.654000
v 0.929000 0.174000 0.654000
v 0.929000 0.182000 0.650000
v 0.921000 0.182000 0.650000
v 0.929000 0.174000 0.650000
v 0.921000 0.174000 0.650000
vn 1 0 0
vn 1 0 0
vn 1 0 0
vn 1 0 0
vn -1 0 0
vn -1 0 0
vn -1 0 0
vn -1 0 0
vn 0 1 0
vn 0 1 0
vn 0 1 0
vn 0 1 0
vn 0 -1 0
vn 0 -1 0
vn 0 -1 0
vn 0 -1 0
vn 0 0 1
vn 0 0 1
vn 0 0 1
vn 0 0 1
vn 0 0 -1
vn 0 0 -1
vn 0 0 -1
vn 0 0 -1
f 361/4/361 363/4/363 362/4/362
f 363/4/363 364/4/364 362/4/362
f 365/4/365 367/4/367 366/4/366
f 367/4/367 368/4/368 366/4/366
f 369/4/369 371/4/371 370/4/370
f 371/4/371 372/4/372 370/4/370
f 373/4/373 375/4/375 374/4/374
f 375/4/375 376/4/376 374/4/374
f 377/4/377 379/4/379 378/4/378
f 379/4/379 380/4/380 378/4/378
f 381/4/381 383/4/383 382/4/382
f 383/4/383 384/4/384 382/4/382
o keyboard_base
usemtl atlas
v 0.785000 0.012000 0.355000
v 0.785000 0.012000 0.235000
v 0.785000 0.000000 0.355000
v 0.785000 0.000000 0.235000
v 0.445000 0.012000 0.235000
v 0.445000 0.012000 0.355000
v 0.445000 0.000000 0.235000
v 0.445000 0.000000 0.355000
v 0.445000 0.012000 0.235000
v 0.785000 0.012000 0.235000
v 0.445000 0.012000 0.355000
v 0.785000 0.012000 0.355000
v 0.445000 0.000000 0.355000
v 0.785000 0.000000 0.355000
v 0.445000 0.000000 0.235000
v 0.785000 0.000000 0.235000
v 0.445000 0.012000 0.355000
v 0.785000 0.012000 0.355000
v 0.445000 0.000000 0.355000
v 0.785000 0.000000 0.355000
v 0.785000 0.012000 0.235000
v 0.445000 0.012000 0.235000
v 0.785000 0.000000 0.235000
v 0.445000 0.000000 0.235000
vn 1 0 0
vn 1 0 0
vn 1 0 0
vn 1 0 0
vn -1 0 0
vn -1 0 0
vn -1 0 0
vn -1 0 0
vn 0 1 0
vn 0 1 0
vn 0 1 0
vn 0 1 0
vn 0 -1 0
vn 0 -1 0
vn 0 -1 0
vn 0 -1 0
vn 0 0 1
vn 0 0 1
vn 0 0 1
vn 0 0 1
vn 0 0 -1
vn 0 0 -1
vn 0 0 -1
vn 0 0 -1
f 385/5/385 387/5/387 386/5/386
f 387/5/387 388/5/388 386/5/386
f 389/5/389 391/5/391 390/5/390
f 391/5/391 392/5/392 390/5/390
f 393/5/393 395/5/395 394/5/394
f 395/5/395 396/5/396 394/5/394
f 397/5/397 399/5/399 398/5/398
f 399/5/399 400/5/400 398/5/398
f 401/5/401 403/5/403 402/5/402
f 403/5/403 404/5/404 402/5/402
f 405/5/405 407/5/407 406/5/406
f 407/5/407 408/5/408 406/5/406
o keyboard_keys
usemtl atlas
v 0.772500 0.019000 0.338500
v 0.772500 0.019000 0.243500
v 0.772500 0.011000 0.338500
v 0.772500 0.011000 0.243500
v 0.457500 0.019000 0.243500
v 0.457500 0.019000 0.338500
v 0.457500 0.011000 0.243500
v 0.457500 0.011000 0.338500
v 0.457500 0.019000 0.243500
v 0.772500 0.019000 0.243500
v 0.457500 0.019000 0.338500
v 0.772500 0.019000 0.338500
v 0.457500 0.011000 0.338500
v 0.772500 0.011000 0.338500
v 0.457500 0.011000 0.243500
v 0.772500 0.011000 0.243500
v 0.457500 0.019000 0.338500
v 0.772500 0.019000 0.338500
v 0.457500 0.011000 0.338500
v 0.772500 0.011000 0.338500
v 0.772500 0.019000 0.243500
v 0.457500 0.019000 0.243500
v 0.772500 0.011000 0.243500
v 0.457500 0.011000 0.243500
vn 1 0 0
vn 1 0 0
vn 1 0 0
vn 1 0 0
vn -1 0 0
vn -1 0 0
vn -1 0 0
vn -1 0 0
vn 0 1 0
vn 0 1 0
vn 0 1 0
vn 0 1 0
vn 0 -1 0
vn 0 -1 0
vn 0 -1 0
vn 0 -1 0
vn 0 0 1
vn 0 0 1
vn 0 0 1
vn 0 0 1
vn 0 0 -1
vn 0 0 -1
vn 0 0 -1
vn 0 0 -1
f 409/3/409 411/3/411 410/3/410
f 411/3/411 412/3/412 410/3/410
f 413/3/413 415/3/415 414/3/414
f 415/3/415 416/3/416 414/3/414
f 417/3/417 419/3/419 418/3/418
f 419/3/419 420/3/420 418/3/418
f 421/3/421 423/3/423 422/3/422
f 423/3/423 424/3/424 422/3/422
f 425/3/425 427/3/427 426/3/426
f 427/3/427 428/3/428 426/3/426
f 429/3/429 431/3/431 430/3/430
f 431/3/431 432/3/432 430/3/430
o keyboard_spacebar
usemtl atlas
v 0.680000 0.020500 0.268000
v 0.680000 0.020500 0.246000
v 0.680000 0.011500 0.268000
v 0.680000 0.011500 0.246000
v 0.550000 0.020500 0.246000
v 0.550000 0.020500 0.268000
v 0.550000 0.011500 0.246000
v 0.550000 0.011500 0.268000
v 0.550000 0.020500 0.246000
v 0.680000 0.020500 0.246000
v 0.550000 0.020500 0.268000
v 0.680000 0.020500 0.268000
v 0.550000 0.011500 0.268000
v 0.680000 0.011500 0.268000
v 0.550000 0.011500 0.246000
v 0.680000 0.011500 0.246000
v 0.550000 0.020500 0.268000
v 0.680000 0.020500 0.268000
v 0.550000 0.011500 0.268000
v 0.680000 0.011500 0.268000
v 0.680000 0.020500 0.246000
v 0.550000 0.020500 0.246000
v 0.680000 0.011500 0.246000
v 0.550000 0.011500 0.246000
vn 1 0 0
vn 1 0 0
vn 1 0 0
vn 1 0 0
vn -1 0 0
vn -1 0 0
vn -1 0 0
vn -1 0 0
vn 0 1 0
vn 0 1 0
vn 0 1 0
vn 0 1 0
vn 0 -1 0
vn 0 -1 0
vn 0 -1 0
vn 0 -1 0
vn 0 0 1
vn 0 0 1
vn 0 0 1
vn 0 0 1
vn 0 0 -1
vn 0 0 -1
vn 0 0 -1
vn 0 0 -1
f 433/2/433 435/2/435 434/2/434
f 435/2/435 436/2/436 434/2/434
f 437/2/437 439/2/439 438/2/438
f 439/2/439 440/2/440 438/2/438
f 441/2/441 443/2/443 442/2/442
f 443/2/443 444/2/444 442/2/442
f 445/2/445 447/2/447 446/2/446
f 447/2/447 448/2/448 446/2/446
f 449/2/449 451/2/451 450/2/450
f 451/2/451 452/2/452 450/2/450
f 453/2/453 455/2/455 454/2/454
f 455/2/455 456/2/456 454/2/454
o mouse_body
usemtl atlas
v 0.890000 0.024000 0.337500
v 0.890000 0.024000 0.252500
v 0.890000 0.000000 0.337500
v 0.890000 0.000000 0.252500
v 0.840000 0.024000 0.252500
v 0.840000 0.024000 0.337500
v 0.840000 0.000000 0.252500
v 0.840000 0.000000 0.337500
v 0.840000 0.024000 0.252500
v 0.890000 0.024000 0.252500
v 0.840000 0.024000 0.337500
v 0.890000 0.024000 0.337500
v 0.840000 0.000000 0.337500
v 0.890000 0.000000 0.337500
v 0.840000 0.000000 0.252500
v 0.890000 0.000000 0.252500
v 0.840000 0.024000 0.337500
v 0.890000 0.024000 0.337500
v 0.840000 0.000000 0.337500
v 0.890000 0.000000 0.337500
v 0.890000 0.024000 0.252500
v 0.840000 0.024000 0.252500
v 0.890000 0.000000 0.252500
v 0.840000 0.000000 0.252500
vn 1 0 0
vn 1 0 0
vn 1 0 0
vn 1 0 0
vn -1 0 0
vn -1 0 0
vn -1 0 0
vn -1 0 0
vn 0 1 0
vn 0 1 0
vn 0 1 0
vn 0 1 0
vn 0 -1 0
vn 0 -1 0
vn 0 -1 0
vn 0 -1 0
vn 0 0 1
vn 0 0 1
vn 0 0 1
vn 0 0 1
vn 0 0 -1
vn 0 0 -1
vn 0 0 -1
vn 0 0 -1
f 457/5/457 459/5/459 458/5/458
f 459/5/459 460/5/460 458/5/458
f 461/5/461 463/5/463 462/5/462
f 463/5/463 464/5/464 462/5/462
f 465/5/465 467/5/467 466/5/466
f 467/5/467 468/5/468 466/5/466
f 469/5/469 471/5/471 470/5/470
f 471/5/471 472/5/472 470/5/470
f 473/5/473 475/5/475 474/5/474
f 475/5/475 476/5/476 474/5/474
f 477/5/477 479/5/479 478/5/478
f 479/5/479 480/5/480 478/5/478
o mouse_buttons
usemtl atlas
v 0.888000 0.029000 0.291000
v 0.888000 0.029000 0.255000
v 0.888000 0.023000 0.291000
v 0.888000 0.023000 0.255000
v 0.842000 0.029000 0.255000
v 0.842000 0.029000 0.291000
v 0.842000 0.023000 0.255000
v 0.842000 0.023000 0.291000
v 0.842000 0.029000 0.255000
v 0.888000 0.029000 0.255000
v 0.842000 0.029000 0.291000
v 0.888000 0.029000 0.291000
v 0.842000 0.023000 0.291000
v 0.888000 0.023000 0.291000
v 0.842000 0.023000 0.255000
v 0.888000 0.023000 0.255000
v 0.842000 0.029000 0.291000
v 0.888000 0.029000 0.291000
v 0.842000 0.023000 0.291000
v 0.888000 0.023000 0.291000
v 0.888000 0.029000 0.255000
v 0.842000 0.029000 0.255000
v 0.888000 0.023000 0.255000
v 0.842000 0.023000 0.255000
vn 1 0 0
vn 1 0 0
vn 1 0 0
vn 1 0 0
vn -1 0 0
vn -1 0 0
vn -1 0 0
vn -1 0 0
vn 0 1 0
vn 0 1 0
vn 0 1 0
vn 0 1 0
vn 0 -1 0
vn 0 -1 0
vn 0 -1 0
vn 0 -1 0
vn 0 0 1
vn 0 0 1
vn 0 0 1
vn 0 0 1
vn 0 0 -1
vn 0 0 -1
vn 0 0 -1
vn 0 0 -1
f 481/2/481 483/2/483 482/2/482
f 483/2/483 484/2/484 482/2/482
f 485/2/485 487/2/487 486/2/486
f 487/2/487 488/2/488 486/2/486
f 489/2/489 491/2/491 490/2/490
f 491/2/491 492/2/492 490/2/490
f 493/2/493 495/2/495 494/2/494
f 495/2/495 496/2/496 494/2/494
f 497/2/497 499/2/499 498/2/498
f 499/2/499 500/2/500 498/2/498
f 501/2/501 503/2/503 502/2/502
f 503/2/503 504/2/504 502/2/502
o mouse_wheel
usemtl atlas
v 0.869000 0.033000 0.285000
v 0.869000 0.033000 0.269000
v 0.869000 0.023000 0.285000
v 0.869000 0.023000 0.269000
v 0.861000 0.033000 0.269000
v 0.861000 0.033000 0.285000
v 0.861000 0.023000 0.269000
v 0.861000 0.023000 0.285000
v 0.861000 0.033000 0.269000
v 0.869000 0.033000 0.269000
v 0.861000 0.033000 0.285000
v 0.869000 0.033000 0.285000
v 0.861000 0.023000 0.285000
v 0.869000 0.023000 0.285000
v 0.861000 0.023000 0.269000
v 0.869000 0.023000 0.269000
v 0.861000 0.033000 0.285000
v 0.869000 0.033000 0.285000
v 0.861000 0.023000 0.285000
v 0.869000 0.023000 0.285000
v 0.869000 0.033000 0.269000
v 0.861000 0.033000 0.269000
v 0.869000 0.023000 0.269000
v 0.861000 0.023000 0.269000
vn 1 0 0
vn 1 0 0
vn 1 0 0
vn 1 0 0
vn -1 0 0
vn -1 0 0
vn -1 0 0
vn -1 0 0
vn 0 1 0
vn 0 1 0
vn 0 1 0
vn 0 1 0
vn 0 -1 0
vn 0 -1 0
vn 0 -1 0
vn 0 -1 0
vn 0 0 1
vn 0 0 1
vn 0 0 1
vn 0 0 1
vn 0 0 -1
vn 0 0 -1
vn 0 0 -1
vn 0 0 -1
f 505/3/505 507/3/507 506/3/506
f 507/3/507 508/3/508 506/3/506
f 509/3/509 511/3/511 510/3/510
f 511/3/511 512/3/512 510/3/510
f 513/3/513 515/3/515 514/3/514
f 515/3/515 516/3/516 514/3/514
f 517/3/517 519/3/519 518/3/518
f 519/3/519 520/3/520 518/3/518
f 521/3/521 523/3/523 522/3/522
f 523/3/523 524/3/524 522/3/522
f 525/3/525 527/3/527 526/3/526
f 527/3/527 528/3/528 526/3/526
