mtllib venue_projector.mtl
o body
usemtl projector_atlas
v 0.954000 0.065000 0.175500
v 0.954000 0.595000 0.175500
v 0.954000 0.595000 0.955500
v 0.954000 0.065000 0.175500
v 0.954000 0.595000 0.955500
v 0.954000 0.065000 0.955500
v 0.004000 0.065000 0.175500
v 0.004000 0.595000 0.955500
v 0.004000 0.595000 0.175500
v 0.004000 0.065000 0.175500
v 0.004000 0.065000 0.955500
v 0.004000 0.595000 0.955500
v 0.039000 0.630000 0.175500
v 0.919000 0.630000 0.955500
v 0.919000 0.630000 0.175500
v 0.039000 0.630000 0.175500
v 0.039000 0.630000 0.955500
v 0.919000 0.630000 0.955500
v 0.039000 0.030000 0.175500
v 0.919000 0.030000 0.175500
v 0.919000 0.030000 0.955500
v 0.039000 0.030000 0.175500
v 0.919000 0.030000 0.955500
v 0.039000 0.030000 0.955500
v 0.039000 0.065000 0.990500
v 0.919000 0.065000 0.990500
v 0.919000 0.595000 0.990500
v 0.039000 0.065000 0.990500
v 0.919000 0.595000 0.990500
v 0.039000 0.595000 0.990500
v 0.039000 0.065000 0.140500
v 0.919000 0.595000 0.140500
v 0.919000 0.065000 0.140500
v 0.039000 0.065000 0.140500
v 0.039000 0.595000 0.140500
v 0.919000 0.595000 0.140500
v 0.004000 0.065000 0.175500
v 0.039000 0.030000 0.955500
v 0.004000 0.065000 0.955500
v 0.004000 0.065000 0.175500
v 0.039000 0.030000 0.175500
v 0.039000 0.030000 0.955500
v 0.004000 0.595000 0.175500
v 0.004000 0.595000 0.955500
v 0.039000 0.630000 0.955500
v 0.004000 0.595000 0.175500
v 0.039000 0.630000 0.955500
v 0.039000 0.630000 0.175500
v 0.954000 0.065000 0.175500
v 0.954000 0.065000 0.955500
v 0.919000 0.030000 0.955500
v 0.954000 0.065000 0.175500
v 0.919000 0.030000 0.955500
v 0.919000 0.030000 0.175500
v 0.954000 0.595000 0.175500
v 0.919000 0.630000 0.955500
v 0.954000 0.595000 0.955500
v 0.954000 0.595000 0.175500
v 0.919000 0.630000 0.175500
v 0.919000 0.630000 0.955500
v 0.004000 0.065000 0.175500
v 0.004000 0.595000 0.175500
v 0.039000 0.595000 0.140500
v 0.004000 0.065000 0.175500
v 0.039000 0.595000 0.140500
v 0.039000 0.065000 0.140500
v 0.004000 0.065000 0.955500
v 0.039000 0.595000 0.990500
v 0.004000 0.595000 0.955500
v 0.004000 0.065000 0.955500
v 0.039000 0.065000 0.990500
v 0.039000 0.595000 0.990500
v 0.954000 0.065000 0.175500
v 0.919000 0.595000 0.140500
v 0.954000 0.595000 0.175500
v 0.954000 0.065000 0.175500
v 0.919000 0.065000 0.140500
v 0.919000 0.595000 0.140500
v 0.954000 0.065000 0.955500
v 0.954000 0.595000 0.955500
v 0.919000 0.595000 0.990500
v 0.954000 0.065000 0.955500
v 0.919000 0.595000 0.990500
v 0.919000 0.065000 0.990500
v 0.039000 0.030000 0.175500
v 0.919000 0.065000 0.140500
v 0.919000 0.030000 0.175500
v 0.039000 0.030000 0.175500
v 0.039000 0.065000 0.140500
v 0.919000 0.065000 0.140500
v 0.039000 0.030000 0.955500
v 0.919000 0.030000 0.955500
v 0.919000 0.065000 0.990500
v 0.039000 0.030000 0.955500
v 0.919000 0.065000 0.990500
v 0.039000 0.065000 0.990500
v 0.039000 0.630000 0.175500
v 0.919000 0.630000 0.175500
v 0.919000 0.595000 0.140500
v 0.039000 0.630000 0.175500
v 0.919000 0.595000 0.140500
v 0.039000 0.595000 0.140500
v 0.039000 0.630000 0.955500
v 0.919000 0.595000 0.990500
v 0.919000 0.630000 0.955500
v 0.039000 0.630000 0.955500
v 0.039000 0.595000 0.990500
v 0.919000 0.595000 0.990500
v 0.004000 0.065000 0.175500
v 0.039000 0.065000 0.140500
v 0.039000 0.030000 0.175500
v 0.004000 0.065000 0.955500
v 0.039000 0.030000 0.955500
v 0.039000 0.065000 0.990500
v 0.004000 0.595000 0.175500
v 0.039000 0.630000 0.175500
v 0.039000 0.595000 0.140500
v 0.004000 0.595000 0.955500
v 0.039000 0.595000 0.990500
v 0.039000 0.630000 0.955500
v 0.954000 0.065000 0.175500
v 0.919000 0.030000 0.175500
v 0.919000 0.065000 0.140500
v 0.954000 0.065000 0.955500
v 0.919000 0.065000 0.990500
v 0.919000 0.030000 0.955500
v 0.954000 0.595000 0.175500
v 0.919000 0.595000 0.140500
v 0.919000 0.630000 0.175500
v 0.954000 0.595000 0.955500
v 0.919000 0.630000 0.955500
v 0.919000 0.595000 0.990500
vt 0 0.75
vt 0.5 0.75
vt 0.5 1
vt 0 0.75
vt 0.5 1
vt 0 1
vt 0 0.75
vt 0.5 1
vt 0.5 0.75
vt 0 0.75
vt 0 1
vt 0.5 1
vt 0 0.5
vt 0.5 0.75
vt 0.5 0.5
vt 0 0.5
vt 0 0.75
vt 0.5 0.75
vt 0 0.5
vt 0.5 0.5
vt 0.5 0.75
vt 0 0.5
vt 0.5 0.75
vt 0 0.75
vt 0.5 0
vt 1 0
vt 1 0.5
vt 0.5 0
vt 1 0.5
vt 0.5 0.5
vt 0.5 0.5
vt 1 1
vt 1 0.5
vt 0.5 0.5
vt 0.5 1
vt 1 1
vt 0.0625 0.4375
vt 0.0625 0.4375
vt 0.0625 0.4375
vt 0.0625 0.4375
vt 0.0625 0.4375
vt 0.0625 0.4375
vt 0.0625 0.4375
vt 0.0625 0.4375
vt 0.0625 0.4375
vt 0.0625 0.4375
vt 0.0625 0.4375
vt 0.0625 0.4375
vt 0.0625 0.4375
vt 0.0625 0.4375
vt 0.0625 0.4375
vt 0.0625 0.4375
vt 0.0625 0.4375
vt 0.0625 0.4375
vt 0.0625 0.4375
vt 0.0625 0.4375
vt 0.0625 0.4375
vt 0.0625 0.4375
vt 0.0625 0.4375
vt 0.0625 0.4375
vt 0.0625 0.4375
vt 0.0625 0.4375
vt 0.0625 0.4375
vt 0.0625 0.4375
vt 0.0625 0.4375
vt 0.0625 0.4375
vt 0.0625 0.4375
vt 0.0625 0.4375
vt 0.0625 0.4375
vt 0.0625 0.4375
vt 0.0625 0.4375
vt 0.0625 0.4375
vt 0.0625 0.4375
vt 0.0625 0.4375
vt 0.0625 0.4375
vt 0.0625 0.4375
vt 0.0625 0.4375
vt 0.0625 0.4375
vt 0.0625 0.4375
vt 0.0625 0.4375
vt 0.0625 0.4375
vt 0.0625 0.4375
vt 0.0625 0.4375
vt 0.0625 0.4375
vt 0.0625 0.4375
vt 0.0625 0.4375
vt 0.0625 0.4375
vt 0.0625 0.4375
vt 0.0625 0.4375
vt 0.0625 0.4375
vt 0.0625 0.4375
vt 0.0625 0.4375
vt 0.0625 0.4375
vt 0.0625 0.4375
vt 0.0625 0.4375
vt 0.0625 0.4375
vt 0.0625 0.4375
vt 0.0625 0.4375
vt 0.0625 0.4375
vt 0.0625 0.4375
vt 0.0625 0.4375
vt 0.0625 0.4375
vt 0.0625 0.4375
vt 0.0625 0.4375
vt 0.0625 0.4375
vt 0.0625 0.4375
vt 0.0625 0.4375
vt 0.0625 0.4375
vt 0.0625 0.4375
vt 0.0625 0.4375
vt 0.0625 0.4375
vt 0.0625 0.4375
vt 0.0625 0.4375
vt 0.0625 0.4375
vt 0.0625 0.4375
vt 0.0625 0.4375
vt 0.0625 0.4375
vt 0.0625 0.4375
vt 0.0625 0.4375
vt 0.0625 0.4375
vt 0.0625 0.4375
vt 0.0625 0.4375
vt 0.0625 0.4375
vt 0.0625 0.4375
vt 0.0625 0.4375
vt 0.0625 0.4375
vt 0.0625 0.4375
vt 0.0625 0.4375
vt 0.0625 0.4375
vt 0.0625 0.4375
vt 0.0625 0.4375
vt 0.0625 0.4375
vn 1 0 0
vn 1 0 0
vn 1 0 0
vn 1 0 0
vn 1 0 0
vn 1 0 0
vn -1 0 0
vn -1 0 0
vn -1 0 0
vn -1 0 0
vn -1 0 0
vn -1 0 0
vn 0 1 0
vn 0 1 0
vn 0 1 0
vn 0 1 0
vn 0 1 0
vn 0 1 0
vn 0 -1 0
vn 0 -1 0
vn 0 -1 0
vn 0 -1 0
vn 0 -1 0
vn 0 -1 0
vn 0 0 1
vn 0 0 1
vn 0 0 1
vn 0 0 1
vn 0 0 1
vn 0 0 1
vn 0 0 -1
vn 0 0 -1
vn 0 0 -1
vn 0 0 -1
vn 0 0 -1
vn 0 0 -1
vn -0.7071070792097137 -0.7071064831632558 0
vn -0.7071070792097137 -0.7071064831632558 0
vn -0.7071070792097137 -0.7071064831632558 0
vn -0.7071070792097137 -0.7071064831632558 0
vn -0.7071070792097137 -0.7071064831632558 0
vn -0.7071070792097137 -0.7071064831632558 0
vn -0.7071070792097137 0.7071064831632558 0
vn -0.7071070792097137 0.7071064831632558 0
vn -0.7071070792097137 0.7071064831632558 0
vn -0.7071070792097137 0.7071064831632558 0
vn -0.7071070792097137 0.7071064831632558 0
vn -0.7071070792097137 0.7071064831632558 0
vn 0.7071070792097137 -0.7071064831632558 0
vn 0.7071070792097137 -0.7071064831632558 0
vn 0.7071070792097137 -0.7071064831632558 0
vn 0.7071070792097137 -0.7071064831632558 0
vn 0.7071070792097137 -0.7071064831632558 0
vn 0.7071070792097137 -0.7071064831632558 0
vn 0.7071070792097137 0.7071064831632558 0
vn 0.7071070792097137 0.7071064831632558 0
vn 0.7071070792097137 0.7071064831632558 0
vn 0.7071070792097137 0.7071064831632558 0
vn 0.7071070792097137 0.7071064831632558 0
vn 0.7071070792097137 0.7071064831632558 0
vn -0.7071070792097137 0 -0.7071064831632558
vn -0.7071070792097137 0 -0.7071064831632558
vn -0.7071070792097137 0 -0.7071064831632558
vn -0.7071070792097137 0 -0.7071064831632558
vn -0.7071070792097137 0 -0.7071064831632558
vn -0.7071070792097137 0 -0.7071064831632558
vn -0.7071070792097137 0 0.7071064831632558
vn -0.7071070792097137 0 0.7071064831632558
vn -0.7071070792097137 0 0.7071064831632558
vn -0.7071070792097137 0 0.7071064831632558
vn -0.7071070792097137 0 0.7071064831632558
vn -0.7071070792097137 0 0.7071064831632558
vn 0.7071070792097137 0 -0.7071064831632558
vn 0.7071070792097137 0 -0.7071064831632558
vn 0.7071070792097137 0 -0.7071064831632558
vn 0.7071070792097137 0 -0.7071064831632558
vn 0.7071070792097137 0 -0.7071064831632558
vn 0.7071070792097137 0 -0.7071064831632558
vn 0.7071070792097137 0 0.7071064831632558
vn 0.7071070792097137 0 0.7071064831632558
vn 0.7071070792097137 0 0.7071064831632558
vn 0.7071070792097137 0 0.7071064831632558
vn 0.7071070792097137 0 0.7071064831632558
vn 0.7071070792097137 0 0.7071064831632558
vn 0 -0.7071067811865476 -0.7071067811865476
vn 0 -0.7071067811865476 -0.7071067811865476
vn 0 -0.7071067811865476 -0.7071067811865476
vn 0 -0.7071067811865476 -0.7071067811865476
vn 0 -0.7071067811865476 -0.7071067811865476
vn 0 -0.7071067811865476 -0.7071067811865476
vn 0 -0.7071067811865476 0.7071067811865476
vn 0 -0.7071067811865476 0.7071067811865476
vn 0 -0.7071067811865476 0.7071067811865476
vn 0 -0.7071067811865476 0.7071067811865476
vn 0 -0.7071067811865476 0.7071067811865476
vn 0 -0.7071067811865476 0.7071067811865476
vn 0 0.7071067811865476 -0.7071067811865476
vn 0 0.7071067811865476 -0.7071067811865476
vn 0 0.7071067811865476 -0.7071067811865476
vn 0 0.7071067811865476 -0.7071067811865476
vn 0 0.7071067811865476 -0.7071067811865476
vn 0 0.7071067811865476 -0.7071067811865476
vn 0 0.7071067811865476 0.7071067811865476
vn 0 0.7071067811865476 0.7071067811865476
vn 0 0.7071067811865476 0.7071067811865476
vn 0 0.7071067811865476 0.7071067811865476
vn 0 0.7071067811865476 0.7071067811865476
vn 0 0.7071067811865476 0.7071067811865476
vn -0.5773506268174454 -0.5773500903756328 -0.5773500903756328
vn -0.5773506268174454 -0.5773500903756328 -0.5773500903756328
vn -0.5773506268174454 -0.5773500903756328 -0.5773500903756328
vn -0.5773506268174454 -0.5773500903756328 0.5773500903756328
vn -0.5773506268174454 -0.5773500903756328 0.5773500903756328
vn -0.5773506268174454 -0.5773500903756328 0.5773500903756328
vn -0.5773506268174454 0.5773500903756328 -0.5773500903756328
vn -0.5773506268174454 0.5773500903756328 -0.5773500903756328
vn -0.5773506268174454 0.5773500903756328 -0.5773500903756328
vn -0.5773506268174454 0.5773500903756328 0.5773500903756328
vn -0.5773506268174454 0.5773500903756328 0.5773500903756328
vn -0.5773506268174454 0.5773500903756328 0.5773500903756328
vn 0.5773506268174454 -0.5773500903756328 -0.5773500903756328
vn 0.5773506268174454 -0.5773500903756328 -0.5773500903756328
vn 0.5773506268174454 -0.5773500903756328 -0.5773500903756328
vn 0.5773506268174454 -0.5773500903756328 0.5773500903756328
vn 0.5773506268174454 -0.5773500903756328 0.5773500903756328
vn 0.5773506268174454 -0.5773500903756328 0.5773500903756328
vn 0.5773506268174454 0.5773500903756328 -0.5773500903756328
vn 0.5773506268174454 0.5773500903756328 -0.5773500903756328
vn 0.5773506268174454 0.5773500903756328 -0.5773500903756328
vn 0.5773506268174454 0.5773500903756328 0.5773500903756328
vn 0.5773506268174454 0.5773500903756328 0.5773500903756328
vn 0.5773506268174454 0.5773500903756328 0.5773500903756328
f 1/1/1 2/2/2 3/3/3
f 4/4/4 5/5/5 6/6/6
f 7/7/7 8/8/8 9/9/9
f 10/10/10 11/11/11 12/12/12
f 13/13/13 14/14/14 15/15/15
f 16/16/16 17/17/17 18/18/18
f 19/19/19 20/20/20 21/21/21
f 22/22/22 23/23/23 24/24/24
f 25/25/25 26/26/26 27/27/27
f 28/28/28 29/29/29 30/30/30
f 31/31/31 32/32/32 33/33/33
f 34/34/34 35/35/35 36/36/36
f 37/37/37 38/38/38 39/39/39
f 40/40/40 41/41/41 42/42/42
f 43/43/43 44/44/44 45/45/45
f 46/46/46 47/47/47 48/48/48
f 49/49/49 50/50/50 51/51/51
f 52/52/52 53/53/53 54/54/54
f 55/55/55 56/56/56 57/57/57
f 58/58/58 59/59/59 60/60/60
f 61/61/61 62/62/62 63/63/63
f 64/64/64 65/65/65 66/66/66
f 67/67/67 68/68/68 69/69/69
f 70/70/70 71/71/71 72/72/72
f 73/73/73 74/74/74 75/75/75
f 76/76/76 77/77/77 78/78/78
f 79/79/79 80/80/80 81/81/81
f 82/82/82 83/83/83 84/84/84
f 85/85/85 86/86/86 87/87/87
f 88/88/88 89/89/89 90/90/90
f 91/91/91 92/92/92 93/93/93
f 94/94/94 95/95/95 96/96/96
f 97/97/97 98/98/98 99/99/99
f 100/100/100 101/101/101 102/102/102
f 103/103/103 104/104/104 105/105/105
f 106/106/106 107/107/107 108/108/108
f 109/109/109 110/110/110 111/111/111
f 112/112/112 113/113/113 114/114/114
f 115/115/115 116/116/116 117/117/117
f 118/118/118 119/119/119 120/120/120
f 121/121/121 122/122/122 123/123/123
f 124/124/124 125/125/125 126/126/126
f 127/127/127 128/128/128 129/129/129
f 130/130/130 131/131/131 132/132/132
o top_cap
usemtl projector_atlas
v 0.719000 0.645000 0.420500
v 0.719000 0.685000 0.420500
v 0.719000 0.685000 0.810500
v 0.719000 0.645000 0.420500
v 0.719000 0.685000 0.810500
v 0.719000 0.645000 0.810500
v 0.239000 0.645000 0.420500
v 0.239000 0.685000 0.810500
v 0.239000 0.685000 0.420500
v 0.239000 0.645000 0.420500
v 0.239000 0.645000 0.810500
v 0.239000 0.685000 0.810500
v 0.254000 0.700000 0.420500
v 0.704000 0.700000 0.810500
v 0.704000 0.700000 0.420500
v 0.254000 0.700000 0.420500
v 0.254000 0.700000 0.810500
v 0.704000 0.700000 0.810500
v 0.254000 0.630000 0.420500
v 0.704000 0.630000 0.420500
v 0.704000 0.630000 0.810500
v 0.254000 0.630000 0.420500
v 0.704000 0.630000 0.810500
v 0.254000 0.630000 0.810500
v 0.254000 0.645000 0.825500
v 0.704000 0.645000 0.825500
v 0.704000 0.685000 0.825500
v 0.254000 0.645000 0.825500
v 0.704000 0.685000 0.825500
v 0.254000 0.685000 0.825500
v 0.254000 0.645000 0.405500
v 0.704000 0.685000 0.405500
v 0.704000 0.645000 0.405500
v 0.254000 0.645000 0.405500
v 0.254000 0.685000 0.405500
v 0.704000 0.685000 0.405500
v 0.239000 0.645000 0.420500
v 0.254000 0.630000 0.810500
v 0.239000 0.645000 0.810500
v 0.239000 0.645000 0.420500
v 0.254000 0.630000 0.420500
v 0.254000 0.630000 0.810500
v 0.239000 0.685000 0.420500
v 0.239000 0.685000 0.810500
v 0.254000 0.700000 0.810500
v 0.239000 0.685000 0.420500
v 0.254000 0.700000 0.810500
v 0.254000 0.700000 0.420500
v 0.719000 0.645000 0.420500
v 0.719000 0.645000 0.810500
v 0.704000 0.630000 0.810500
v 0.719000 0.645000 0.420500
v 0.704000 0.630000 0.810500
v 0.704000 0.630000 0.420500
v 0.719000 0.685000 0.420500
v 0.704000 0.700000 0.810500
v 0.719000 0.685000 0.810500
v 0.719000 0.685000 0.420500
v 0.704000 0.700000 0.420500
v 0.704000 0.700000 0.810500
v 0.239000 0.645000 0.420500
v 0.239000 0.685000 0.420500
v 0.254000 0.685000 0.405500
v 0.239000 0.645000 0.420500
v 0.254000 0.685000 0.405500
v 0.254000 0.645000 0.405500
v 0.239000 0.645000 0.810500
v 0.254000 0.685000 0.825500
v 0.239000 0.685000 0.810500
v 0.239000 0.645000 0.810500
v 0.254000 0.645000 0.825500
v 0.254000 0.685000 0.825500
v 0.719000 0.645000 0.420500
v 0.704000 0.685000 0.405500
v 0.719000 0.685000 0.420500
v 0.719000 0.645000 0.420500
v 0.704000 0.645000 0.405500
v 0.704000 0.685000 0.405500
v 0.719000 0.645000 0.810500
v 0.719000 0.685000 0.810500
v 0.704000 0.685000 0.825500
v 0.719000 0.645000 0.810500
v 0.704000 0.685000 0.825500
v 0.704000 0.645000 0.825500
v 0.254000 0.630000 0.420500
v 0.704000 0.645000 0.405500
v 0.704000 0.630000 0.420500
v 0.254000 0.630000 0.420500
v 0.254000 0.645000 0.405500
v 0.704000 0.645000 0.405500
v 0.254000 0.630000 0.810500
v 0.704000 0.630000 0.810500
v 0.704000 0.645000 0.825500
v 0.254000 0.630000 0.810500
v 0.704000 0.645000 0.825500
v 0.254000 0.645000 0.825500
v 0.254000 0.700000 0.420500
v 0.704000 0.700000 0.420500
v 0.704000 0.685000 0.405500
v 0.254000 0.700000 0.420500
v 0.704000 0.685000 0.405500
v 0.254000 0.685000 0.405500
v 0.254000 0.700000 0.810500
v 0.704000 0.685000 0.825500
v 0.704000 0.700000 0.810500
v 0.254000 0.700000 0.810500
v 0.254000 0.685000 0.825500
v 0.704000 0.685000 0.825500
v 0.239000 0.645000 0.420500
v 0.254000 0.645000 0.405500
v 0.254000 0.630000 0.420500
v 0.239000 0.645000 0.810500
v 0.254000 0.630000 0.810500
v 0.254000 0.645000 0.825500
v 0.239000 0.685000 0.420500
v 0.254000 0.700000 0.420500
v 0.254000 0.685000 0.405500
v 0.239000 0.685000 0.810500
v 0.254000 0.685000 0.825500
v 0.254000 0.700000 0.810500
v 0.719000 0.645000 0.420500
v 0.704000 0.630000 0.420500
v 0.704000 0.645000 0.405500
v 0.719000 0.645000 0.810500
v 0.704000 0.645000 0.825500
v 0.704000 0.630000 0.810500
v 0.719000 0.685000 0.420500
v 0.704000 0.685000 0.405500
v 0.704000 0.700000 0.420500
v 0.719000 0.685000 0.810500
v 0.704000 0.700000 0.810500
v 0.704000 0.685000 0.825500
vt 0.125 0.375
vt 0.25 0.375
vt 0.25 0.5
vt 0.125 0.375
vt 0.25 0.5
vt 0.125 0.5
vt 0.125 0.375
vt 0.25 0.5
vt 0.25 0.375
vt 0.125 0.375
vt 0.125 0.5
vt 0.25 0.5
vt 0 0.5
vt 0.5 0.75
vt 0.5 0.5
vt 0 0.5
vt 0 0.75
vt 0.5 0.75
vt 0 0.5
vt 0.5 0.5
vt 0.5 0.75
vt 0 0.5
vt 0.5 0.75
vt 0 0.75
vt 0.125 0.375
vt 0.25 0.375
vt 0.25 0.5
vt 0.125 0.375
vt 0.25 0.5
vt 0.125 0.5
vt 0.125 0.375
vt 0.25 0.5
vt 0.25 0.375
vt 0.125 0.375
vt 0.125 0.5
vt 0.25 0.5
vt 0.0625 0.4375
vt 0.0625 0.4375
vt 0.0625 0.4375
vt 0.0625 0.4375
vt 0.0625 0.4375
vt 0.0625 0.4375
vt 0.0625 0.4375
vt 0.0625 0.4375
vt 0.0625 0.4375
vt 0.0625 0.4375
vt 0.0625 0.4375
vt 0.0625 0.4375
vt 0.0625 0.4375
vt 0.0625 0.4375
vt 0.0625 0.4375
vt 0.0625 0.4375
vt 0.0625 0.4375
vt 0.0625 0.4375
vt 0.0625 0.4375
vt 0.0625 0.4375
vt 0.0625 0.4375
vt 0.0625 0.4375
vt 0.0625 0.4375
vt 0.0625 0.4375
vt 0.0625 0.4375
vt 0.0625 0.4375
vt 0.0625 0.4375
vt 0.0625 0.4375
vt 0.0625 0.4375
vt 0.0625 0.4375
vt 0.0625 0.4375
vt 0.0625 0.4375
vt 0.0625 0.4375
vt 0.0625 0.4375
vt 0.0625 0.4375
vt 0.0625 0.4375
vt 0.0625 0.4375
vt 0.0625 0.4375
vt 0.0625 0.4375
vt 0.0625 0.4375
vt 0.0625 0.4375
vt 0.0625 0.4375
vt 0.0625 0.4375
vt 0.0625 0.4375
vt 0.0625 0.4375
vt 0.0625 0.4375
vt 0.0625 0.4375
vt 0.0625 0.4375
vt 0.0625 0.4375
vt 0.0625 0.4375
vt 0.0625 0.4375
vt 0.0625 0.4375
vt 0.0625 0.4375
vt 0.0625 0.4375
vt 0.0625 0.4375
vt 0.0625 0.4375
vt 0.0625 0.4375
vt 0.0625 0.4375
vt 0.0625 0.4375
vt 0.0625 0.4375
vt 0.0625 0.4375
vt 0.0625 0.4375
vt 0.0625 0.4375
vt 0.0625 0.4375
vt 0.0625 0.4375
vt 0.0625 0.4375
vt 0.0625 0.4375
vt 0.0625 0.4375
vt 0.0625 0.4375
vt 0.0625 0.4375
vt 0.0625 0.4375
vt 0.0625 0.4375
vt 0.0625 0.4375
vt 0.0625 0.4375
vt 0.0625 0.4375
vt 0.0625 0.4375
vt 0.0625 0.4375
vt 0.0625 0.4375
vt 0.0625 0.4375
vt 0.0625 0.4375
vt 0.0625 0.4375
vt 0.0625 0.4375
vt 0.0625 0.4375
vt 0.0625 0.4375
vt 0.0625 0.4375
vt 0.0625 0.4375
vt 0.0625 0.4375
vt 0.0625 0.4375
vt 0.0625 0.4375
vt 0.0625 0.4375
vt 0.0625 0.4375
vt 0.0625 0.4375
vt 0.0625 0.4375
vt 0.0625 0.4375
vt 0.0625 0.4375
vt 0.0625 0.4375
vn 1 0 0
vn 1 0 0
vn 1 0 0
vn 1 0 0
vn 1 0 0
vn 1 0 0
vn -1 0 0
vn -1 0 0
vn -1 0 0
vn -1 0 0
vn -1 0 0
vn -1 0 0
vn 0 1 0
vn 0 1 0
vn 0 1 0
vn 0 1 0
vn 0 1 0
vn 0 1 0
vn 0 -1 0
vn 0 -1 0
vn 0 -1 0
vn 0 -1 0
vn 0 -1 0
vn 0 -1 0
vn 0 0 1
vn 0 0 1
vn 0 0 1
vn 0 0 1
vn 0 0 1
vn 0 0 1
vn 0 0 -1
vn 0 0 -1
vn 0 0 -1
vn 0 0 -1
vn 0 0 -1
vn 0 0 -1
vn -0.7071067811865476 -0.7071067811865476 0
vn -0.7071067811865476 -0.7071067811865476 0
vn -0.7071067811865476 -0.7071067811865476 0
vn -0.7071067811865476 -0.7071067811865476 0
vn -0.7071067811865476 -0.7071067811865476 0
vn -0.7071067811865476 -0.7071067811865476 0
vn -0.7071067811865476 0.7071067811865476 0
vn -0.7071067811865476 0.7071067811865476 0
vn -0.7071067811865476 0.7071067811865476 0
vn -0.7071067811865476 0.7071067811865476 0
vn -0.7071067811865476 0.7071067811865476 0
vn -0.7071067811865476 0.7071067811865476 0
vn 0.7071067811865476 -0.7071067811865476 0
vn 0.7071067811865476 -0.7071067811865476 0
vn 0.7071067811865476 -0.7071067811865476 0
vn 0.7071067811865476 -0.7071067811865476 0
vn 0.7071067811865476 -0.7071067811865476 0
vn 0.7071067811865476 -0.7071067811865476 0
vn 0.7071067811865476 0.7071067811865476 0
vn 0.7071067811865476 0.7071067811865476 0
vn 0.7071067811865476 0.7071067811865476 0
vn 0.7071067811865476 0.7071067811865476 0
vn 0.7071067811865476 0.7071067811865476 0
vn 0.7071067811865476 0.7071067811865476 0
vn -0.7071067811865476 0 -0.7071067811865476
vn -0.7071067811865476 0 -0.7071067811865476
vn -0.7071067811865476 0 -0.7071067811865476
vn -0.7071067811865476 0 -0.7071067811865476
vn -0.7071067811865476 0 -0.7071067811865476
vn -0.7071067811865476 0 -0.7071067811865476
vn -0.7071067811865476 0 0.7071067811865476
vn -0.7071067811865476 0 0.7071067811865476
vn -0.7071067811865476 0 0.7071067811865476
vn -0.7071067811865476 0 0.7071067811865476
vn -0.7071067811865476 0 0.7071067811865476
vn -0.7071067811865476 0 0.7071067811865476
vn 0.7071067811865476 0 -0.7071067811865476
vn 0.7071067811865476 0 -0.7071067811865476
vn 0.7071067811865476 0 -0.7071067811865476
vn 0.7071067811865476 0 -0.7071067811865476
vn 0.7071067811865476 0 -0.7071067811865476
vn 0.7071067811865476 0 -0.7071067811865476
vn 0.7071067811865476 0 0.7071067811865476
vn 0.7071067811865476 0 0.7071067811865476
vn 0.7071067811865476 0 0.7071067811865476
vn 0.7071067811865476 0 0.7071067811865476
vn 0.7071067811865476 0 0.7071067811865476
vn 0.7071067811865476 0 0.7071067811865476
vn 0 -0.7071067811865476 -0.7071067811865476
vn 0 -0.7071067811865476 -0.7071067811865476
vn 0 -0.7071067811865476 -0.7071067811865476
vn 0 -0.7071067811865476 -0.7071067811865476
vn 0 -0.7071067811865476 -0.7071067811865476
vn 0 -0.7071067811865476 -0.7071067811865476
vn 0 -0.7071067811865476 0.7071067811865476
vn 0 -0.7071067811865476 0.7071067811865476
vn 0 -0.7071067811865476 0.7071067811865476
vn 0 -0.7071067811865476 0.7071067811865476
vn 0 -0.7071067811865476 0.7071067811865476
vn 0 -0.7071067811865476 0.7071067811865476
vn 0 0.7071067811865476 -0.7071067811865476
vn 0 0.7071067811865476 -0.7071067811865476
vn 0 0.7071067811865476 -0.7071067811865476
vn 0 0.7071067811865476 -0.7071067811865476
vn 0 0.7071067811865476 -0.7071067811865476
vn 0 0.7071067811865476 -0.7071067811865476
vn 0 0.7071067811865476 0.7071067811865476
vn 0 0.7071067811865476 0.7071067811865476
vn 0 0.7071067811865476 0.7071067811865476
vn 0 0.7071067811865476 0.7071067811865476
vn 0 0.7071067811865476 0.7071067811865476
vn 0 0.7071067811865476 0.7071067811865476
vn -0.5773502691896257 -0.5773502691896257 -0.5773502691896257
vn -0.5773502691896257 -0.5773502691896257 -0.5773502691896257
vn -0.5773502691896257 -0.5773502691896257 -0.5773502691896257
vn -0.5773502691896257 -0.5773502691896257 0.5773502691896257
vn -0.5773502691896257 -0.5773502691896257 0.5773502691896257
vn -0.5773502691896257 -0.5773502691896257 0.5773502691896257
vn -0.5773502691896257 0.5773502691896257 -0.5773502691896257
vn -0.5773502691896257 0.5773502691896257 -0.5773502691896257
vn -0.5773502691896257 0.5773502691896257 -0.5773502691896257
vn -0.5773502691896257 0.5773502691896257 0.5773502691896257
vn -0.5773502691896257 0.5773502691896257 0.5773502691896257
vn -0.5773502691896257 0.5773502691896257 0.5773502691896257
vn 0.5773502691896257 -0.5773502691896257 -0.5773502691896257
vn 0.5773502691896257 -0.5773502691896257 -0.5773502691896257
vn 0.5773502691896257 -0.5773502691896257 -0.5773502691896257
vn 0.5773502691896257 -0.5773502691896257 0.5773502691896257
vn 0.5773502691896257 -0.5773502691896257 0.5773502691896257
vn 0.5773502691896257 -0.5773502691896257 0.5773502691896257
vn 0.5773502691896257 0.5773502691896257 -0.5773502691896257
vn 0.5773502691896257 0.5773502691896257 -0.5773502691896257
vn 0.5773502691896257 0.5773502691896257 -0.5773502691896257
vn 0.5773502691896257 0.5773502691896257 0.5773502691896257
vn 0.5773502691896257 0.5773502691896257 0.5773502691896257
vn 0.5773502691896257 0.5773502691896257 0.5773502691896257
f 133/133/133 134/134/134 135/135/135
f 136/136/136 137/137/137 138/138/138
f 139/139/139 140/140/140 141/141/141
f 142/142/142 143/143/143 144/144/144
f 145/145/145 146/146/146 147/147/147
f 148/148/148 149/149/149 150/150/150
f 151/151/151 152/152/152 153/153/153
f 154/154/154 155/155/155 156/156/156
f 157/157/157 158/158/158 159/159/159
f 160/160/160 161/161/161 162/162/162
f 163/163/163 164/164/164 165/165/165
f 166/166/166 167/167/167 168/168/168
f 169/169/169 170/170/170 171/171/171
f 172/172/172 173/173/173 174/174/174
f 175/175/175 176/176/176 177/177/177
f 178/178/178 179/179/179 180/180/180
f 181/181/181 182/182/182 183/183/183
f 184/184/184 185/185/185 186/186/186
f 187/187/187 188/188/188 189/189/189
f 190/190/190 191/191/191 192/192/192
f 193/193/193 194/194/194 195/195/195
f 196/196/196 197/197/197 198/198/198
f 199/199/199 200/200/200 201/201/201
f 202/202/202 203/203/203 204/204/204
f 205/205/205 206/206/206 207/207/207
f 208/208/208 209/209/209 210/210/210
f 211/211/211 212/212/212 213/213/213
f 214/214/214 215/215/215 216/216/216
f 217/217/217 218/218/218 219/219/219
f 220/220/220 221/221/221 222/222/222
f 223/223/223 224/224/224 225/225/225
f 226/226/226 227/227/227 228/228/228
f 229/229/229 230/230/230 231/231/231
f 232/232/232 233/233/233 234/234/234
f 235/235/235 236/236/236 237/237/237
f 238/238/238 239/239/239 240/240/240
f 241/241/241 242/242/242 243/243/243
f 244/244/244 245/245/245 246/246/246
f 247/247/247 248/248/248 249/249/249
f 250/250/250 251/251/251 252/252/252
f 253/253/253 254/254/254 255/255/255
f 256/256/256 257/257/257 258/258/258
f 259/259/259 260/260/260 261/261/261
f 262/262/262 263/263/263 264/264/264
o control_panel
usemtl projector_atlas
v 0.309000 0.701000 0.485500
v 0.649000 0.701000 0.485500
v 0.309000 0.701000 0.745500
v 0.649000 0.701000 0.745500
vt 0 0.375
vt 0.25 0.375
vt 0 0.25
vt 0.25 0.25
vn 0 1 6.123234262925839e-17
vn 0 1 6.123234262925839e-17
vn 0 1 6.123234262925839e-17
vn 0 1 6.123234262925839e-17
f 265/265/265 267/267/267 266/266/266
f 267/267/267 268/268/268 266/266/266
o lens_barrel
usemtl projector_atlas
v 0.479000 0.180000 0.150500
v 0.554000 0.200096 0.150500
v 0.608904 0.255000 0.150500
v 0.629000 0.330000 0.150500
v 0.608904 0.405000 0.150500
v 0.554000 0.459904 0.150500
v 0.479000 0.480000 0.150500
v 0.404000 0.459904 0.150500
v 0.349096 0.405000 0.150500
v 0.329000 0.330000 0.150500
v 0.349096 0.255000 0.150500
v 0.404000 0.200096 0.150500
v 0.479000 0.180000 0.150500
v 0.479000 0.180000 0.020500
v 0.554000 0.200096 0.020500
v 0.608904 0.255000 0.020500
v 0.629000 0.330000 0.020500
v 0.608904 0.405000 0.020500
v 0.554000 0.459904 0.020500
v 0.479000 0.480000 0.020500
v 0.404000 0.459904 0.020500
v 0.349096 0.405000 0.020500
v 0.329000 0.330000 0.020500
v 0.349096 0.255000 0.020500
v 0.404000 0.200096 0.020500
v 0.479000 0.180000 0.020500
vt 0.375 0.25
vt 0.3854166567325592 0.25
vt 0.3958333432674408 0.25
vt 0.40625 0.25
vt 0.4166666567325592 0.25
vt 0.4270833432674408 0.25
vt 0.4375 0.25
vt 0.4479166567325592 0.25
vt 0.4583333432674408 0.25
vt 0.46875 0.25
vt 0.4791666567325592 0.25
vt 0.4895833432674408 0.25
vt 0.5 0.25
vt 0.375 0.125
vt 0.3854166567325592 0.125
vt 0.3958333432674408 0.125
vt 0.40625 0.125
vt 0.4166666567325592 0.125
vt 0.4270833432674408 0.125
vt 0.4375 0.125
vt 0.4479166567325592 0.125
vt 0.4583333432674408 0.125
vt 0.46875 0.125
vt 0.4791666567325592 0.125
vt 0.4895833432674408 0.125
vt 0.5 0.125
vn 0 -1 6.123234262925839e-17
vn 0.5000000067305869 -0.8660253998985324 5.302876307448087e-17
vn 0.8660253998985324 -0.5000000067305869 3.06161717267588e-17
vn 1 -6.123234262925839e-17 3.74939976039497e-33
vn 0.8660253998985324 0.5000000067305869 -3.06161717267588e-17
vn 0.5000000067305869 0.8660253998985324 -5.302876307448087e-17
vn 1.2246468525851679e-16 1 -6.123234262925839e-17
vn -0.5000000067305869 0.8660253998985324 -5.302876307448087e-17
vn -0.8660253998985324 0.5000000067305869 -3.06161717267588e-17
vn -1 1.8369701465288538e-16 -1.1248198179158957e-32
vn -0.8660253998985324 -0.5000000067305869 3.06161717267588e-17
vn -0.5000000067305869 -0.8660253998985324 5.302876307448087e-17
vn -2.4492937051703357e-16 -1 6.123234262925839e-17
vn 0 -1 6.123234262925839e-17
vn 0.5000000067305869 -0.8660253998985324 5.302876307448087e-17
vn 0.8660253998985324 -0.5000000067305869 3.06161717267588e-17
vn 1 -6.123234262925839e-17 3.74939976039497e-33
vn 0.8660253998985324 0.5000000067305869 -3.06161717267588e-17
vn 0.5000000067305869 0.8660253998985324 -5.302876307448087e-17
vn 1.2246468525851679e-16 1 -6.123234262925839e-17
vn -0.5000000067305869 0.8660253998985324 -5.302876307448087e-17
vn -0.8660253998985324 0.5000000067305869 -3.06161717267588e-17
vn -1 1.8369701465288538e-16 -1.1248198179158957e-32
vn -0.8660253998985324 -0.5000000067305869 3.06161717267588e-17
vn -0.5000000067305869 -0.8660253998985324 5.302876307448087e-17
vn -2.4492937051703357e-16 -1 6.123234262925839e-17
f 269/269/269 282/282/282 270/270/270
f 282/282/282 283/283/283 270/270/270
f 270/270/270 283/283/283 271/271/271
f 283/283/283 284/284/284 271/271/271
f 271/271/271 284/284/284 272/272/272
f 284/284/284 285/285/285 272/272/272
f 272/272/272 285/285/285 273/273/273
f 285/285/285 286/286/286 273/273/273
f 273/273/273 286/286/286 274/274/274
f 286/286/286 287/287/287 274/274/274
f 274/274/274 287/287/287 275/275/275
f 287/287/287 288/288/288 275/275/275
f 275/275/275 288/288/288 276/276/276
f 288/288/288 289/289/289 276/276/276
f 276/276/276 289/289/289 277/277/277
f 289/289/289 290/290/290 277/277/277
f 277/277/277 290/290/290 278/278/278
f 290/290/290 291/291/291 278/278/278
f 278/278/278 291/291/291 279/279/279
f 291/291/291 292/292/292 279/279/279
f 279/279/279 292/292/292 280/280/280
f 292/292/292 293/293/293 280/280/280
f 280/280/280 293/293/293 281/281/281
f 293/293/293 294/294/294 281/281/281
o lens_ring
usemtl projector_atlas
v 0.479000 0.162000 0.043000
v 0.563000 0.184508 0.043000
v 0.624492 0.246000 0.043000
v 0.647000 0.330000 0.043000
v 0.624492 0.414000 0.043000
v 0.563000 0.475492 0.043000
v 0.479000 0.498000 0.043000
v 0.395000 0.475492 0.043000
v 0.333508 0.414000 0.043000
v 0.311000 0.330000 0.043000
v 0.333508 0.246000 0.043000
v 0.395000 0.184508 0.043000
v 0.479000 0.162000 0.043000
v 0.479000 0.162000 0.008000
v 0.563000 0.184508 0.008000
v 0.624492 0.246000 0.008000
v 0.647000 0.330000 0.008000
v 0.624492 0.414000 0.008000
v 0.563000 0.475492 0.008000
v 0.479000 0.498000 0.008000
v 0.395000 0.475492 0.008000
v 0.333508 0.414000 0.008000
v 0.311000 0.330000 0.008000
v 0.333508 0.246000 0.008000
v 0.395000 0.184508 0.008000
v 0.479000 0.162000 0.008000
vt 0.0625 0.4375
vt 0.0625 0.4375
vt 0.0625 0.4375
vt 0.0625 0.4375
vt 0.0625 0.4375
vt 0.0625 0.4375
vt 0.0625 0.4375
vt 0.0625 0.4375
vt 0.0625 0.4375
vt 0.0625 0.4375
vt 0.0625 0.4375
vt 0.0625 0.4375
vt 0.0625 0.4375
vt 0.0625 0.4375
vt 0.0625 0.4375
vt 0.0625 0.4375
vt 0.0625 0.4375
vt 0.0625 0.4375
vt 0.0625 0.4375
vt 0.0625 0.4375
vt 0.0625 0.4375
vt 0.0625 0.4375
vt 0.0625 0.4375
vt 0.0625 0.4375
vt 0.0625 0.4375
vt 0.0625 0.4375
vn 0 -1 6.123234262925839e-17
vn 0.5000000067305869 -0.8660253998985324 5.302876307448087e-17
vn 0.8660253998985324 -0.5000000067305869 3.06161717267588e-17
vn 1 -6.123234262925839e-17 3.74939976039497e-33
vn 0.8660253998985324 0.5000000067305869 -3.06161717267588e-17
vn 0.5000000067305869 0.8660253998985324 -5.302876307448087e-17
vn 1.2246468525851679e-16 1 -6.123234262925839e-17
vn -0.5000000067305869 0.8660253998985324 -5.302876307448087e-17
vn -0.8660253998985324 0.5000000067305869 -3.06161717267588e-17
vn -1 1.8369701465288538e-16 -1.1248198179158957e-32
vn -0.8660253998985324 -0.5000000067305869 3.06161717267588e-17
vn -0.5000000067305869 -0.8660253998985324 5.302876307448087e-17
vn -2.4492937051703357e-16 -1 6.123234262925839e-17
vn 0 -1 6.123234262925839e-17
vn 0.5000000067305869 -0.8660253998985324 5.302876307448087e-17
vn 0.8660253998985324 -0.5000000067305869 3.06161717267588e-17
vn 1 -6.123234262925839e-17 3.74939976039497e-33
vn 0.8660253998985324 0.5000000067305869 -3.06161717267588e-17
vn 0.5000000067305869 0.8660253998985324 -5.302876307448087e-17
vn 1.2246468525851679e-16 1 -6.123234262925839e-17
vn -0.5000000067305869 0.8660253998985324 -5.302876307448087e-17
vn -0.8660253998985324 0.5000000067305869 -3.06161717267588e-17
vn -1 1.8369701465288538e-16 -1.1248198179158957e-32
vn -0.8660253998985324 -0.5000000067305869 3.06161717267588e-17
vn -0.5000000067305869 -0.8660253998985324 5.302876307448087e-17
vn -2.4492937051703357e-16 -1 6.123234262925839e-17
f 295/295/295 308/308/308 296/296/296
f 308/308/308 309/309/309 296/296/296
f 296/296/296 309/309/309 297/297/297
f 309/309/309 310/310/310 297/297/297
f 297/297/297 310/310/310 298/298/298
f 310/310/310 311/311/311 298/298/298
f 298/298/298 311/311/311 299/299/299
f 311/311/311 312/312/312 299/299/299
f 299/299/299 312/312/312 300/300/300
f 312/312/312 313/313/313 300/300/300
f 300/300/300 313/313/313 301/301/301
f 313/313/313 314/314/314 301/301/301
f 301/301/301 314/314/314 302/302/302
f 314/314/314 315/315/315 302/302/302
f 302/302/302 315/315/315 303/303/303
f 315/315/315 316/316/316 303/303/303
f 303/303/303 316/316/316 304/304/304
f 316/316/316 317/317/317 304/304/304
f 304/304/304 317/317/317 305/305/305
f 317/317/317 318/318/318 305/305/305
f 305/305/305 318/318/318 306/306/306
f 318/318/318 319/319/319 306/306/306
f 306/306/306 319/319/319 307/307/307
f 319/319/319 320/320/320 307/307/307
o lens_ring_face
usemtl projector_atlas
v 0.339000 0.330000 0.008000
v 0.357756 0.400000 0.008000
v 0.409000 0.451244 0.008000
v 0.479000 0.470000 0.008000
v 0.549000 0.451244 0.008000
v 0.600244 0.400000 0.008000
v 0.619000 0.330000 0.008000
v 0.600244 0.260000 0.008000
v 0.549000 0.208756 0.008000
v 0.479000 0.190000 0.008000
v 0.409000 0.208756 0.008000
v 0.357756 0.260000 0.008000
v 0.339000 0.330000 0.008000
v 0.311000 0.330000 0.008000
v 0.333508 0.414000 0.008000
v 0.395000 0.475492 0.008000
v 0.479000 0.498000 0.008000
v 0.563000 0.475492 0.008000
v 0.624492 0.414000 0.008000
v 0.647000 0.330000 0.008000
v 0.624492 0.246000 0.008000
v 0.563000 0.184508 0.008000
v 0.479000 0.162000 0.008000
v 0.395000 0.184508 0.008000
v 0.333508 0.246000 0.008000
v 0.311000 0.330000 0.008000
vt 0.0625 0.4375
vt 0.0625 0.4375
vt 0.0625 0.4375
vt 0.0625 0.4375
vt 0.0625 0.4375
vt 0.0625 0.4375
vt 0.0625 0.4375
vt 0.0625 0.4375
vt 0.0625 0.4375
vt 0.0625 0.4375
vt 0.0625 0.4375
vt 0.0625 0.4375
vt 0.0625 0.4375
vt 0.0625 0.4375
vt 0.0625 0.4375
vt 0.0625 0.4375
vt 0.0625 0.4375
vt 0.0625 0.4375
vt 0.0625 0.4375
vt 0.0625 0.4375
vt 0.0625 0.4375
vt 0.0625 0.4375
vt 0.0625 0.4375
vt 0.0625 0.4375
vt 0.0625 0.4375
vt 0.0625 0.4375
vn 1.2246468525851679e-16 0 -1
vn 1.2246468525851679e-16 0 -1
vn 1.2246468525851679e-16 0 -1
vn 1.2246468525851679e-16 0 -1
vn 1.2246468525851679e-16 0 -1
vn 1.2246468525851679e-16 0 -1
vn 1.2246468525851679e-16 0 -1
vn 1.2246468525851679e-16 0 -1
vn 1.2246468525851679e-16 0 -1
vn 1.2246468525851679e-16 0 -1
vn 1.2246468525851679e-16 0 -1
vn 1.2246468525851679e-16 0 -1
vn 1.2246468525851679e-16 0 -1
vn 1.2246468525851679e-16 0 -1
vn 1.2246468525851679e-16 0 -1
vn 1.2246468525851679e-16 0 -1
vn 1.2246468525851679e-16 0 -1
vn 1.2246468525851679e-16 0 -1
vn 1.2246468525851679e-16 0 -1
vn 1.2246468525851679e-16 0 -1
vn 1.2246468525851679e-16 0 -1
vn 1.2246468525851679e-16 0 -1
vn 1.2246468525851679e-16 0 -1
vn 1.2246468525851679e-16 0 -1
vn 1.2246468525851679e-16 0 -1
vn 1.2246468525851679e-16 0 -1
f 321/321/321 334/334/334 322/322/322
f 334/334/334 335/335/335 322/322/322
f 322/322/322 335/335/335 323/323/323
f 335/335/335 336/336/336 323/323/323
f 323/323/323 336/336/336 324/324/324
f 336/336/336 337/337/337 324/324/324
f 324/324/324 337/337/337 325/325/325
f 337/337/337 338/338/338 325/325/325
f 325/325/325 338/338/338 326/326/326
f 338/338/338 339/339/339 326/326/326
f 326/326/326 339/339/339 327/327/327
f 339/339/339 340/340/340 327/327/327
f 327/327/327 340/340/340 328/328/328
f 340/340/340 341/341/341 328/328/328
f 328/328/328 341/341/341 329/329/329
f 341/341/341 342/342/342 329/329/329
f 329/329/329 342/342/342 330/330/330
f 342/342/342 343/343/343 330/330/330
f 330/330/330 343/343/343 331/331/331
f 343/343/343 344/344/344 331/331/331
f 331/331/331 344/344/344 332/332/332
f 344/344/344 345/345/345 332/332/332
f 332/332/332 345/345/345 333/333/333
f 345/345/345 346/346/346 333/333/333
o lens_glass
usemtl projector_atlas
v 0.479000 0.330000 0.016500
v 0.339000 0.330000 0.016500
v 0.357756 0.400000 0.016500
v 0.409000 0.451244 0.016500
v 0.479000 0.470000 0.016500
v 0.549000 0.451244 0.016500
v 0.600244 0.400000 0.016500
v 0.619000 0.330000 0.016500
v 0.600244 0.260000 0.016500
v 0.549000 0.208756 0.016500
v 0.479000 0.190000 0.016500
v 0.409000 0.208756 0.016500
v 0.357756 0.260000 0.016500
v 0.339000 0.330000 0.016500
vt 0.375 0.375
vt 0.5 0.375
vt 0.4832531809806824 0.4375
vt 0.4375 0.4832531809806824
vt 0.375 0.5
vt 0.3125 0.4832531809806824
vt 0.2667468190193176 0.4375
vt 0.25 0.375
vt 0.2667468190193176 0.3125
vt 0.3125 0.2667468190193176
vt 0.375 0.25
vt 0.4375 0.2667468190193176
vt 0.4832531809806824 0.3125
vt 0.5 0.375
vn 1.2246468525851679e-16 0 -1
vn 1.2246468525851679e-16 0 -1
vn 1.2246468525851679e-16 0 -1
vn 1.2246468525851679e-16 0 -1
vn 1.2246468525851679e-16 0 -1
vn 1.2246468525851679e-16 0 -1
vn 1.2246468525851679e-16 0 -1
vn 1.2246468525851679e-16 0 -1
vn 1.2246468525851679e-16 0 -1
vn 1.2246468525851679e-16 0 -1
vn 1.2246468525851679e-16 0 -1
vn 1.2246468525851679e-16 0 -1
vn 1.2246468525851679e-16 0 -1
vn 1.2246468525851679e-16 0 -1
f 348/348/348 349/349/349 347/347/347
f 349/349/349 350/350/350 347/347/347
f 350/350/350 351/351/351 347/347/347
f 351/351/351 352/352/352 347/347/347
f 352/352/352 353/353/353 347/347/347
f 353/353/353 354/354/354 347/347/347
f 354/354/354 355/355/355 347/347/347
f 355/355/355 356/356/356 347/347/347
f 356/356/356 357/357/357 347/347/347
f 357/357/357 358/358/358 347/347/347
f 358/358/358 359/359/359 347/347/347
f 359/359/359 360/360/360 347/347/347
o led_power
usemtl projector_atlas
v 0.163000 0.504000 0.139000
v 0.135000 0.504000 0.139000
v 0.163000 0.476000 0.139000
v 0.135000 0.476000 0.139000
vt 0 0.25
vt 0.0625 0.25
vt 0 0.1875
vt 0.0625 0.1875
vn 1.2246468525851679e-16 0 -1
vn 1.2246468525851679e-16 0 -1
vn 1.2246468525851679e-16 0 -1
vn 1.2246468525851679e-16 0 -1
f 361/361/361 363/363/363 362/362/362
f 363/363/363 364/364/364 362/362/362
o led_tally
usemtl projector_atlas
v 0.223000 0.504000 0.139000
v 0.195000 0.504000 0.139000
v 0.223000 0.476000 0.139000
v 0.195000 0.476000 0.139000
vt 0.0625 0.25
vt 0.125 0.25
vt 0.0625 0.1875
vt 0.125 0.1875
vn 1.2246468525851679e-16 0 -1
vn 1.2246468525851679e-16 0 -1
vn 1.2246468525851679e-16 0 -1
vn 1.2246468525851679e-16 0 -1
f 365/365/365 367/367/367 366/366/366
f 367/367/367 368/368/368 366/366/366
o input_module
usemtl projector_atlas
v 0.996000 0.182000 0.387500
v 0.996000 0.478000 0.387500
v 0.996000 0.478000 0.863500
v 0.996000 0.182000 0.387500
v 0.996000 0.478000 0.863500
v 0.996000 0.182000 0.863500
v 0.896000 0.182000 0.387500
v 0.896000 0.478000 0.863500
v 0.896000 0.478000 0.387500
v 0.896000 0.182000 0.387500
v 0.896000 0.182000 0.863500
v 0.896000 0.478000 0.863500
v 0.908000 0.490000 0.387500
v 0.984000 0.490000 0.863500
v 0.984000 0.490000 0.387500
v 0.908000 0.490000 0.387500
v 0.908000 0.490000 0.863500
v 0.984000 0.490000 0.863500
v 0.908000 0.170000 0.387500
v 0.984000 0.170000 0.387500
v 0.984000 0.170000 0.863500
v 0.908000 0.170000 0.387500
v 0.984000 0.170000 0.863500
v 0.908000 0.170000 0.863500
v 0.908000 0.182000 0.875500
v 0.984000 0.182000 0.875500
v 0.984000 0.478000 0.875500
v 0.908000 0.182000 0.875500
v 0.984000 0.478000 0.875500
v 0.908000 0.478000 0.875500
v 0.908000 0.182000 0.375500
v 0.984000 0.478000 0.375500
v 0.984000 0.182000 0.375500
v 0.908000 0.182000 0.375500
v 0.908000 0.478000 0.375500
v 0.984000 0.478000 0.375500
v 0.896000 0.182000 0.387500
v 0.908000 0.170000 0.863500
v 0.896000 0.182000 0.863500
v 0.896000 0.182000 0.387500
v 0.908000 0.170000 0.387500
v 0.908000 0.170000 0.863500
v 0.896000 0.478000 0.387500
v 0.896000 0.478000 0.863500
v 0.908000 0.490000 0.863500
v 0.896000 0.478000 0.387500
v 0.908000 0.490000 0.863500
v 0.908000 0.490000 0.387500
v 0.996000 0.182000 0.387500
v 0.996000 0.182000 0.863500
v 0.984000 0.170000 0.863500
v 0.996000 0.182000 0.387500
v 0.984000 0.170000 0.863500
v 0.984000 0.170000 0.387500
v 0.996000 0.478000 0.387500
v 0.984000 0.490000 0.863500
v 0.996000 0.478000 0.863500
v 0.996000 0.478000 0.387500
v 0.984000 0.490000 0.387500
v 0.984000 0.490000 0.863500
v 0.896000 0.182000 0.387500
v 0.896000 0.478000 0.387500
v 0.908000 0.478000 0.375500
v 0.896000 0.182000 0.387500
v 0.908000 0.478000 0.375500
v 0.908000 0.182000 0.375500
v 0.896000 0.182000 0.863500
v 0.908000 0.478000 0.875500
v 0.896000 0.478000 0.863500
v 0.896000 0.182000 0.863500
v 0.908000 0.182000 0.875500
v 0.908000 0.478000 0.875500
v 0.996000 0.182000 0.387500
v 0.984000 0.478000 0.375500
v 0.996000 0.478000 0.387500
v 0.996000 0.182000 0.387500
v 0.984000 0.182000 0.375500
v 0.984000 0.478000 0.375500
v 0.996000 0.182000 0.863500
v 0.996000 0.478000 0.863500
v 0.984000 0.478000 0.875500
v 0.996000 0.182000 0.863500
v 0.984000 0.478000 0.875500
v 0.984000 0.182000 0.875500
v 0.908000 0.170000 0.387500
v 0.984000 0.182000 0.375500
v 0.984000 0.170000 0.387500
v 0.908000 0.170000 0.387500
v 0.908000 0.182000 0.375500
v 0.984000 0.182000 0.375500
v 0.908000 0.170000 0.863500
v 0.984000 0.170000 0.863500
v 0.984000 0.182000 0.875500
v 0.908000 0.170000 0.863500
v 0.984000 0.182000 0.875500
v 0.908000 0.182000 0.875500
v 0.908000 0.490000 0.387500
v 0.984000 0.490000 0.387500
v 0.984000 0.478000 0.375500
v 0.908000 0.490000 0.387500
v 0.984000 0.478000 0.375500
v 0.908000 0.478000 0.375500
v 0.908000 0.490000 0.863500
v 0.984000 0.478000 0.875500
v 0.984000 0.490000 0.863500
v 0.908000 0.490000 0.863500
v 0.908000 0.478000 0.875500
v 0.984000 0.478000 0.875500
v 0.896000 0.182000 0.387500
v 0.908000 0.182000 0.375500
v 0.908000 0.170000 0.387500
v 0.896000 0.182000 0.863500
v 0.908000 0.170000 0.863500
v 0.908000 0.182000 0.875500
v 0.896000 0.478000 0.387500
v 0.908000 0.490000 0.387500
v 0.908000 0.478000 0.375500
v 0.896000 0.478000 0.863500
v 0.908000 0.478000 0.875500
v 0.908000 0.490000 0.863500
v 0.996000 0.182000 0.387500
v 0.984000 0.170000 0.387500
v 0.984000 0.182000 0.375500
v 0.996000 0.182000 0.863500
v 0.984000 0.182000 0.875500
v 0.984000 0.170000 0.863500
v 0.996000 0.478000 0.387500
v 0.984000 0.478000 0.375500
v 0.984000 0.490000 0.387500
v 0.996000 0.478000 0.863500
v 0.984000 0.490000 0.863500
v 0.984000 0.478000 0.875500
vt 0.375 0
vt 0.5 0
vt 0.5 0.125
vt 0.375 0
vt 0.5 0.125
vt 0.375 0.125
vt 0.125 0.375
vt 0.25 0.5
vt 0.25 0.375
vt 0.125 0.375
vt 0.125 0.5
vt 0.25 0.5
vt 0.125 0.375
vt 0.25 0.5
vt 0.25 0.375
vt 0.125 0.375
vt 0.125 0.5
vt 0.25 0.5
vt 0.125 0.375
vt 0.25 0.375
vt 0.25 0.5
vt 0.125 0.375
vt 0.25 0.5
vt 0.125 0.5
vt 0.125 0.375
vt 0.25 0.375
vt 0.25 0.5
vt 0.125 0.375
vt 0.25 0.5
vt 0.125 0.5
vt 0.125 0.375
vt 0.25 0.5
vt 0.25 0.375
vt 0.125 0.375
vt 0.125 0.5
vt 0.25 0.5
vt 0.0625 0.4375
vt 0.0625 0.4375
vt 0.0625 0.4375
vt 0.0625 0.4375
vt 0.0625 0.4375
vt 0.0625 0.4375
vt 0.0625 0.4375
vt 0.0625 0.4375
vt 0.0625 0.4375
vt 0.0625 0.4375
vt 0.0625 0.4375
vt 0.0625 0.4375
vt 0.0625 0.4375
vt 0.0625 0.4375
vt 0.0625 0.4375
vt 0.0625 0.4375
vt 0.0625 0.4375
vt 0.0625 0.4375
vt 0.0625 0.4375
vt 0.0625 0.4375
vt 0.0625 0.4375
vt 0.0625 0.4375
vt 0.0625 0.4375
vt 0.0625 0.4375
vt 0.0625 0.4375
vt 0.0625 0.4375
vt 0.0625 0.4375
vt 0.0625 0.4375
vt 0.0625 0.4375
vt 0.0625 0.4375
vt 0.0625 0.4375
vt 0.0625 0.4375
vt 0.0625 0.4375
vt 0.0625 0.4375
vt 0.0625 0.4375
vt 0.0625 0.4375
vt 0.0625 0.4375
vt 0.0625 0.4375
vt 0.0625 0.4375
vt 0.0625 0.4375
vt 0.0625 0.4375
vt 0.0625 0.4375
vt 0.0625 0.4375
vt 0.0625 0.4375
vt 0.0625 0.4375
vt 0.0625 0.4375
vt 0.0625 0.4375
vt 0.0625 0.4375
vt 0.0625 0.4375
vt 0.0625 0.4375
vt 0.0625 0.4375
vt 0.0625 0.4375
vt 0.0625 0.4375
vt 0.0625 0.4375
vt 0.0625 0.4375
vt 0.0625 0.4375
vt 0.0625 0.4375
vt 0.0625 0.4375
vt 0.0625 0.4375
vt 0.0625 0.4375
vt 0.0625 0.4375
vt 0.0625 0.4375
vt 0.0625 0.4375
vt 0.0625 0.4375
vt 0.0625 0.4375
vt 0.0625 0.4375
vt 0.0625 0.4375
vt 0.0625 0.4375
vt 0.0625 0.4375
vt 0.0625 0.4375
vt 0.0625 0.4375
vt 0.0625 0.4375
vt 0.0625 0.4375
vt 0.0625 0.4375
vt 0.0625 0.4375
vt 0.0625 0.4375
vt 0.0625 0.4375
vt 0.0625 0.4375
vt 0.0625 0.4375
vt 0.0625 0.4375
vt 0.0625 0.4375
vt 0.0625 0.4375
vt 0.0625 0.4375
vt 0.0625 0.4375
vt 0.0625 0.4375
vt 0.0625 0.4375
vt 0.0625 0.4375
vt 0.0625 0.4375
vt 0.0625 0.4375
vt 0.0625 0.4375
vt 0.0625 0.4375
vt 0.0625 0.4375
vt 0.0625 0.4375
vt 0.0625 0.4375
vt 0.0625 0.4375
vt 0.0625 0.4375
vn 1 0 0
vn 1 0 0
vn 1 0 0
vn 1 0 0
vn 1 0 0
vn 1 0 0
vn -1 0 0
vn -1 0 0
vn -1 0 0
vn -1 0 0
vn -1 0 0
vn -1 0 0
vn 0 1 0
vn 0 1 0
vn 0 1 0
vn 0 1 0
vn 0 1 0
vn 0 1 0
vn 0 -1 0
vn 0 -1 0
vn 0 -1 0
vn 0 -1 0
vn 0 -1 0
vn 0 -1 0
vn 0 0 1
vn 0 0 1
vn 0 0 1
vn 0 0 1
vn 0 0 1
vn 0 0 1
vn 0 0 -1
vn 0 0 -1
vn 0 0 -1
vn 0 0 -1
vn 0 0 -1
vn 0 0 -1
vn -0.7071065427679242 -0.7071070196050905 0
vn -0.7071065427679242 -0.7071070196050905 0
vn -0.7071065427679242 -0.7071070196050905 0
vn -0.7071065427679242 -0.7071070196050905 0
vn -0.7071065427679242 -0.7071070196050905 0
vn -0.7071065427679242 -0.7071070196050905 0
vn -0.7071065427679242 0.7071070196050905 0
vn -0.7071065427679242 0.7071070196050905 0
vn -0.7071065427679242 0.7071070196050905 0
vn -0.7071065427679242 0.7071070196050905 0
vn -0.7071065427679242 0.7071070196050905 0
vn -0.7071065427679242 0.7071070196050905 0
vn 0.7071065427679242 -0.7071070196050905 0
vn 0.7071065427679242 -0.7071070196050905 0
vn 0.7071065427679242 -0.7071070196050905 0
vn 0.7071065427679242 -0.7071070196050905 0
vn 0.7071065427679242 -0.7071070196050905 0
vn 0.7071065427679242 -0.7071070196050905 0
vn 0.7071065427679242 0.7071070196050905 0
vn 0.7071065427679242 0.7071070196050905 0
vn 0.7071065427679242 0.7071070196050905 0
vn 0.7071065427679242 0.7071070196050905 0
vn 0.7071065427679242 0.7071070196050905 0
vn 0.7071065427679242 0.7071070196050905 0
vn -0.7071065427679242 0 -0.7071070196050905
vn -0.7071065427679242 0 -0.7071070196050905
vn -0.7071065427679242 0 -0.7071070196050905
vn -0.7071065427679242 0 -0.7071070196050905
vn -0.7071065427679242 0 -0.7071070196050905
vn -0.7071065427679242 0 -0.7071070196050905
vn -0.7071065427679242 0 0.7071070196050905
vn -0.7071065427679242 0 0.7071070196050905
vn -0.7071065427679242 0 0.7071070196050905
vn -0.7071065427679242 0 0.7071070196050905
vn -0.7071065427679242 0 0.7071070196050905
vn -0.7071065427679242 0 0.7071070196050905
vn 0.7071065427679242 0 -0.7071070196050905
vn 0.7071065427679242 0 -0.7071070196050905
vn 0.7071065427679242 0 -0.7071070196050905
vn 0.7071065427679242 0 -0.7071070196050905
vn 0.7071065427679242 0 -0.7071070196050905
vn 0.7071065427679242 0 -0.7071070196050905
vn 0.7071065427679242 0 0.7071070196050905
vn 0.7071065427679242 0 0.7071070196050905
vn 0.7071065427679242 0 0.7071070196050905
vn 0.7071065427679242 0 0.7071070196050905
vn 0.7071065427679242 0 0.7071070196050905
vn 0.7071065427679242 0 0.7071070196050905
vn 0 -0.7071067811865476 -0.7071067811865476
vn 0 -0.7071067811865476 -0.7071067811865476
vn 0 -0.7071067811865476 -0.7071067811865476
vn 0 -0.7071067811865476 -0.7071067811865476
vn 0 -0.7071067811865476 -0.7071067811865476
vn 0 -0.7071067811865476 -0.7071067811865476
vn 0 -0.7071067811865476 0.7071067811865476
vn 0 -0.7071067811865476 0.7071067811865476
vn 0 -0.7071067811865476 0.7071067811865476
vn 0 -0.7071067811865476 0.7071067811865476
vn 0 -0.7071067811865476 0.7071067811865476
vn 0 -0.7071067811865476 0.7071067811865476
vn 0 0.7071067811865476 -0.7071067811865476
vn 0 0.7071067811865476 -0.7071067811865476
vn 0 0.7071067811865476 -0.7071067811865476
vn 0 0.7071067811865476 -0.7071067811865476
vn 0 0.7071067811865476 -0.7071067811865476
vn 0 0.7071067811865476 -0.7071067811865476
vn 0 0.7071067811865476 0.7071067811865476
vn 0 0.7071067811865476 0.7071067811865476
vn 0 0.7071067811865476 0.7071067811865476
vn 0 0.7071067811865476 0.7071067811865476
vn 0 0.7071067811865476 0.7071067811865476
vn 0 0.7071067811865476 0.7071067811865476
vn -0.5773500307710178 -0.5773503883988929 -0.5773503883988929
vn -0.5773500307710178 -0.5773503883988929 -0.5773503883988929
vn -0.5773500307710178 -0.5773503883988929 -0.5773503883988929
vn -0.5773500307710178 -0.5773503883988929 0.5773503883988929
vn -0.5773500307710178 -0.5773503883988929 0.5773503883988929
vn -0.5773500307710178 -0.5773503883988929 0.5773503883988929
vn -0.5773500307710178 0.5773503883988929 -0.5773503883988929
vn -0.5773500307710178 0.5773503883988929 -0.5773503883988929
vn -0.5773500307710178 0.5773503883988929 -0.5773503883988929
vn -0.5773500307710178 0.5773503883988929 0.5773503883988929
vn -0.5773500307710178 0.5773503883988929 0.5773503883988929
vn -0.5773500307710178 0.5773503883988929 0.5773503883988929
vn 0.5773500307710178 -0.5773503883988929 -0.5773503883988929
vn 0.5773500307710178 -0.5773503883988929 -0.5773503883988929
vn 0.5773500307710178 -0.5773503883988929 -0.5773503883988929
vn 0.5773500307710178 -0.5773503883988929 0.5773503883988929
vn 0.5773500307710178 -0.5773503883988929 0.5773503883988929
vn 0.5773500307710178 -0.5773503883988929 0.5773503883988929
vn 0.5773500307710178 0.5773503883988929 -0.5773503883988929
vn 0.5773500307710178 0.5773503883988929 -0.5773503883988929
vn 0.5773500307710178 0.5773503883988929 -0.5773503883988929
vn 0.5773500307710178 0.5773503883988929 0.5773503883988929
vn 0.5773500307710178 0.5773503883988929 0.5773503883988929
vn 0.5773500307710178 0.5773503883988929 0.5773503883988929
f 369/369/369 370/370/370 371/371/371
f 372/372/372 373/373/373 374/374/374
f 375/375/375 376/376/376 377/377/377
f 378/378/378 379/379/379 380/380/380
f 381/381/381 382/382/382 383/383/383
f 384/384/384 385/385/385 386/386/386
f 387/387/387 388/388/388 389/389/389
f 390/390/390 391/391/391 392/392/392
f 393/393/393 394/394/394 395/395/395
f 396/396/396 397/397/397 398/398/398
f 399/399/399 400/400/400 401/401/401
f 402/402/402 403/403/403 404/404/404
f 405/405/405 406/406/406 407/407/407
f 408/408/408 409/409/409 410/410/410
f 411/411/411 412/412/412 413/413/413
f 414/414/414 415/415/415 416/416/416
f 417/417/417 418/418/418 419/419/419
f 420/420/420 421/421/421 422/422/422
f 423/423/423 424/424/424 425/425/425
f 426/426/426 427/427/427 428/428/428
f 429/429/429 430/430/430 431/431/431
f 432/432/432 433/433/433 434/434/434
f 435/435/435 436/436/436 437/437/437
f 438/438/438 439/439/439 440/440/440
f 441/441/441 442/442/442 443/443/443
f 444/444/444 445/445/445 446/446/446
f 447/447/447 448/448/448 449/449/449
f 450/450/450 451/451/451 452/452/452
f 453/453/453 454/454/454 455/455/455
f 456/456/456 457/457/457 458/458/458
f 459/459/459 460/460/460 461/461/461
f 462/462/462 463/463/463 464/464/464
f 465/465/465 466/466/466 467/467/467
f 468/468/468 469/469/469 470/470/470
f 471/471/471 472/472/472 473/473/473
f 474/474/474 475/475/475 476/476/476
f 477/477/477 478/478/478 479/479/479
f 480/480/480 481/481/481 482/482/482
f 483/483/483 484/484/484 485/485/485
f 486/486/486 487/487/487 488/488/488
f 489/489/489 490/490/490 491/491/491
f 492/492/492 493/493/493 494/494/494
f 495/495/495 496/496/496 497/497/497
f 498/498/498 499/499/499 500/500/500
o exhaust_fan
usemtl projector_atlas
v 0.279000 0.410000 0.992000
v 0.409000 0.410000 0.992000
v 0.391583 0.475000 0.992000
v 0.344000 0.522583 0.992000
v 0.279000 0.540000 0.992000
v 0.214000 0.522583 0.992000
v 0.166417 0.475000 0.992000
v 0.149000 0.410000 0.992000
v 0.166417 0.345000 0.992000
v 0.214000 0.297417 0.992000
v 0.279000 0.280000 0.992000
v 0.344000 0.297417 0.992000
v 0.391583 0.345000 0.992000
v 0.409000 0.410000 0.992000
vt 0.25 0.125
vt 0.375 0.125
vt 0.3582531809806824 0.1875
vt 0.3125 0.23325318098068237
vt 0.25 0.25
vt 0.1875 0.23325318098068237
vt 0.14174681901931763 0.1875
vt 0.125 0.125
vt 0.14174681901931763 0.0625
vt 0.1875 0.016746824607253075
vt 0.25 0
vt 0.3125 0.016746824607253075
vt 0.3582531809806824 0.0625
vt 0.375 0.125
vn 0 0 1
vn 0 0 1
vn 0 0 1
vn 0 0 1
vn 0 0 1
vn 0 0 1
vn 0 0 1
vn 0 0 1
vn 0 0 1
vn 0 0 1
vn 0 0 1
vn 0 0 1
vn 0 0 1
vn 0 0 1
f 502/502/502 503/503/503 501/501/501
f 503/503/503 504/504/504 501/501/501
f 504/504/504 505/505/505 501/501/501
f 505/505/505 506/506/506 501/501/501
f 506/506/506 507/507/507 501/501/501
f 507/507/507 508/508/508 501/501/501
f 508/508/508 509/509/509 501/501/501
f 509/509/509 510/510/510 501/501/501
f 510/510/510 511/511/511 501/501/501
f 511/511/511 512/512/512 501/501/501
f 512/512/512 513/513/513 501/501/501
f 513/513/513 514/514/514 501/501/501
o foot_1
usemtl projector_atlas
v 0.159000 0.030000 0.305500
v 0.159000 0.030000 0.225500
v 0.159000 0.000000 0.305500
v 0.159000 0.000000 0.225500
v 0.079000 0.030000 0.225500
v 0.079000 0.030000 0.305500
v 0.079000 0.000000 0.225500
v 0.079000 0.000000 0.305500
v 0.079000 0.030000 0.225500
v 0.159000 0.030000 0.225500
v 0.079000 0.030000 0.305500
v 0.159000 0.030000 0.305500
v 0.079000 0.000000 0.305500
v 0.159000 0.000000 0.305500
v 0.079000 0.000000 0.225500
v 0.159000 0.000000 0.225500
v 0.079000 0.030000 0.305500
v 0.159000 0.030000 0.305500
v 0.079000 0.000000 0.305500
v 0.159000 0.000000 0.305500
v 0.159000 0.030000 0.225500
v 0.079000 0.030000 0.225500
v 0.159000 0.000000 0.225500
v 0.079000 0.000000 0.225500
vt 0.1875 0.4375
vt 0.1875 0.4375
vt 0.1875 0.4375
vt 0.1875 0.4375
vt 0.1875 0.4375
vt 0.1875 0.4375
vt 0.1875 0.4375
vt 0.1875 0.4375
vt 0.1875 0.4375
vt 0.1875 0.4375
vt 0.1875 0.4375
vt 0.1875 0.4375
vt 0.1875 0.4375
vt 0.1875 0.4375
vt 0.1875 0.4375
vt 0.1875 0.4375
vt 0.1875 0.4375
vt 0.1875 0.4375
vt 0.1875 0.4375
vt 0.1875 0.4375
vt 0.1875 0.4375
vt 0.1875 0.4375
vt 0.1875 0.4375
vt 0.1875 0.4375
vn 1 0 0
vn 1 0 0
vn 1 0 0
vn 1 0 0
vn -1 0 0
vn -1 0 0
vn -1 0 0
vn -1 0 0
vn 0 1 0
vn 0 1 0
vn 0 1 0
vn 0 1 0
vn 0 -1 0
vn 0 -1 0
vn 0 -1 0
vn 0 -1 0
vn 0 0 1
vn 0 0 1
vn 0 0 1
vn 0 0 1
vn 0 0 -1
vn 0 0 -1
vn 0 0 -1
vn 0 0 -1
f 515/515/515 517/517/517 516/516/516
f 517/517/517 518/518/518 516/516/516
f 519/519/519 521/521/521 520/520/520
f 521/521/521 522/522/522 520/520/520
f 523/523/523 525/525/525 524/524/524
f 525/525/525 526/526/526 524/524/524
f 527/527/527 529/529/529 528/528/528
f 529/529/529 530/530/530 528/528/528
f 531/531/531 533/533/533 532/532/532
f 533/533/533 534/534/534 532/532/532
f 535/535/535 537/537/537 536/536/536
f 537/537/537 538/538/538 536/536/536
o foot_2
usemtl projector_atlas
v 0.879000 0.030000 0.305500
v 0.879000 0.030000 0.225500
v 0.879000 0.000000 0.305500
v 0.879000 0.000000 0.225500
v 0.799000 0.030000 0.225500
v 0.799000 0.030000 0.305500
v 0.799000 0.000000 0.225500
v 0.799000 0.000000 0.305500
v 0.799000 0.030000 0.225500
v 0.879000 0.030000 0.225500
v 0.799000 0.030000 0.305500
v 0.879000 0.030000 0.305500
v 0.799000 0.000000 0.305500
v 0.879000 0.000000 0.305500
v 0.799000 0.000000 0.225500
v 0.879000 0.000000 0.225500
v 0.799000 0.030000 0.305500
v 0.879000 0.030000 0.305500
v 0.799000 0.000000 0.305500
v 0.879000 0.000000 0.305500
v 0.879000 0.030000 0.225500
v 0.799000 0.030000 0.225500
v 0.879000 0.000000 0.225500
v 0.799000 0.000000 0.225500
vt 0.1875 0.4375
vt 0.1875 0.4375
vt 0.1875 0.4375
vt 0.1875 0.4375
vt 0.1875 0.4375
vt 0.1875 0.4375
vt 0.1875 0.4375
vt 0.1875 0.4375
vt 0.1875 0.4375
vt 0.1875 0.4375
vt 0.1875 0.4375
vt 0.1875 0.4375
vt 0.1875 0.4375
vt 0.1875 0.4375
vt 0.1875 0.4375
vt 0.1875 0.4375
vt 0.1875 0.4375
vt 0.1875 0.4375
vt 0.1875 0.4375
vt 0.1875 0.4375
vt 0.1875 0.4375
vt 0.1875 0.4375
vt 0.1875 0.4375
vt 0.1875 0.4375
vn 1 0 0
vn 1 0 0
vn 1 0 0
vn 1 0 0
vn -1 0 0
vn -1 0 0
vn -1 0 0
vn -1 0 0
vn 0 1 0
vn 0 1 0
vn 0 1 0
vn 0 1 0
vn 0 -1 0
vn 0 -1 0
vn 0 -1 0
vn 0 -1 0
vn 0 0 1
vn 0 0 1
vn 0 0 1
vn 0 0 1
vn 0 0 -1
vn 0 0 -1
vn 0 0 -1
vn 0 0 -1
f 539/539/539 541/541/541 540/540/540
f 541/541/541 542/542/542 540/540/540
f 543/543/543 545/545/545 544/544/544
f 545/545/545 546/546/546 544/544/544
f 547/547/547 549/549/549 548/548/548
f 549/549/549 550/550/550 548/548/548
f 551/551/551 553/553/553 552/552/552
f 553/553/553 554/554/554 552/552/552
f 555/555/555 557/557/557 556/556/556
f 557/557/557 558/558/558 556/556/556
f 559/559/559 561/561/561 560/560/560
f 561/561/561 562/562/562 560/560/560
o foot_3
usemtl projector_atlas
v 0.159000 0.030000 0.905500
v 0.159000 0.030000 0.825500
v 0.159000 0.000000 0.905500
v 0.159000 0.000000 0.825500
v 0.079000 0.030000 0.825500
v 0.079000 0.030000 0.905500
v 0.079000 0.000000 0.825500
v 0.079000 0.000000 0.905500
v 0.079000 0.030000 0.825500
v 0.159000 0.030000 0.825500
v 0.079000 0.030000 0.905500
v 0.159000 0.030000 0.905500
v 0.079000 0.000000 0.905500
v 0.159000 0.000000 0.905500
v 0.079000 0.000000 0.825500
v 0.159000 0.000000 0.825500
v 0.079000 0.030000 0.905500
v 0.159000 0.030000 0.905500
v 0.079000 0.000000 0.905500
v 0.159000 0.000000 0.905500
v 0.159000 0.030000 0.825500
v 0.079000 0.030000 0.825500
v 0.159000 0.000000 0.825500
v 0.079000 0.000000 0.825500
vt 0.1875 0.4375
vt 0.1875 0.4375
vt 0.1875 0.4375
vt 0.1875 0.4375
vt 0.1875 0.4375
vt 0.1875 0.4375
vt 0.1875 0.4375
vt 0.1875 0.4375
vt 0.1875 0.4375
vt 0.1875 0.4375
vt 0.1875 0.4375
vt 0.1875 0.4375
vt 0.1875 0.4375
vt 0.1875 0.4375
vt 0.1875 0.4375
vt 0.1875 0.4375
vt 0.1875 0.4375
vt 0.1875 0.4375
vt 0.1875 0.4375
vt 0.1875 0.4375
vt 0.1875 0.4375
vt 0.1875 0.4375
vt 0.1875 0.4375
vt 0.1875 0.4375
vn 1 0 0
vn 1 0 0
vn 1 0 0
vn 1 0 0
vn -1 0 0
vn -1 0 0
vn -1 0 0
vn -1 0 0
vn 0 1 0
vn 0 1 0
vn 0 1 0
vn 0 1 0
vn 0 -1 0
vn 0 -1 0
vn 0 -1 0
vn 0 -1 0
vn 0 0 1
vn 0 0 1
vn 0 0 1
vn 0 0 1
vn 0 0 -1
vn 0 0 -1
vn 0 0 -1
vn 0 0 -1
f 563/563/563 565/565/565 564/564/564
f 565/565/565 566/566/566 564/564/564
f 567/567/567 569/569/569 568/568/568
f 569/569/569 570/570/570 568/568/568
f 571/571/571 573/573/573 572/572/572
f 573/573/573 574/574/574 572/572/572
f 575/575/575 577/577/577 576/576/576
f 577/577/577 578/578/578 576/576/576
f 579/579/579 581/581/581 580/580/580
f 581/581/581 582/582/582 580/580/580
f 583/583/583 585/585/585 584/584/584
f 585/585/585 586/586/586 584/584/584
o foot_4
usemtl projector_atlas
v 0.879000 0.030000 0.905500
v 0.879000 0.030000 0.825500
v 0.879000 0.000000 0.905500
v 0.879000 0.000000 0.825500
v 0.799000 0.030000 0.825500
v 0.799000 0.030000 0.905500
v 0.799000 0.000000 0.825500
v 0.799000 0.000000 0.905500
v 0.799000 0.030000 0.825500
v 0.879000 0.030000 0.825500
v 0.799000 0.030000 0.905500
v 0.879000 0.030000 0.905500
v 0.799000 0.000000 0.905500
v 0.879000 0.000000 0.905500
v 0.799000 0.000000 0.825500
v 0.879000 0.000000 0.825500
v 0.799000 0.030000 0.905500
v 0.879000 0.030000 0.905500
v 0.799000 0.000000 0.905500
v 0.879000 0.000000 0.905500
v 0.879000 0.030000 0.825500
v 0.799000 0.030000 0.825500
v 0.879000 0.000000 0.825500
v 0.799000 0.000000 0.825500
vt 0.1875 0.4375
vt 0.1875 0.4375
vt 0.1875 0.4375
vt 0.1875 0.4375
vt 0.1875 0.4375
vt 0.1875 0.4375
vt 0.1875 0.4375
vt 0.1875 0.4375
vt 0.1875 0.4375
vt 0.1875 0.4375
vt 0.1875 0.4375
vt 0.1875 0.4375
vt 0.1875 0.4375
vt 0.1875 0.4375
vt 0.1875 0.4375
vt 0.1875 0.4375
vt 0.1875 0.4375
vt 0.1875 0.4375
vt 0.1875 0.4375
vt 0.1875 0.4375
vt 0.1875 0.4375
vt 0.1875 0.4375
vt 0.1875 0.4375
vt 0.1875 0.4375
vn 1 0 0
vn 1 0 0
vn 1 0 0
vn 1 0 0
vn -1 0 0
vn -1 0 0
vn -1 0 0
vn -1 0 0
vn 0 1 0
vn 0 1 0
vn 0 1 0
vn 0 1 0
vn 0 -1 0
vn 0 -1 0
vn 0 -1 0
vn 0 -1 0
vn 0 0 1
vn 0 0 1
vn 0 0 1
vn 0 0 1
vn 0 0 -1
vn 0 0 -1
vn 0 0 -1
vn 0 0 -1
f 587/587/587 589/589/589 588/588/588
f 589/589/589 590/590/590 588/588/588
f 591/591/591 593/593/593 592/592/592
f 593/593/593 594/594/594 592/592/592
f 595/595/595 597/597/597 596/596/596
f 597/597/597 598/598/598 596/596/596
f 599/599/599 601/601/601 600/600/600
f 601/601/601 602/602/602 600/600/600
f 603/603/603 605/605/605 604/604/604
f 605/605/605 606/606/606 604/604/604
f 607/607/607 609/609/609 608/608/608
f 609/609/609 610/610/610 608/608/608
