mtllib web_terminal.mtl
o tower
usemtl atlas
v 0.260000 0.380000 0.732500
v 0.260000 0.380000 0.392500
v 0.260000 0.000000 0.732500
v 0.260000 0.000000 0.392500
v 0.100000 0.380000 0.392500
v 0.100000 0.380000 0.732500
v 0.100000 0.000000 0.392500
v 0.100000 0.000000 0.732500
v 0.100000 0.380000 0.392500
v 0.260000 0.380000 0.392500
v 0.100000 0.380000 0.732500
v 0.260000 0.380000 0.732500
v 0.100000 0.000000 0.732500
v 0.260000 0.000000 0.732500
v 0.100000 0.000000 0.392500
v 0.260000 0.000000 0.392500
v 0.100000 0.380000 0.732500
v 0.260000 0.380000 0.732500
v 0.100000 0.000000 0.732500
v 0.260000 0.000000 0.732500
v 0.260000 0.380000 0.392500
v 0.100000 0.380000 0.392500
v 0.260000 0.000000 0.392500
v 0.100000 0.000000 0.392500
vn 1 0 0
vn 1 0 0
vn 1 0 0
vn 1 0 0
vn -1 0 0
vn -1 0 0
vn -1 0 0
vn -1 0 0
vn 0 1 0
vn 0 1 0
vn 0 1 0
vn 0 1 0
vn 0 -1 0
vn 0 -1 0
vn 0 -1 0
vn 0 -1 0
vn 0 0 1
vn 0 0 1
vn 0 0 1
vn 0 0 1
vn 0 0 -1
vn 0 0 -1
vn 0 0 -1
vn 0 0 -1
vt 0.083333 0.5
vt 0.250000 0.5
vt 0.416667 0.5
vt 0.583333 0.5
vt 0.750000 0.5
vt 0.916667 0.5
f 1/2/1 3/2/3 2/2/2
f 3/2/3 4/2/4 2/2/2
f 5/2/5 7/2/7 6/2/6
f 7/2/7 8/2/8 6/2/6
f 9/2/9 11/2/11 10/2/10
f 11/2/11 12/2/12 10/2/10
f 13/2/13 15/2/15 14/2/14
f 15/2/15 16/2/16 14/2/14
f 17/2/17 19/2/19 18/2/18
f 19/2/19 20/2/20 18/2/18
f 21/2/21 23/2/23 22/2/22
f 23/2/23 24/2/24 22/2/22
o tower_front_panel
usemtl atlas
v 0.250000 0.370000 0.397500
v 0.250000 0.370000 0.385500
v 0.250000 0.010000 0.397500
v 0.250000 0.010000 0.385500
v 0.110000 0.370000 0.385500
v 0.110000 0.370000 0.397500
v 0.110000 0.010000 0.385500
v 0.110000 0.010000 0.397500
v 0.110000 0.370000 0.385500
v 0.250000 0.370000 0.385500
v 0.110000 0.370000 0.397500
v 0.250000 0.370000 0.397500
v 0.110000 0.010000 0.397500
v 0.250000 0.010000 0.397500
v 0.110000 0.010000 0.385500
v 0.250000 0.010000 0.385500
v 0.110000 0.370000 0.397500
v 0.250000 0.370000 0.397500
v 0.110000 0.010000 0.397500
v 0.250000 0.010000 0.397500
v 0.250000 0.370000 0.385500
v 0.110000 0.370000 0.385500
v 0.250000 0.010000 0.385500
v 0.110000 0.010000 0.385500
vn 1 0 0
vn 1 0 0
vn 1 0 0
vn 1 0 0
vn -1 0 0
vn -1 0 0
vn -1 0 0
vn -1 0 0
vn 0 1 0
vn 0 1 0
vn 0 1 0
vn 0 1 0
vn 0 -1 0
vn 0 -1 0
vn 0 -1 0
vn 0 -1 0
vn 0 0 1
vn 0 0 1
vn 0 0 1
vn 0 0 1
vn 0 0 -1
vn 0 0 -1
vn 0 0 -1
vn 0 0 -1
f 25/3/25 27/3/27 26/3/26
f 27/3/27 28/3/28 26/3/26
f 29/3/29 31/3/31 30/3/30
f 31/3/31 32/3/32 30/3/30
f 33/3/33 35/3/35 34/3/34
f 35/3/35 36/3/36 34/3/34
f 37/3/37 39/3/39 38/3/38
f 39/3/39 40/3/40 38/3/38
f 41/3/41 43/3/43 42/3/42
f 43/3/43 44/3/44 42/3/42
f 45/3/45 47/3/47 46/3/46
f 47/3/47 48/3/48 46/3/46
o tower_vent_1
usemtl atlas
v 0.230000 0.104000 0.385500
v 0.230000 0.104000 0.379500
v 0.230000 0.096000 0.385500
v 0.230000 0.096000 0.379500
v 0.130000 0.104000 0.379500
v 0.130000 0.104000 0.385500
v 0.130000 0.096000 0.379500
v 0.130000 0.096000 0.385500
v 0.130000 0.104000 0.379500
v 0.230000 0.104000 0.379500
v 0.130000 0.104000 0.385500
v 0.230000 0.104000 0.385500
v 0.130000 0.096000 0.385500
v 0.230000 0.096000 0.385500
v 0.130000 0.096000 0.379500
v 0.230000 0.096000 0.379500
v 0.130000 0.104000 0.385500
v 0.230000 0.104000 0.385500
v 0.130000 0.096000 0.385500
v 0.230000 0.096000 0.385500
v 0.230000 0.104000 0.379500
v 0.130000 0.104000 0.379500
v 0.230000 0.096000 0.379500
v 0.130000 0.096000 0.379500
vn 1 0 0
vn 1 0 0
vn 1 0 0
vn 1 0 0
vn -1 0 0
vn -1 0 0
vn -1 0 0
vn -1 0 0
vn 0 1 0
vn 0 1 0
vn 0 1 0
vn 0 1 0
vn 0 -1 0
vn 0 -1 0
vn 0 -1 0
vn 0 -1 0
vn 0 0 1
vn 0 0 1
vn 0 0 1
vn 0 0 1
vn 0 0 -1
vn 0 0 -1
vn 0 0 -1
vn 0 0 -1
f 49/3/49 51/3/51 50/3/50
f 51/3/51 52/3/52 50/3/50
f 53/3/53 55/3/55 54/3/54
f 55/3/55 56/3/56 54/3/54
f 57/3/57 59/3/59 58/3/58
f 59/3/59 60/3/60 58/3/58
f 61/3/61 63/3/63 62/3/62
f 63/3/63 64/3/64 62/3/62
f 65/3/65 67/3/67 66/3/66
f 67/3/67 68/3/68 66/3/66
f 69/3/69 71/3/71 70/3/70
f 71/3/71 72/3/72 70/3/70
o tower_vent_2
usemtl atlas
v 0.230000 0.084000 0.385500
v 0.230000 0.084000 0.379500
v 0.230000 0.076000 0.385500
v 0.230000 0.076000 0.379500
v 0.130000 0.084000 0.379500
v 0.130000 0.084000 0.385500
v 0.130000 0.076000 0.379500
v 0.130000 0.076000 0.385500
v 0.130000 0.084000 0.379500
v 0.230000 0.084000 0.379500
v 0.130000 0.084000 0.385500
v 0.230000 0.084000 0.385500
v 0.130000 0.076000 0.385500
v 0.230000 0.076000 0.385500
v 0.130000 0.076000 0.379500
v 0.230000 0.076000 0.379500
v 0.130000 0.084000 0.385500
v 0.230000 0.084000 0.385500
v 0.130000 0.076000 0.385500
v 0.230000 0.076000 0.385500
v 0.230000 0.084000 0.379500
v 0.130000 0.084000 0.379500
v 0.230000 0.076000 0.379500
v 0.130000 0.076000 0.379500
vn 1 0 0
vn 1 0 0
vn 1 0 0
vn 1 0 0
vn -1 0 0
vn -1 0 0
vn -1 0 0
vn -1 0 0
vn 0 1 0
vn 0 1 0
vn 0 1 0
vn 0 1 0
vn 0 -1 0
vn 0 -1 0
vn 0 -1 0
vn 0 -1 0
vn 0 0 1
vn 0 0 1
vn 0 0 1
vn 0 0 1
vn 0 0 -1
vn 0 0 -1
vn 0 0 -1
vn 0 0 -1
f 73/3/73 75/3/75 74/3/74
f 75/3/75 76/3/76 74/3/74
f 77/3/77 79/3/79 78/3/78
f 79/3/79 80/3/80 78/3/78
f 81/3/81 83/3/83 82/3/82
f 83/3/83 84/3/84 82/3/82
f 85/3/85 87/3/87 86/3/86
f 87/3/87 88/3/88 86/3/86
f 89/3/89 91/3/91 90/3/90
f 91/3/91 92/3/92 90/3/90
f 93/3/93 95/3/95 94/3/94
f 95/3/95 96/3/96 94/3/94
o tower_vent_3
usemtl atlas
v 0.230000 0.064000 0.385500
v 0.230000 0.064000 0.379500
v 0.230000 0.056000 0.385500
v 0.230000 0.056000 0.379500
v 0.130000 0.064000 0.379500
v 0.130000 0.064000 0.385500
v 0.130000 0.056000 0.379500
v 0.130000 0.056000 0.385500
v 0.130000 0.064000 0.379500
v 0.230000 0.064000 0.379500
v 0.130000 0.064000 0.385500
v 0.230000 0.064000 0.385500
v 0.130000 0.056000 0.385500
v 0.230000 0.056000 0.385500
v 0.130000 0.056000 0.379500
v 0.230000 0.056000 0.379500
v 0.130000 0.064000 0.385500
v 0.230000 0.064000 0.385500
v 0.130000 0.056000 0.385500
v 0.230000 0.056000 0.385500
v 0.230000 0.064000 0.379500
v 0.130000 0.064000 0.379500
v 0.230000 0.056000 0.379500
v 0.130000 0.056000 0.379500
vn 1 0 0
vn 1 0 0
vn 1 0 0
vn 1 0 0
vn -1 0 0
vn -1 0 0
vn -1 0 0
vn -1 0 0
vn 0 1 0
vn 0 1 0
vn 0 1 0
vn 0 1 0
vn 0 -1 0
vn 0 -1 0
vn 0 -1 0
vn 0 -1 0
vn 0 0 1
vn 0 0 1
vn 0 0 1
vn 0 0 1
vn 0 0 -1
vn 0 0 -1
vn 0 0 -1
vn 0 0 -1
f 97/3/97 99/3/99 98/3/98
f 99/3/99 100/3/100 98/3/98
f 101/3/101 103/3/103 102/3/102
f 103/3/103 104/3/104 102/3/102
f 105/3/105 107/3/107 106/3/106
f 107/3/107 108/3/108 106/3/106
f 109/3/109 111/3/111 110/3/110
f 111/3/111 112/3/112 110/3/110
f 113/3/113 115/3/115 114/3/114
f 115/3/115 116/3/116 114/3/114
f 117/3/117 119/3/119 118/3/118
f 119/3/119 120/3/120 118/3/118
o tower_side_vent
usemtl atlas
v 0.264000 0.310000 0.652500
v 0.264000 0.310000 0.512500
v 0.264000 0.210000 0.652500
v 0.264000 0.210000 0.512500
v 0.258000 0.310000 0.512500
v 0.258000 0.310000 0.652500
v 0.258000 0.210000 0.512500
v 0.258000 0.210000 0.652500
v 0.258000 0.310000 0.512500
v 0.264000 0.310000 0.512500
v 0.258000 0.310000 0.652500
v 0.264000 0.310000 0.652500
v 0.258000 0.210000 0.652500
v 0.264000 0.210000 0.652500
v 0.258000 0.210000 0.512500
v 0.264000 0.210000 0.512500
v 0.258000 0.310000 0.652500
v 0.264000 0.310000 0.652500
v 0.258000 0.210000 0.652500
v 0.264000 0.210000 0.652500
v 0.264000 0.310000 0.512500
v 0.258000 0.310000 0.512500
v 0.264000 0.210000 0.512500
v 0.258000 0.210000 0.512500
vn 1 0 0
vn 1 0 0
vn 1 0 0
vn 1 0 0
vn -1 0 0
vn -1 0 0
vn -1 0 0
vn -1 0 0
vn 0 1 0
vn 0 1 0
vn 0 1 0
vn 0 1 0
vn 0 -1 0
vn 0 -1 0
vn 0 -1 0
vn 0 -1 0
vn 0 0 1
vn 0 0 1
vn 0 0 1
vn 0 0 1
vn 0 0 -1
vn 0 0 -1
vn 0 0 -1
vn 0 0 -1
f 121/3/121 123/3/123 122/3/122
f 123/3/123 124/3/124 122/3/122
f 125/3/125 127/3/127 126/3/126
f 127/3/127 128/3/128 126/3/126
f 129/3/129 131/3/131 130/3/130
f 131/3/131 132/3/132 130/3/130
f 133/3/133 135/3/135 134/3/134
f 135/3/135 136/3/136 134/3/134
f 137/3/137 139/3/139 138/3/138
f 139/3/139 140/3/140 138/3/138
f 141/3/141 143/3/143 142/3/142
f 143/3/143 144/3/144 142/3/142
o power_led
usemtl atlas
v 0.190000 0.355000 0.387500
v 0.190000 0.355000 0.377500
v 0.190000 0.335000 0.387500
v 0.190000 0.335000 0.377500
v 0.170000 0.355000 0.377500
v 0.170000 0.355000 0.387500
v 0.170000 0.335000 0.377500
v 0.170000 0.335000 0.387500
v 0.170000 0.355000 0.377500
v 0.190000 0.355000 0.377500
v 0.170000 0.355000 0.387500
v 0.190000 0.355000 0.387500
v 0.170000 0.335000 0.387500
v 0.190000 0.335000 0.387500
v 0.170000 0.335000 0.377500
v 0.190000 0.335000 0.377500
v 0.170000 0.355000 0.387500
v 0.190000 0.355000 0.387500
v 0.170000 0.335000 0.387500
v 0.190000 0.335000 0.387500
v 0.190000 0.355000 0.377500
v 0.170000 0.355000 0.377500
v 0.190000 0.335000 0.377500
v 0.170000 0.335000 0.377500
vn 1 0 0
vn 1 0 0
vn 1 0 0
vn 1 0 0
vn -1 0 0
vn -1 0 0
vn -1 0 0
vn -1 0 0
vn 0 1 0
vn 0 1 0
vn 0 1 0
vn 0 1 0
vn 0 -1 0
vn 0 -1 0
vn 0 -1 0
vn 0 -1 0
vn 0 0 1
vn 0 0 1
vn 0 0 1
vn 0 0 1
vn 0 0 -1
vn 0 0 -1
vn 0 0 -1
vn 0 0 -1
f 145/5/145 147/5/147 146/5/146
f 147/5/147 148/5/148 146/5/146
f 149/5/149 151/5/151 150/5/150
f 151/5/151 152/5/152 150/5/150
f 153/5/153 155/5/155 154/5/154
f 155/5/155 156/5/156 154/5/154
f 157/5/157 159/5/159 158/5/158
f 159/5/159 160/5/160 158/5/158
f 161/5/161 163/5/163 162/5/162
f 163/5/163 164/5/164 162/5/162
f 165/5/165 167/5/167 166/5/166
f 167/5/167 168/5/168 166/5/166
o power_button
usemtl atlas
v 0.195000 0.315000 0.387500
v 0.195000 0.315000 0.379500
v 0.195000 0.285000 0.387500
v 0.195000 0.285000 0.379500
v 0.165000 0.315000 0.379500
v 0.165000 0.315000 0.387500
v 0.165000 0.285000 0.379500
v 0.165000 0.285000 0.387500
v 0.165000 0.315000 0.379500
v 0.195000 0.315000 0.379500
v 0.165000 0.315000 0.387500
v 0.195000 0.315000 0.387500
v 0.165000 0.285000 0.387500
v 0.195000 0.285000 0.387500
v 0.165000 0.285000 0.379500
v 0.195000 0.285000 0.379500
v 0.165000 0.315000 0.387500
v 0.195000 0.315000 0.387500
v 0.165000 0.285000 0.387500
v 0.195000 0.285000 0.387500
v 0.195000 0.315000 0.379500
v 0.165000 0.315000 0.379500
v 0.195000 0.285000 0.379500
v 0.165000 0.285000 0.379500
vn 1 0 0
vn 1 0 0
vn 1 0 0
vn 1 0 0
vn -1 0 0
vn -1 0 0
vn -1 0 0
vn -1 0 0
vn 0 1 0
vn 0 1 0
vn 0 1 0
vn 0 1 0
vn 0 -1 0
vn 0 -1 0
vn 0 -1 0
vn 0 -1 0
vn 0 0 1
vn 0 0 1
vn 0 0 1
vn 0 0 1
vn 0 0 -1
vn 0 0 -1
vn 0 0 -1
vn 0 0 -1
f 169/1/169 171/1/171 170/1/170
f 171/1/171 172/1/172 170/1/170
f 173/1/173 175/1/175 174/1/174
f 175/1/175 176/1/176 174/1/174
f 177/1/177 179/1/179 178/1/178
f 179/1/179 180/1/180 178/1/178
f 181/1/181 183/1/183 182/1/182
f 183/1/183 184/1/184 182/1/182
f 185/1/185 187/1/187 186/1/186
f 187/1/187 188/1/188 186/1/186
f 189/1/189 191/1/191 190/1/190
f 191/1/191 192/1/192 190/1/190
o monitor_base
usemtl atlas
v 0.770000 0.016000 0.707500
v 0.770000 0.016000 0.557500
v 0.770000 0.000000 0.707500
v 0.770000 0.000000 0.557500
v 0.530000 0.016000 0.557500
v 0.530000 0.016000 0.707500
v 0.530000 0.000000 0.557500
v 0.530000 0.000000 0.707500
v 0.530000 0.016000 0.557500
v 0.770000 0.016000 0.557500
v 0.530000 0.016000 0.707500
v 0.770000 0.016000 0.707500
v 0.530000 0.000000 0.707500
v 0.770000 0.000000 0.707500
v 0.530000 0.000000 0.557500
v 0.770000 0.000000 0.557500
v 0.530000 0.016000 0.707500
v 0.770000 0.016000 0.707500
v 0.530000 0.000000 0.707500
v 0.770000 0.000000 0.707500
v 0.770000 0.016000 0.557500
v 0.530000 0.016000 0.557500
v 0.770000 0.000000 0.557500
v 0.530000 0.000000 0.557500
vn 1 0 0
vn 1 0 0
vn 1 0 0
vn 1 0 0
vn -1 0 0
vn -1 0 0
vn -1 0 0
vn -1 0 0
vn 0 1 0
vn 0 1 0
vn 0 1 0
vn 0 1 0
vn 0 -1 0
vn 0 -1 0
vn 0 -1 0
vn 0 -1 0
vn 0 0 1
vn 0 0 1
vn 0 0 1
vn 0 0 1
vn 0 0 -1
vn 0 0 -1
vn 0 0 -1
vn 0 0 -1
f 193/2/193 195/2/195 194/2/194
f 195/2/195 196/2/196 194/2/194
f 197/2/197 199/2/199 198/2/198
f 199/2/199 200/2/200 198/2/198
f 201/2/201 203/2/203 202/2/202
f 203/2/203 204/2/204 202/2/202
f 205/2/205 207/2/207 206/2/206
f 207/2/207 208/2/208 206/2/206
f 209/2/209 211/2/211 210/2/210
f 211/2/211 212/2/212 210/2/210
f 213/2/213 215/2/215 214/2/214
f 215/2/215 216/2/216 214/2/214
o monitor_neck
usemtl atlas
v 0.670000 0.176000 0.682500
v 0.670000 0.176000 0.652500
v 0.670000 0.016000 0.682500
v 0.670000 0.016000 0.652500
v 0.630000 0.176000 0.652500
v 0.630000 0.176000 0.682500
v 0.630000 0.016000 0.652500
v 0.630000 0.016000 0.682500
v 0.630000 0.176000 0.652500
v 0.670000 0.176000 0.652500
v 0.630000 0.176000 0.682500
v 0.670000 0.176000 0.682500
v 0.630000 0.016000 0.682500
v 0.670000 0.016000 0.682500
v 0.630000 0.016000 0.652500
v 0.670000 0.016000 0.652500
v 0.630000 0.176000 0.682500
v 0.670000 0.176000 0.682500
v 0.630000 0.016000 0.682500
v 0.670000 0.016000 0.682500
v 0.670000 0.176000 0.652500
v 0.630000 0.176000 0.652500
v 0.670000 0.016000 0.652500
v 0.630000 0.016000 0.652500
vn 1 0 0
vn 1 0 0
vn 1 0 0
vn 1 0 0
vn -1 0 0
vn -1 0 0
vn -1 0 0
vn -1 0 0
vn 0 1 0
vn 0 1 0
vn 0 1 0
vn 0 1 0
vn 0 -1 0
vn 0 -1 0
vn 0 -1 0
vn 0 -1 0
vn 0 0 1
vn 0 0 1
vn 0 0 1
vn 0 0 1
vn 0 0 -1
vn 0 0 -1
vn 0 0 -1
vn 0 0 -1
f 217/2/217 219/2/219 218/2/218
f 219/2/219 220/2/220 218/2/218
f 221/2/221 223/2/223 222/2/222
f 223/2/223 224/2/224 222/2/222
f 225/2/225 227/2/227 226/2/226
f 227/2/227 228/2/228 226/2/226
f 229/2/229 231/2/231 230/2/230
f 231/2/231 232/2/232 230/2/230
f 233/2/233 235/2/235 234/2/234
f 235/2/235 236/2/236 234/2/234
f 237/2/237 239/2/239 238/2/238
f 239/2/239 240/2/240 238/2/238
o monitor_body
usemtl atlas
v 0.900000 0.450000 0.674500
v 0.900000 0.450000 0.650500
v 0.900000 0.150000 0.674500
v 0.900000 0.150000 0.650500
v 0.400000 0.450000 0.650500
v 0.400000 0.450000 0.674500
v 0.400000 0.150000 0.650500
v 0.400000 0.150000 0.674500
v 0.400000 0.450000 0.650500
v 0.900000 0.450000 0.650500
v 0.400000 0.450000 0.674500
v 0.900000 0.450000 0.674500
v 0.400000 0.150000 0.674500
v 0.900000 0.150000 0.674500
v 0.400000 0.150000 0.650500
v 0.900000 0.150000 0.650500
v 0.400000 0.450000 0.674500
v 0.900000 0.450000 0.674500
v 0.400000 0.150000 0.674500
v 0.900000 0.150000 0.674500
v 0.900000 0.450000 0.650500
v 0.400000 0.450000 0.650500
v 0.900000 0.150000 0.650500
v 0.400000 0.150000 0.650500
vn 1 0 0
vn 1 0 0
vn 1 0 0
vn 1 0 0
vn -1 0 0
vn -1 0 0
vn -1 0 0
vn -1 0 0
vn 0 1 0
vn 0 1 0
vn 0 1 0
vn 0 1 0
vn 0 -1 0
vn 0 -1 0
vn 0 -1 0
vn 0 -1 0
vn 0 0 1
vn 0 0 1
vn 0 0 1
vn 0 0 1
vn 0 0 -1
vn 0 0 -1
vn 0 0 -1
vn 0 0 -1
f 241/1/241 243/1/243 242/1/242
f 243/1/243 244/1/244 242/1/242
f 245/1/245 247/1/247 246/1/246
f 247/1/247 248/1/248 246/1/246
f 249/1/249 251/1/251 250/1/250
f 251/1/251 252/1/252 250/1/250
f 253/1/253 255/1/255 254/1/254
f 255/1/255 256/1/256 254/1/254
f 257/1/257 259/1/259 258/1/258
f 259/1/259 260/1/260 258/1/258
f 261/1/261 263/1/263 262/1/262
f 263/1/263 264/1/264 262/1/262
o screen_panel
usemtl atlas
v 0.886000 0.436000 0.650500
v 0.886000 0.436000 0.646500
v 0.886000 0.164000 0.650500
v 0.886000 0.164000 0.646500
v 0.414000 0.436000 0.646500
v 0.414000 0.436000 0.650500
v 0.414000 0.164000 0.646500
v 0.414000 0.164000 0.650500
v 0.414000 0.436000 0.646500
v 0.886000 0.436000 0.646500
v 0.414000 0.436000 0.650500
v 0.886000 0.436000 0.650500
v 0.414000 0.164000 0.650500
v 0.886000 0.164000 0.650500
v 0.414000 0.164000 0.646500
v 0.886000 0.164000 0.646500
v 0.414000 0.436000 0.650500
v 0.886000 0.436000 0.650500
v 0.414000 0.164000 0.650500
v 0.886000 0.164000 0.650500
v 0.886000 0.436000 0.646500
v 0.414000 0.436000 0.646500
v 0.886000 0.164000 0.646500
v 0.414000 0.164000 0.646500
vn 1 0 0
vn 1 0 0
vn 1 0 0
vn 1 0 0
vn -1 0 0
vn -1 0 0
vn -1 0 0
vn -1 0 0
vn 0 1 0
vn 0 1 0
vn 0 1 0
vn 0 1 0
vn 0 -1 0
vn 0 -1 0
vn 0 -1 0
vn 0 -1 0
vn 0 0 1
vn 0 0 1
vn 0 0 1
vn 0 0 1
vn 0 0 -1
vn 0 0 -1
vn 0 0 -1
vn 0 0 -1
f 265/6/265 267/6/267 266/6/266
f 267/6/267 268/6/268 266/6/266
f 269/6/269 271/6/271 270/6/270
f 271/6/271 272/6/272 270/6/270
f 273/6/273 275/6/275 274/6/274
f 275/6/275 276/6/276 274/6/274
f 277/6/277 279/6/279 278/6/278
f 279/6/279 280/6/280 278/6/278
f 281/6/281 283/6/283 282/6/282
f 283/6/283 284/6/284 282/6/282
f 285/6/285 287/6/287 286/6/286
f 287/6/287 288/6/288 286/6/286
o monitor_led
usemtl atlas
v 0.874000 0.166000 0.650500
v 0.874000 0.166000 0.646500
v 0.874000 0.158000 0.650500
v 0.874000 0.158000 0.646500
v 0.866000 0.166000 0.646500
v 0.866000 0.166000 0.650500
v 0.866000 0.158000 0.646500
v 0.866000 0.158000 0.650500
v 0.866000 0.166000 0.646500
v 0.874000 0.166000 0.646500
v 0.866000 0.166000 0.650500
v 0.874000 0.166000 0.650500
v 0.866000 0.158000 0.650500
v 0.874000 0.158000 0.650500
v 0.866000 0.158000 0.646500
v 0.874000 0.158000 0.646500
v 0.866000 0.166000 0.650500
v 0.874000 0.166000 0.650500
v 0.866000 0.158000 0.650500
v 0.874000 0.158000 0.650500
v 0.874000 0.166000 0.646500
v 0.866000 0.166000 0.646500
v 0.874000 0.158000 0.646500
v 0.866000 0.158000 0.646500
vn 1 0 0
vn 1 0 0
vn 1 0 0
vn 1 0 0
vn -1 0 0
vn -1 0 0
vn -1 0 0
vn -1 0 0
vn 0 1 0
vn 0 1 0
vn 0 1 0
vn 0 1 0
vn 0 -1 0
vn 0 -1 0
vn 0 -1 0
vn 0 -1 0
vn 0 0 1
vn 0 0 1
vn 0 0 1
vn 0 0 1
vn 0 0 -1
vn 0 0 -1
vn 0 0 -1
vn 0 0 -1
f 289/5/289 291/5/291 290/5/290
f 291/5/291 292/5/292 290/5/290
f 293/5/293 295/5/295 294/5/294
f 295/5/295 296/5/296 294/5/294
f 297/5/297 299/5/299 298/5/298
f 299/5/299 300/5/300 298/5/298
f 301/5/301 303/5/303 302/5/302
f 303/5/303 304/5/304 302/5/302
f 305/5/305 307/5/307 306/5/306
f 307/5/307 308/5/308 306/5/306
f 309/5/309 311/5/311 310/5/310
f 311/5/311 312/5/312 310/5/310
o keyboard_base
usemtl atlas
v 0.820000 0.018000 0.397500
v 0.820000 0.018000 0.267500
v 0.820000 0.000000 0.397500
v 0.820000 0.000000 0.267500
v 0.480000 0.018000 0.267500
v 0.480000 0.018000 0.397500
v 0.480000 0.000000 0.267500
v 0.480000 0.000000 0.397500
v 0.480000 0.018000 0.267500
v 0.820000 0.018000 0.267500
v 0.480000 0.018000 0.397500
v 0.820000 0.018000 0.397500
v 0.480000 0.000000 0.397500
v 0.820000 0.000000 0.397500
v 0.480000 0.000000 0.267500
v 0.820000 0.000000 0.267500
v 0.480000 0.018000 0.397500
v 0.820000 0.018000 0.397500
v 0.480000 0.000000 0.397500
v 0.820000 0.000000 0.397500
v 0.820000 0.018000 0.267500
v 0.480000 0.018000 0.267500
v 0.820000 0.000000 0.267500
v 0.480000 0.000000 0.267500
vn 1 0 0
vn 1 0 0
vn 1 0 0
vn 1 0 0
vn -1 0 0
vn -1 0 0
vn -1 0 0
vn -1 0 0
vn 0 1 0
vn 0 1 0
vn 0 1 0
vn 0 1 0
vn 0 -1 0
vn 0 -1 0
vn 0 -1 0
vn 0 -1 0
vn 0 0 1
vn 0 0 1
vn 0 0 1
vn 0 0 1
vn 0 0 -1
vn 0 0 -1
vn 0 0 -1
vn 0 0 -1
f 313/2/313 315/2/315 314/2/314
f 315/2/315 316/2/316 314/2/314
f 317/2/317 319/2/319 318/2/318
f 319/2/319 320/2/320 318/2/318
f 321/2/321 323/2/323 322/2/322
f 323/2/323 324/2/324 322/2/322
f 325/2/325 327/2/327 326/2/326
f 327/2/327 328/2/328 326/2/326
f 329/2/329 331/2/331 330/2/330
f 331/2/331 332/2/332 330/2/330
f 333/2/333 335/2/335 334/2/334
f 335/2/335 336/2/336 334/2/334
o keyboard_keys
usemtl atlas
v 0.805000 0.028000 0.377500
v 0.805000 0.028000 0.277500
v 0.805000 0.016000 0.377500
v 0.805000 0.016000 0.277500
v 0.495000 0.028000 0.277500
v 0.495000 0.028000 0.377500
v 0.495000 0.016000 0.277500
v 0.495000 0.016000 0.377500
v 0.495000 0.028000 0.277500
v 0.805000 0.028000 0.277500
v 0.495000 0.028000 0.377500
v 0.805000 0.028000 0.377500
v 0.495000 0.016000 0.377500
v 0.805000 0.016000 0.377500
v 0.495000 0.016000 0.277500
v 0.805000 0.016000 0.277500
v 0.495000 0.028000 0.377500
v 0.805000 0.028000 0.377500
v 0.495000 0.016000 0.377500
v 0.805000 0.016000 0.377500
v 0.805000 0.028000 0.277500
v 0.495000 0.028000 0.277500
v 0.805000 0.016000 0.277500
v 0.495000 0.016000 0.277500
vn 1 0 0
vn 1 0 0
vn 1 0 0
vn 1 0 0
vn -1 0 0
vn -1 0 0
vn -1 0 0
vn -1 0 0
vn 0 1 0
vn 0 1 0
vn 0 1 0
vn 0 1 0
vn 0 -1 0
vn 0 -1 0
vn 0 -1 0
vn 0 -1 0
vn 0 0 1
vn 0 0 1
vn 0 0 1
vn 0 0 1
vn 0 0 -1
vn 0 0 -1
vn 0 0 -1
vn 0 0 -1
f 337/4/337 339/4/339 338/4/338
f 339/4/339 340/4/340 338/4/338
f 341/4/341 343/4/343 342/4/342
f 343/4/343 344/4/344 342/4/342
f 345/4/345 347/4/347 346/4/346
f 347/4/347 348/4/348 346/4/346
f 349/4/349 351/4/351 350/4/350
f 351/4/351 352/4/352 350/4/350
f 353/4/353 355/4/355 354/4/354
f 355/4/355 356/4/356 354/4/354
f 357/4/357 359/4/359 358/4/358
f 359/4/359 360/4/360 358/4/358
o keyboard_spacebar
usemtl atlas
v 0.720000 0.029500 0.302500
v 0.720000 0.029500 0.278500
v 0.720000 0.016500 0.302500
v 0.720000 0.016500 0.278500
v 0.580000 0.029500 0.278500
v 0.580000 0.029500 0.302500
v 0.580000 0.016500 0.278500
v 0.580000 0.016500 0.302500
v 0.580000 0.029500 0.278500
v 0.720000 0.029500 0.278500
v 0.580000 0.029500 0.302500
v 0.720000 0.029500 0.302500
v 0.580000 0.016500 0.302500
v 0.720000 0.016500 0.302500
v 0.580000 0.016500 0.278500
v 0.720000 0.016500 0.278500
v 0.580000 0.029500 0.302500
v 0.720000 0.029500 0.302500
v 0.580000 0.016500 0.302500
v 0.720000 0.016500 0.302500
v 0.720000 0.029500 0.278500
v 0.580000 0.029500 0.278500
v 0.720000 0.016500 0.278500
v 0.580000 0.016500 0.278500
vn 1 0 0
vn 1 0 0
vn 1 0 0
vn 1 0 0
vn -1 0 0
vn -1 0 0
vn -1 0 0
vn -1 0 0
vn 0 1 0
vn 0 1 0
vn 0 1 0
vn 0 1 0
vn 0 -1 0
vn 0 -1 0
vn 0 -1 0
vn 0 -1 0
vn 0 0 1
vn 0 0 1
vn 0 0 1
vn 0 0 1
vn 0 0 -1
vn 0 0 -1
vn 0 0 -1
vn 0 0 -1
f 361/3/361 363/3/363 362/3/362
f 363/3/363 364/3/364 362/3/362
f 365/3/365 367/3/367 366/3/366
f 367/3/367 368/3/368 366/3/366
f 369/3/369 371/3/371 370/3/370
f 371/3/371 372/3/372 370/3/370
f 373/3/373 375/3/375 374/3/374
f 375/3/375 376/3/376 374/3/374
f 377/3/377 379/3/379 378/3/378
f 379/3/379 380/3/380 378/3/378
f 381/3/381 383/3/383 382/3/382
f 383/3/383 384/3/384 382/3/382
