o chassis
usemtl chassis_dark
v -0.358427 0.140112 -0.081516
v -0.358427 0.140112 0.342079
v -0.358427 0.004888 -0.081516
v -0.358427 0.004888 0.342079
v 0.358427 0.140112 0.342079
v 0.358427 0.140112 -0.081516
v 0.358427 0.004888 0.342079
v 0.358427 0.004888 -0.081516
v 0.358427 0.140112 0.342079
v -0.358427 0.140112 0.342079
v 0.358427 0.140112 -0.081516
v -0.358427 0.140112 -0.081516
v 0.358427 0.004888 -0.081516
v -0.358427 0.004888 -0.081516
v 0.358427 0.004888 0.342079
v -0.358427 0.004888 0.342079
v 0.358427 0.140112 -0.081516
v -0.358427 0.140112 -0.081516
v 0.358427 0.004888 -0.081516
v -0.358427 0.004888 -0.081516
v -0.358427 0.140112 0.342079
v 0.358427 0.140112 0.342079
v -0.358427 0.004888 0.342079
v 0.358427 0.004888 0.342079
vn -1.0000 0.0000 -0.0000
vn -1.0000 0.0000 -0.0000
vn -1.0000 0.0000 -0.0000
vn -1.0000 0.0000 -0.0000
vn 1.0000 0.0000 -0.0000
vn 1.0000 0.0000 -0.0000
vn 1.0000 0.0000 -0.0000
vn 1.0000 0.0000 -0.0000
vn -0.0000 1.0000 -0.0000
vn -0.0000 1.0000 -0.0000
vn -0.0000 1.0000 -0.0000
vn -0.0000 1.0000 -0.0000
vn -0.0000 -1.0000 -0.0000
vn -0.0000 -1.0000 -0.0000
vn -0.0000 -1.0000 -0.0000
vn -0.0000 -1.0000 -0.0000
vn -0.0000 0.0000 -1.0000
vn -0.0000 0.0000 -1.0000
vn -0.0000 0.0000 -1.0000
vn -0.0000 0.0000 -1.0000
vn -0.0000 0.0000 1.0000
vn -0.0000 0.0000 1.0000
vn -0.0000 0.0000 1.0000
vn -0.0000 0.0000 1.0000
vt 0.083333 0.5
vt 0.250000 0.5
vt 0.416667 0.5
vt 0.583333 0.5
vt 0.750000 0.5
vt 0.916667 0.5
f 1/1/1 3/1/3 2/1/2
f 3/1/3 4/1/4 2/1/2
f 5/1/5 7/1/7 6/1/6
f 7/1/7 8/1/8 6/1/6
f 9/1/9 11/1/11 10/1/10
f 11/1/11 12/1/12 10/1/10
f 13/1/13 15/1/15 14/1/14
f 15/1/15 16/1/16 14/1/14
f 17/1/17 19/1/19 18/1/18
f 19/1/19 20/1/20 18/1/18
f 21/1/21 23/1/23 22/1/22
f 23/1/23 24/1/24 22/1/22
o faceplate
usemtl dark_grey
v -0.393455 0.145000 0.340450
v -0.393455 0.145000 0.350225
v -0.393455 0.000000 0.340450
v -0.393455 0.000000 0.350225
v 0.393455 0.145000 0.350225
v 0.393455 0.145000 0.340450
v 0.393455 0.000000 0.350225
v 0.393455 0.000000 0.340450
v 0.393455 0.145000 0.350225
v -0.393455 0.145000 0.350225
v 0.393455 0.145000 0.340450
v -0.393455 0.145000 0.340450
v 0.393455 0.000000 0.340450
v -0.393455 0.000000 0.340450
v 0.393455 0.000000 0.350225
v -0.393455 0.000000 0.350225
v 0.393455 0.145000 0.340450
v -0.393455 0.145000 0.340450
v 0.393455 0.000000 0.340450
v -0.393455 0.000000 0.340450
v -0.393455 0.145000 0.350225
v 0.393455 0.145000 0.350225
v -0.393455 0.000000 0.350225
v 0.393455 0.000000 0.350225
vn -1.0000 0.0000 -0.0000
vn -1.0000 0.0000 -0.0000
vn -1.0000 0.0000 -0.0000
vn -1.0000 0.0000 -0.0000
vn 1.0000 0.0000 -0.0000
vn 1.0000 0.0000 -0.0000
vn 1.0000 0.0000 -0.0000
vn 1.0000 0.0000 -0.0000
vn -0.0000 1.0000 -0.0000
vn -0.0000 1.0000 -0.0000
vn -0.0000 1.0000 -0.0000
vn -0.0000 1.0000 -0.0000
vn -0.0000 -1.0000 -0.0000
vn -0.0000 -1.0000 -0.0000
vn -0.0000 -1.0000 -0.0000
vn -0.0000 -1.0000 -0.0000
vn -0.0000 0.0000 -1.0000
vn -0.0000 0.0000 -1.0000
vn -0.0000 0.0000 -1.0000
vn -0.0000 0.0000 -1.0000
vn -0.0000 0.0000 1.0000
vn -0.0000 0.0000 1.0000
vn -0.0000 0.0000 1.0000
vn -0.0000 0.0000 1.0000
f 25/2/25 27/2/27 26/2/26
f 27/2/27 28/2/28 26/2/26
f 29/2/29 31/2/31 30/2/30
f 31/2/31 32/2/32 30/2/30
f 33/2/33 35/2/35 34/2/34
f 35/2/35 36/2/36 34/2/34
f 37/2/37 39/2/39 38/2/38
f 39/2/39 40/2/40 38/2/38
f 41/2/41 43/2/43 42/2/42
f 43/2/43 44/2/44 42/2/42
f 45/2/45 47/2/47 46/2/46
f 47/2/47 48/2/48 46/2/46
o screw_slot_lb
usemtl jack_dark
v 0.361685 0.028511 0.349411
v 0.361685 0.028511 0.352669
v 0.361685 0.018736 0.349411
v 0.361685 0.018736 0.352669
v 0.381236 0.028511 0.352669
v 0.381236 0.028511 0.349411
v 0.381236 0.018736 0.352669
v 0.381236 0.018736 0.349411
v 0.381236 0.028511 0.352669
v 0.361685 0.028511 0.352669
v 0.381236 0.028511 0.349411
v 0.361685 0.028511 0.349411
v 0.381236 0.018736 0.349411
v 0.361685 0.018736 0.349411
v 0.381236 0.018736 0.352669
v 0.361685 0.018736 0.352669
v 0.381236 0.028511 0.349411
v 0.361685 0.028511 0.349411
v 0.381236 0.018736 0.349411
v 0.361685 0.018736 0.349411
v 0.361685 0.028511 0.352669
v 0.381236 0.028511 0.352669
v 0.361685 0.018736 0.352669
v 0.381236 0.018736 0.352669
vn -1.0000 0.0000 -0.0000
vn -1.0000 0.0000 -0.0000
vn -1.0000 0.0000 -0.0000
vn -1.0000 0.0000 -0.0000
vn 1.0000 0.0000 -0.0000
vn 1.0000 0.0000 -0.0000
vn 1.0000 0.0000 -0.0000
vn 1.0000 0.0000 -0.0000
vn -0.0000 1.0000 -0.0000
vn -0.0000 1.0000 -0.0000
vn -0.0000 1.0000 -0.0000
vn -0.0000 1.0000 -0.0000
vn -0.0000 -1.0000 -0.0000
vn -0.0000 -1.0000 -0.0000
vn -0.0000 -1.0000 -0.0000
vn -0.0000 -1.0000 -0.0000
vn -0.0000 0.0000 -1.0000
vn -0.0000 0.0000 -1.0000
vn -0.0000 0.0000 -1.0000
vn -0.0000 0.0000 -1.0000
vn -0.0000 0.0000 1.0000
vn -0.0000 0.0000 1.0000
vn -0.0000 0.0000 1.0000
vn -0.0000 0.0000 1.0000
f 49/3/49 51/3/51 50/3/50
f 51/3/51 52/3/52 50/3/50
f 53/3/53 55/3/55 54/3/54
f 55/3/55 56/3/56 54/3/54
f 57/3/57 59/3/59 58/3/58
f 59/3/59 60/3/60 58/3/58
f 61/3/61 63/3/63 62/3/62
f 63/3/63 64/3/64 62/3/62
f 65/3/65 67/3/67 66/3/66
f 67/3/67 68/3/68 66/3/66
f 69/3/69 71/3/71 70/3/70
f 71/3/71 72/3/72 70/3/70
o screw_slot_lt
usemtl jack_dark
v 0.361685 0.126264 0.349411
v 0.361685 0.126264 0.352669
v 0.361685 0.116489 0.349411
v 0.361685 0.116489 0.352669
v 0.381236 0.126264 0.352669
v 0.381236 0.126264 0.349411
v 0.381236 0.116489 0.352669
v 0.381236 0.116489 0.349411
v 0.381236 0.126264 0.352669
v 0.361685 0.126264 0.352669
v 0.381236 0.126264 0.349411
v 0.361685 0.126264 0.349411
v 0.381236 0.116489 0.349411
v 0.361685 0.116489 0.349411
v 0.381236 0.116489 0.352669
v 0.361685 0.116489 0.352669
v 0.381236 0.126264 0.349411
v 0.361685 0.126264 0.349411
v 0.381236 0.116489 0.349411
v 0.361685 0.116489 0.349411
v 0.361685 0.126264 0.352669
v 0.381236 0.126264 0.352669
v 0.361685 0.116489 0.352669
v 0.381236 0.116489 0.352669
vn -1.0000 0.0000 -0.0000
vn -1.0000 0.0000 -0.0000
vn -1.0000 0.0000 -0.0000
vn -1.0000 0.0000 -0.0000
vn 1.0000 0.0000 -0.0000
vn 1.0000 0.0000 -0.0000
vn 1.0000 0.0000 -0.0000
vn 1.0000 0.0000 -0.0000
vn -0.0000 1.0000 -0.0000
vn -0.0000 1.0000 -0.0000
vn -0.0000 1.0000 -0.0000
vn -0.0000 1.0000 -0.0000
vn -0.0000 -1.0000 -0.0000
vn -0.0000 -1.0000 -0.0000
vn -0.0000 -1.0000 -0.0000
vn -0.0000 -1.0000 -0.0000
vn -0.0000 0.0000 -1.0000
vn -0.0000 0.0000 -1.0000
vn -0.0000 0.0000 -1.0000
vn -0.0000 0.0000 -1.0000
vn -0.0000 0.0000 1.0000
vn -0.0000 0.0000 1.0000
vn -0.0000 0.0000 1.0000
vn -0.0000 0.0000 1.0000
f 73/3/73 75/3/75 74/3/74
f 75/3/75 76/3/76 74/3/74
f 77/3/77 79/3/79 78/3/78
f 79/3/79 80/3/80 78/3/78
f 81/3/81 83/3/83 82/3/82
f 83/3/83 84/3/84 82/3/82
f 85/3/85 87/3/87 86/3/86
f 87/3/87 88/3/88 86/3/86
f 89/3/89 91/3/91 90/3/90
f 91/3/91 92/3/92 90/3/90
f 93/3/93 95/3/95 94/3/94
f 95/3/95 96/3/96 94/3/94
o screw_slot_rb
usemtl jack_dark
v -0.381236 0.028511 0.349411
v -0.381236 0.028511 0.352669
v -0.381236 0.018736 0.349411
v -0.381236 0.018736 0.352669
v -0.361685 0.028511 0.352669
v -0.361685 0.028511 0.349411
v -0.361685 0.018736 0.352669
v -0.361685 0.018736 0.349411
v -0.361685 0.028511 0.352669
v -0.381236 0.028511 0.352669
v -0.361685 0.028511 0.349411
v -0.381236 0.028511 0.349411
v -0.361685 0.018736 0.349411
v -0.381236 0.018736 0.349411
v -0.361685 0.018736 0.352669
v -0.381236 0.018736 0.352669
v -0.361685 0.028511 0.349411
v -0.381236 0.028511 0.349411
v -0.361685 0.018736 0.349411
v -0.381236 0.018736 0.349411
v -0.381236 0.028511 0.352669
v -0.361685 0.028511 0.352669
v -0.381236 0.018736 0.352669
v -0.361685 0.018736 0.352669
vn -1.0000 0.0000 -0.0000
vn -1.0000 0.0000 -0.0000
vn -1.0000 0.0000 -0.0000
vn -1.0000 0.0000 -0.0000
vn 1.0000 0.0000 -0.0000
vn 1.0000 0.0000 -0.0000
vn 1.0000 0.0000 -0.0000
vn 1.0000 0.0000 -0.0000
vn -0.0000 1.0000 -0.0000
vn -0.0000 1.0000 -0.0000
vn -0.0000 1.0000 -0.0000
vn -0.0000 1.0000 -0.0000
vn -0.0000 -1.0000 -0.0000
vn -0.0000 -1.0000 -0.0000
vn -0.0000 -1.0000 -0.0000
vn -0.0000 -1.0000 -0.0000
vn -0.0000 0.0000 -1.0000
vn -0.0000 0.0000 -1.0000
vn -0.0000 0.0000 -1.0000
vn -0.0000 0.0000 -1.0000
vn -0.0000 0.0000 1.0000
vn -0.0000 0.0000 1.0000
vn -0.0000 0.0000 1.0000
vn -0.0000 0.0000 1.0000
f 97/3/97 99/3/99 98/3/98
f 99/3/99 100/3/100 98/3/98
f 101/3/101 103/3/103 102/3/102
f 103/3/103 104/3/104 102/3/102
f 105/3/105 107/3/107 106/3/106
f 107/3/107 108/3/108 106/3/106
f 109/3/109 111/3/111 110/3/110
f 111/3/111 112/3/112 110/3/110
f 113/3/113 115/3/115 114/3/114
f 115/3/115 116/3/116 114/3/114
f 117/3/117 119/3/119 118/3/118
f 119/3/119 120/3/120 118/3/118
o screw_slot_rt
usemtl jack_dark
v -0.381236 0.126264 0.349411
v -0.381236 0.126264 0.352669
v -0.381236 0.116489 0.349411
v -0.381236 0.116489 0.352669
v -0.361685 0.126264 0.352669
v -0.361685 0.126264 0.349411
v -0.361685 0.116489 0.352669
v -0.361685 0.116489 0.349411
v -0.361685 0.126264 0.352669
v -0.381236 0.126264 0.352669
v -0.361685 0.126264 0.349411
v -0.381236 0.126264 0.349411
v -0.361685 0.116489 0.349411
v -0.381236 0.116489 0.349411
v -0.361685 0.116489 0.352669
v -0.381236 0.116489 0.352669
v -0.361685 0.126264 0.349411
v -0.381236 0.126264 0.349411
v -0.361685 0.116489 0.349411
v -0.381236 0.116489 0.349411
v -0.381236 0.126264 0.352669
v -0.361685 0.126264 0.352669
v -0.381236 0.116489 0.352669
v -0.361685 0.116489 0.352669
vn -1.0000 0.0000 -0.0000
vn -1.0000 0.0000 -0.0000
vn -1.0000 0.0000 -0.0000
vn -1.0000 0.0000 -0.0000
vn 1.0000 0.0000 -0.0000
vn 1.0000 0.0000 -0.0000
vn 1.0000 0.0000 -0.0000
vn 1.0000 0.0000 -0.0000
vn -0.0000 1.0000 -0.0000
vn -0.0000 1.0000 -0.0000
vn -0.0000 1.0000 -0.0000
vn -0.0000 1.0000 -0.0000
vn -0.0000 -1.0000 -0.0000
vn -0.0000 -1.0000 -0.0000
vn -0.0000 -1.0000 -0.0000
vn -0.0000 -1.0000 -0.0000
vn -0.0000 0.0000 -1.0000
vn -0.0000 0.0000 -1.0000
vn -0.0000 0.0000 -1.0000
vn -0.0000 0.0000 -1.0000
vn -0.0000 0.0000 1.0000
vn -0.0000 0.0000 1.0000
vn -0.0000 0.0000 1.0000
vn -0.0000 0.0000 1.0000
f 121/3/121 123/3/123 122/3/122
f 123/3/123 124/3/124 122/3/122
f 125/3/125 127/3/127 126/3/126
f 127/3/127 128/3/128 126/3/126
f 129/3/129 131/3/131 130/3/130
f 131/3/131 132/3/132 130/3/130
f 133/3/133 135/3/135 134/3/134
f 135/3/135 136/3/136 134/3/134
f 137/3/137 139/3/139 138/3/138
f 139/3/139 140/3/140 138/3/138
f 141/3/141 143/3/143 142/3/142
f 143/3/143 144/3/144 142/3/142
o screen_panel
usemtl screen
v -0.138483 0.119747 0.347293
v -0.138483 0.119747 0.353809
v -0.138483 0.025253 0.347293
v -0.138483 0.025253 0.353809
v 0.333989 0.119747 0.353809
v 0.333989 0.119747 0.347293
v 0.333989 0.025253 0.353809
v 0.333989 0.025253 0.347293
v 0.333989 0.119747 0.353809
v -0.138483 0.119747 0.353809
v 0.333989 0.119747 0.347293
v -0.138483 0.119747 0.347293
v 0.333989 0.025253 0.347293
v -0.138483 0.025253 0.347293
v 0.333989 0.025253 0.353809
v -0.138483 0.025253 0.353809
v 0.333989 0.119747 0.347293
v -0.138483 0.119747 0.347293
v 0.333989 0.025253 0.347293
v -0.138483 0.025253 0.347293
v -0.138483 0.119747 0.353809
v 0.333989 0.119747 0.353809
v -0.138483 0.025253 0.353809
v 0.333989 0.025253 0.353809
vn -1.0000 0.0000 -0.0000
vn -1.0000 0.0000 -0.0000
vn -1.0000 0.0000 -0.0000
vn -1.0000 0.0000 -0.0000
vn 1.0000 0.0000 -0.0000
vn 1.0000 0.0000 -0.0000
vn 1.0000 0.0000 -0.0000
vn 1.0000 0.0000 -0.0000
vn -0.0000 1.0000 -0.0000
vn -0.0000 1.0000 -0.0000
vn -0.0000 1.0000 -0.0000
vn -0.0000 1.0000 -0.0000
vn -0.0000 -1.0000 -0.0000
vn -0.0000 -1.0000 -0.0000
vn -0.0000 -1.0000 -0.0000
vn -0.0000 -1.0000 -0.0000
vn -0.0000 0.0000 -1.0000
vn -0.0000 0.0000 -1.0000
vn -0.0000 0.0000 -1.0000
vn -0.0000 0.0000 -1.0000
vn -0.0000 0.0000 1.0000
vn -0.0000 0.0000 1.0000
vn -0.0000 0.0000 1.0000
vn -0.0000 0.0000 1.0000
f 145/5/145 147/5/147 146/5/146
f 147/5/147 148/5/148 146/5/146
f 149/5/149 151/5/151 150/5/150
f 151/5/151 152/5/152 150/5/150
f 153/5/153 155/5/155 154/5/154
f 155/5/155 156/5/156 154/5/154
f 157/5/157 159/5/159 158/5/158
f 159/5/159 160/5/160 158/5/158
f 161/5/161 163/5/163 162/5/162
f 163/5/163 164/5/164 162/5/162
f 165/5/165 167/5/167 166/5/166
f 167/5/167 168/5/168 166/5/166
o screen_frame
usemtl jack_dark
v -0.145000 0.126264 0.348270
v -0.145000 0.126264 0.351529
v -0.145000 0.018736 0.348270
v -0.145000 0.018736 0.351529
v 0.340506 0.126264 0.351529
v 0.340506 0.126264 0.348270
v 0.340506 0.018736 0.351529
v 0.340506 0.018736 0.348270
v 0.340506 0.126264 0.351529
v -0.145000 0.126264 0.351529
v 0.340506 0.126264 0.348270
v -0.145000 0.126264 0.348270
v 0.340506 0.018736 0.348270
v -0.145000 0.018736 0.348270
v 0.340506 0.018736 0.351529
v -0.145000 0.018736 0.351529
v 0.340506 0.126264 0.348270
v -0.145000 0.126264 0.348270
v 0.340506 0.018736 0.348270
v -0.145000 0.018736 0.348270
v -0.145000 0.126264 0.351529
v 0.340506 0.126264 0.351529
v -0.145000 0.018736 0.351529
v 0.340506 0.018736 0.351529
vn -1.0000 0.0000 -0.0000
vn -1.0000 0.0000 -0.0000
vn -1.0000 0.0000 -0.0000
vn -1.0000 0.0000 -0.0000
vn 1.0000 0.0000 -0.0000
vn 1.0000 0.0000 -0.0000
vn 1.0000 0.0000 -0.0000
vn 1.0000 0.0000 -0.0000
vn -0.0000 1.0000 -0.0000
vn -0.0000 1.0000 -0.0000
vn -0.0000 1.0000 -0.0000
vn -0.0000 1.0000 -0.0000
vn -0.0000 -1.0000 -0.0000
vn -0.0000 -1.0000 -0.0000
vn -0.0000 -1.0000 -0.0000
vn -0.0000 -1.0000 -0.0000
vn -0.0000 0.0000 -1.0000
vn -0.0000 0.0000 -1.0000
vn -0.0000 0.0000 -1.0000
vn -0.0000 0.0000 -1.0000
vn -0.0000 0.0000 1.0000
vn -0.0000 0.0000 1.0000
vn -0.0000 0.0000 1.0000
vn -0.0000 0.0000 1.0000
f 169/3/169 171/3/171 170/3/170
f 171/3/171 172/3/172 170/3/170
f 173/3/173 175/3/175 174/3/174
f 175/3/175 176/3/176 174/3/174
f 177/3/177 179/3/179 178/3/178
f 179/3/179 180/3/180 178/3/178
f 181/3/181 183/3/183 182/3/182
f 183/3/183 184/3/184 182/3/182
f 185/3/185 187/3/187 186/3/186
f 187/3/187 188/3/188 186/3/186
f 189/3/189 191/3/191 190/3/190
f 191/3/191 192/3/192 190/3/190
o rj45_1
usemtl jack_dark
v -0.233792 0.076573 0.346967
v -0.233792 0.076573 0.360000
v -0.233792 0.052135 0.346967
v -0.233792 0.052135 0.360000
v -0.206096 0.076573 0.360000
v -0.206096 0.076573 0.346967
v -0.206096 0.052135 0.360000
v -0.206096 0.052135 0.346967
v -0.206096 0.076573 0.360000
v -0.233792 0.076573 0.360000
v -0.206096 0.076573 0.346967
v -0.233792 0.076573 0.346967
v -0.206096 0.052135 0.346967
v -0.233792 0.052135 0.346967
v -0.206096 0.052135 0.360000
v -0.233792 0.052135 0.360000
v -0.206096 0.076573 0.346967
v -0.233792 0.076573 0.346967
v -0.206096 0.052135 0.346967
v -0.233792 0.052135 0.346967
v -0.233792 0.076573 0.360000
v -0.206096 0.076573 0.360000
v -0.233792 0.052135 0.360000
v -0.206096 0.052135 0.360000
vn -1.0000 0.0000 -0.0000
vn -1.0000 0.0000 -0.0000
vn -1.0000 0.0000 -0.0000
vn -1.0000 0.0000 -0.0000
vn 1.0000 0.0000 -0.0000
vn 1.0000 0.0000 -0.0000
vn 1.0000 0.0000 -0.0000
vn 1.0000 0.0000 -0.0000
vn -0.0000 1.0000 -0.0000
vn -0.0000 1.0000 -0.0000
vn -0.0000 1.0000 -0.0000
vn -0.0000 1.0000 -0.0000
vn -0.0000 -1.0000 -0.0000
vn -0.0000 -1.0000 -0.0000
vn -0.0000 -1.0000 -0.0000
vn -0.0000 -1.0000 -0.0000
vn -0.0000 0.0000 -1.0000
vn -0.0000 0.0000 -1.0000
vn -0.0000 0.0000 -1.0000
vn -0.0000 0.0000 -1.0000
vn -0.0000 0.0000 1.0000
vn -0.0000 0.0000 1.0000
vn -0.0000 0.0000 1.0000
vn -0.0000 0.0000 1.0000
f 193/3/193 195/3/195 194/3/194
f 195/3/195 196/3/196 194/3/194
f 197/3/197 199/3/199 198/3/198
f 199/3/199 200/3/200 198/3/198
f 201/3/201 203/3/203 202/3/202
f 203/3/203 204/3/204 202/3/202
f 205/3/205 207/3/207 206/3/206
f 207/3/207 208/3/208 206/3/206
f 209/3/209 211/3/211 210/3/210
f 211/3/211 212/3/212 210/3/210
f 213/3/213 215/3/215 214/3/214
f 215/3/215 216/3/216 214/3/214
o rj45_1_tab
usemtl jack_dark
v -0.226461 0.052135 0.348596
v -0.226461 0.052135 0.358371
v -0.226461 0.045618 0.348596
v -0.226461 0.045618 0.358371
v -0.213427 0.052135 0.358371
v -0.213427 0.052135 0.348596
v -0.213427 0.045618 0.358371
v -0.213427 0.045618 0.348596
v -0.213427 0.052135 0.358371
v -0.226461 0.052135 0.358371
v -0.213427 0.052135 0.348596
v -0.226461 0.052135 0.348596
v -0.213427 0.045618 0.348596
v -0.226461 0.045618 0.348596
v -0.213427 0.045618 0.358371
v -0.226461 0.045618 0.358371
v -0.213427 0.052135 0.348596
v -0.226461 0.052135 0.348596
v -0.213427 0.045618 0.348596
v -0.226461 0.045618 0.348596
v -0.226461 0.052135 0.358371
v -0.213427 0.052135 0.358371
v -0.226461 0.045618 0.358371
v -0.213427 0.045618 0.358371
vn -1.0000 0.0000 -0.0000
vn -1.0000 0.0000 -0.0000
vn -1.0000 0.0000 -0.0000
vn -1.0000 0.0000 -0.0000
vn 1.0000 0.0000 -0.0000
vn 1.0000 0.0000 -0.0000
vn 1.0000 0.0000 -0.0000
vn 1.0000 0.0000 -0.0000
vn -0.0000 1.0000 -0.0000
vn -0.0000 1.0000 -0.0000
vn -0.0000 1.0000 -0.0000
vn -0.0000 1.0000 -0.0000
vn -0.0000 -1.0000 -0.0000
vn -0.0000 -1.0000 -0.0000
vn -0.0000 -1.0000 -0.0000
vn -0.0000 -1.0000 -0.0000
vn -0.0000 0.0000 -1.0000
vn -0.0000 0.0000 -1.0000
vn -0.0000 0.0000 -1.0000
vn -0.0000 0.0000 -1.0000
vn -0.0000 0.0000 1.0000
vn -0.0000 0.0000 1.0000
vn -0.0000 0.0000 1.0000
vn -0.0000 0.0000 1.0000
f 217/3/217 219/3/219 218/3/218
f 219/3/219 220/3/220 218/3/218
f 221/3/221 223/3/223 222/3/222
f 223/3/223 224/3/224 222/3/222
f 225/3/225 227/3/227 226/3/226
f 227/3/227 228/3/228 226/3/226
f 229/3/229 231/3/231 230/3/230
f 231/3/231 232/3/232 230/3/230
f 233/3/233 235/3/235 234/3/234
f 235/3/235 236/3/236 234/3/234
f 237/3/237 239/3/239 238/3/238
f 239/3/239 240/3/240 238/3/238
o rj45_1_led
usemtl led_green
v -0.212612 0.086348 0.352669
v -0.212612 0.086348 0.357557
v -0.212612 0.081461 0.352669
v -0.212612 0.081461 0.357557
v -0.207725 0.086348 0.357557
v -0.207725 0.086348 0.352669
v -0.207725 0.081461 0.357557
v -0.207725 0.081461 0.352669
v -0.207725 0.086348 0.357557
v -0.212612 0.086348 0.357557
v -0.207725 0.086348 0.352669
v -0.212612 0.086348 0.352669
v -0.207725 0.081461 0.352669
v -0.212612 0.081461 0.352669
v -0.207725 0.081461 0.357557
v -0.212612 0.081461 0.357557
v -0.207725 0.086348 0.352669
v -0.212612 0.086348 0.352669
v -0.207725 0.081461 0.352669
v -0.212612 0.081461 0.352669
v -0.212612 0.086348 0.357557
v -0.207725 0.086348 0.357557
v -0.212612 0.081461 0.357557
v -0.207725 0.081461 0.357557
vn -1.0000 0.0000 -0.0000
vn -1.0000 0.0000 -0.0000
vn -1.0000 0.0000 -0.0000
vn -1.0000 0.0000 -0.0000
vn 1.0000 0.0000 -0.0000
vn 1.0000 0.0000 -0.0000
vn 1.0000 0.0000 -0.0000
vn 1.0000 0.0000 -0.0000
vn -0.0000 1.0000 -0.0000
vn -0.0000 1.0000 -0.0000
vn -0.0000 1.0000 -0.0000
vn -0.0000 1.0000 -0.0000
vn -0.0000 -1.0000 -0.0000
vn -0.0000 -1.0000 -0.0000
vn -0.0000 -1.0000 -0.0000
vn -0.0000 -1.0000 -0.0000
vn -0.0000 0.0000 -1.0000
vn -0.0000 0.0000 -1.0000
vn -0.0000 0.0000 -1.0000
vn -0.0000 0.0000 -1.0000
vn -0.0000 0.0000 1.0000
vn -0.0000 0.0000 1.0000
vn -0.0000 0.0000 1.0000
vn -0.0000 0.0000 1.0000
f 241/4/241 243/4/243 242/4/242
f 243/4/243 244/4/244 242/4/242
f 245/4/245 247/4/247 246/4/246
f 247/4/247 248/4/248 246/4/246
f 249/4/249 251/4/251 250/4/250
f 251/4/251 252/4/252 250/4/250
f 253/4/253 255/4/255 254/4/254
f 255/4/255 256/4/256 254/4/254
f 257/4/257 259/4/259 258/4/258
f 259/4/259 260/4/260 258/4/258
f 261/4/261 263/4/263 262/4/262
f 263/4/263 264/4/264 262/4/262
o rj45_2
usemtl jack_dark
v -0.307107 0.076573 0.346967
v -0.307107 0.076573 0.360000
v -0.307107 0.052135 0.346967
v -0.307107 0.052135 0.360000
v -0.279410 0.076573 0.360000
v -0.279410 0.076573 0.346967
v -0.279410 0.052135 0.360000
v -0.279410 0.052135 0.346967
v -0.279410 0.076573 0.360000
v -0.307107 0.076573 0.360000
v -0.279410 0.076573 0.346967
v -0.307107 0.076573 0.346967
v -0.279410 0.052135 0.346967
v -0.307107 0.052135 0.346967
v -0.279410 0.052135 0.360000
v -0.307107 0.052135 0.360000
v -0.279410 0.076573 0.346967
v -0.307107 0.076573 0.346967
v -0.279410 0.052135 0.346967
v -0.307107 0.052135 0.346967
v -0.307107 0.076573 0.360000
v -0.279410 0.076573 0.360000
v -0.307107 0.052135 0.360000
v -0.279410 0.052135 0.360000
vn -1.0000 0.0000 -0.0000
vn -1.0000 0.0000 -0.0000
vn -1.0000 0.0000 -0.0000
vn -1.0000 0.0000 -0.0000
vn 1.0000 0.0000 -0.0000
vn 1.0000 0.0000 -0.0000
vn 1.0000 0.0000 -0.0000
vn 1.0000 0.0000 -0.0000
vn -0.0000 1.0000 -0.0000
vn -0.0000 1.0000 -0.0000
vn -0.0000 1.0000 -0.0000
vn -0.0000 1.0000 -0.0000
vn -0.0000 -1.0000 -0.0000
vn -0.0000 -1.0000 -0.0000
vn -0.0000 -1.0000 -0.0000
vn -0.0000 -1.0000 -0.0000
vn -0.0000 0.0000 -1.0000
vn -0.0000 0.0000 -1.0000
vn -0.0000 0.0000 -1.0000
vn -0.0000 0.0000 -1.0000
vn -0.0000 0.0000 1.0000
vn -0.0000 0.0000 1.0000
vn -0.0000 0.0000 1.0000
vn -0.0000 0.0000 1.0000
f 265/3/265 267/3/267 266/3/266
f 267/3/267 268/3/268 266/3/266
f 269/3/269 271/3/271 270/3/270
f 271/3/271 272/3/272 270/3/270
f 273/3/273 275/3/275 274/3/274
f 275/3/275 276/3/276 274/3/274
f 277/3/277 279/3/279 278/3/278
f 279/3/279 280/3/280 278/3/278
f 281/3/281 283/3/283 282/3/282
f 283/3/283 284/3/284 282/3/282
f 285/3/285 287/3/287 286/3/286
f 287/3/287 288/3/288 286/3/286
o rj45_2_tab
usemtl jack_dark
v -0.299775 0.052135 0.348596
v -0.299775 0.052135 0.358371
v -0.299775 0.045618 0.348596
v -0.299775 0.045618 0.358371
v -0.286742 0.052135 0.358371
v -0.286742 0.052135 0.348596
v -0.286742 0.045618 0.358371
v -0.286742 0.045618 0.348596
v -0.286742 0.052135 0.358371
v -0.299775 0.052135 0.358371
v -0.286742 0.052135 0.348596
v -0.299775 0.052135 0.348596
v -0.286742 0.045618 0.348596
v -0.299775 0.045618 0.348596
v -0.286742 0.045618 0.358371
v -0.299775 0.045618 0.358371
v -0.286742 0.052135 0.348596
v -0.299775 0.052135 0.348596
v -0.286742 0.045618 0.348596
v -0.299775 0.045618 0.348596
v -0.299775 0.052135 0.358371
v -0.286742 0.052135 0.358371
v -0.299775 0.045618 0.358371
v -0.286742 0.045618 0.358371
vn -1.0000 0.0000 -0.0000
vn -1.0000 0.0000 -0.0000
vn -1.0000 0.0000 -0.0000
vn -1.0000 0.0000 -0.0000
vn 1.0000 0.0000 -0.0000
vn 1.0000 0.0000 -0.0000
vn 1.0000 0.0000 -0.0000
vn 1.0000 0.0000 -0.0000
vn -0.0000 1.0000 -0.0000
vn -0.0000 1.0000 -0.0000
vn -0.0000 1.0000 -0.0000
vn -0.0000 1.0000 -0.0000
vn -0.0000 -1.0000 -0.0000
vn -0.0000 -1.0000 -0.0000
vn -0.0000 -1.0000 -0.0000
vn -0.0000 -1.0000 -0.0000
vn -0.0000 0.0000 -1.0000
vn -0.0000 0.0000 -1.0000
vn -0.0000 0.0000 -1.0000
vn -0.0000 0.0000 -1.0000
vn -0.0000 0.0000 1.0000
vn -0.0000 0.0000 1.0000
vn -0.0000 0.0000 1.0000
vn -0.0000 0.0000 1.0000
f 289/3/289 291/3/291 290/3/290
f 291/3/291 292/3/292 290/3/290
f 293/3/293 295/3/295 294/3/294
f 295/3/295 296/3/296 294/3/294
f 297/3/297 299/3/299 298/3/298
f 299/3/299 300/3/300 298/3/298
f 301/3/301 303/3/303 302/3/302
f 303/3/303 304/3/304 302/3/302
f 305/3/305 307/3/307 306/3/306
f 307/3/307 308/3/308 306/3/306
f 309/3/309 311/3/311 310/3/310
f 311/3/311 312/3/312 310/3/310
o rj45_2_led
usemtl led_green
v -0.285927 0.086348 0.352669
v -0.285927 0.086348 0.357557
v -0.285927 0.081461 0.352669
v -0.285927 0.081461 0.357557
v -0.281039 0.086348 0.357557
v -0.281039 0.086348 0.352669
v -0.281039 0.081461 0.357557
v -0.281039 0.081461 0.352669
v -0.281039 0.086348 0.357557
v -0.285927 0.086348 0.357557
v -0.281039 0.086348 0.352669
v -0.285927 0.086348 0.352669
v -0.281039 0.081461 0.352669
v -0.285927 0.081461 0.352669
v -0.281039 0.081461 0.357557
v -0.285927 0.081461 0.357557
v -0.281039 0.086348 0.352669
v -0.285927 0.086348 0.352669
v -0.281039 0.081461 0.352669
v -0.285927 0.081461 0.352669
v -0.285927 0.086348 0.357557
v -0.281039 0.086348 0.357557
v -0.285927 0.081461 0.357557
v -0.281039 0.081461 0.357557
vn -1.0000 0.0000 -0.0000
vn -1.0000 0.0000 -0.0000
vn -1.0000 0.0000 -0.0000
vn -1.0000 0.0000 -0.0000
vn 1.0000 0.0000 -0.0000
vn 1.0000 0.0000 -0.0000
vn 1.0000 0.0000 -0.0000
vn 1.0000 0.0000 -0.0000
vn -0.0000 1.0000 -0.0000
vn -0.0000 1.0000 -0.0000
vn -0.0000 1.0000 -0.0000
vn -0.0000 1.0000 -0.0000
vn -0.0000 -1.0000 -0.0000
vn -0.0000 -1.0000 -0.0000
vn -0.0000 -1.0000 -0.0000
vn -0.0000 -1.0000 -0.0000
vn -0.0000 0.0000 -1.0000
vn -0.0000 0.0000 -1.0000
vn -0.0000 0.0000 -1.0000
vn -0.0000 0.0000 -1.0000
vn -0.0000 0.0000 1.0000
vn -0.0000 0.0000 1.0000
vn -0.0000 0.0000 1.0000
vn -0.0000 0.0000 1.0000
f 313/4/313 315/4/315 314/4/314
f 315/4/315 316/4/316 314/4/314
f 317/4/317 319/4/319 318/4/318
f 319/4/319 320/4/320 318/4/318
f 321/4/321 323/4/323 322/4/322
f 323/4/323 324/4/324 322/4/322
f 325/4/325 327/4/327 326/4/326
f 327/4/327 328/4/328 326/4/326
f 329/4/329 331/4/331 330/4/330
f 331/4/331 332/4/332 330/4/330
f 333/4/333 335/4/335 334/4/334
f 335/4/335 336/4/336 334/4/334
o usb_port
usemtl steel
v -0.353539 0.070056 0.346967
v -0.353539 0.070056 0.360000
v -0.353539 0.058652 0.346967
v -0.353539 0.058652 0.360000
v -0.330730 0.070056 0.360000
v -0.330730 0.070056 0.346967
v -0.330730 0.058652 0.360000
v -0.330730 0.058652 0.346967
v -0.330730 0.070056 0.360000
v -0.353539 0.070056 0.360000
v -0.330730 0.070056 0.346967
v -0.353539 0.070056 0.346967
v -0.330730 0.058652 0.346967
v -0.353539 0.058652 0.346967
v -0.330730 0.058652 0.360000
v -0.353539 0.058652 0.360000
v -0.330730 0.070056 0.346967
v -0.353539 0.070056 0.346967
v -0.330730 0.058652 0.346967
v -0.353539 0.058652 0.346967
v -0.353539 0.070056 0.360000
v -0.330730 0.070056 0.360000
v -0.353539 0.058652 0.360000
v -0.330730 0.058652 0.360000
vn -1.0000 0.0000 -0.0000
vn -1.0000 0.0000 -0.0000
vn -1.0000 0.0000 -0.0000
vn -1.0000 0.0000 -0.0000
vn 1.0000 0.0000 -0.0000
vn 1.0000 0.0000 -0.0000
vn 1.0000 0.0000 -0.0000
vn 1.0000 0.0000 -0.0000
vn -0.0000 1.0000 -0.0000
vn -0.0000 1.0000 -0.0000
vn -0.0000 1.0000 -0.0000
vn -0.0000 1.0000 -0.0000
vn -0.0000 -1.0000 -0.0000
vn -0.0000 -1.0000 -0.0000
vn -0.0000 -1.0000 -0.0000
vn -0.0000 -1.0000 -0.0000
vn -0.0000 0.0000 -1.0000
vn -0.0000 0.0000 -1.0000
vn -0.0000 0.0000 -1.0000
vn -0.0000 0.0000 -1.0000
vn -0.0000 0.0000 1.0000
vn -0.0000 0.0000 1.0000
vn -0.0000 0.0000 1.0000
vn -0.0000 0.0000 1.0000
f 337/6/337 339/6/339 338/6/338
f 339/6/339 340/6/340 338/6/338
f 341/6/341 343/6/343 342/6/342
f 343/6/343 344/6/344 342/6/342
f 345/6/345 347/6/347 346/6/346
f 347/6/347 348/6/348 346/6/346
f 349/6/349 351/6/351 350/6/350
f 351/6/351 352/6/352 350/6/350
f 353/6/353 355/6/355 354/6/354
f 355/6/355 356/6/356 354/6/354
f 357/6/357 359/6/359 358/6/358
f 359/6/359 360/6/360 358/6/358
o usb_tongue
usemtl jack_dark
v -0.351096 0.067612 0.350225
v -0.351096 0.067612 0.360000
v -0.351096 0.064354 0.350225
v -0.351096 0.064354 0.360000
v -0.333174 0.067612 0.360000
v -0.333174 0.067612 0.350225
v -0.333174 0.064354 0.360000
v -0.333174 0.064354 0.350225
v -0.333174 0.067612 0.360000
v -0.351096 0.067612 0.360000
v -0.333174 0.067612 0.350225
v -0.351096 0.067612 0.350225
v -0.333174 0.064354 0.350225
v -0.351096 0.064354 0.350225
v -0.333174 0.064354 0.360000
v -0.351096 0.064354 0.360000
v -0.333174 0.067612 0.350225
v -0.351096 0.067612 0.350225
v -0.333174 0.064354 0.350225
v -0.351096 0.064354 0.350225
v -0.351096 0.067612 0.360000
v -0.333174 0.067612 0.360000
v -0.351096 0.064354 0.360000
v -0.333174 0.064354 0.360000
vn -1.0000 0.0000 -0.0000
vn -1.0000 0.0000 -0.0000
vn -1.0000 0.0000 -0.0000
vn -1.0000 0.0000 -0.0000
vn 1.0000 0.0000 -0.0000
vn 1.0000 0.0000 -0.0000
vn 1.0000 0.0000 -0.0000
vn 1.0000 0.0000 -0.0000
vn -0.0000 1.0000 -0.0000
vn -0.0000 1.0000 -0.0000
vn -0.0000 1.0000 -0.0000
vn -0.0000 1.0000 -0.0000
vn -0.0000 -1.0000 -0.0000
vn -0.0000 -1.0000 -0.0000
vn -0.0000 -1.0000 -0.0000
vn -0.0000 -1.0000 -0.0000
vn -0.0000 0.0000 -1.0000
vn -0.0000 0.0000 -1.0000
vn -0.0000 0.0000 -1.0000
vn -0.0000 0.0000 -1.0000
vn -0.0000 0.0000 1.0000
vn -0.0000 0.0000 1.0000
vn -0.0000 0.0000 1.0000
vn -0.0000 0.0000 1.0000
f 361/3/361 363/3/363 362/3/362
f 363/3/363 364/3/364 362/3/362
f 365/3/365 367/3/367 366/3/366
f 367/3/367 368/3/368 366/3/366
f 369/3/369 371/3/371 370/3/370
f 371/3/371 372/3/372 370/3/370
f 373/3/373 375/3/375 374/3/374
f 375/3/375 376/3/376 374/3/374
f 377/3/377 379/3/379 378/3/378
f 379/3/379 380/3/380 378/3/378
f 381/3/381 383/3/383 382/3/382
f 383/3/383 384/3/384 382/3/382
